<svg width="24" height="24" viewBox="0 0 24 24" fill="none" xmlns="http://www.w3.org/2000/svg">
<g clip-path="url(#clip0_261_1638)">
<path d="M11.9847 21.7459C9.517 21.7459 7.0493 21.7515 4.5809 21.7445C2.34954 21.7374 0.530385 20.235 0.0861985 18.0353C0.0257224 17.7372 0.00486852 17.4264 0.00417339 17.1213C2.61959e-06 13.9635 0.00417339 10.8063 2.61951e-06 7.64916C-0.000692509 6.94493 0.136943 6.27436 0.433068 5.63746C0.587386 5.30498 0.653423 5.29445 0.910621 5.55399C2.86463 7.52571 4.81863 9.49814 6.77264 11.4699C7.1779 11.8788 7.5776 12.2948 7.99259 12.6939C10.2365 14.8515 13.7309 14.8929 15.9622 12.7233C18.033 10.7095 20.0399 8.62837 22.0752 6.57667C22.4318 6.21754 22.7863 5.8556 23.145 5.49857C23.3313 5.31339 23.4112 5.32812 23.5294 5.56872C23.8151 6.1495 23.9882 6.76466 23.9896 7.41348C23.9958 10.72 24.0118 14.0266 23.9868 17.3324C23.9687 19.6851 21.957 21.7115 19.6235 21.736C17.0779 21.7627 14.5317 21.7424 11.9854 21.7424V21.7459H11.9847Z" fill="#1C85FF"/>
<path d="M12.0113 3.00213C14.4526 3.00213 16.8946 3.00634 19.3358 3.00003C20.2638 2.99722 21.1216 3.22308 21.9036 3.73022C22.1754 3.90698 22.1838 3.96239 21.9641 4.18404C19.5937 6.57874 17.2275 8.97834 14.8488 11.3646C13.2709 12.947 10.7455 12.959 9.16751 11.3807C6.77279 8.98605 4.39684 6.57172 2.01394 4.16511C1.82278 3.97221 1.82904 3.90628 2.04939 3.76038C2.7626 3.28761 3.54601 3.01405 4.39962 3.00985C6.93684 2.99862 9.47406 3.00564 12.0113 3.00564V3.00213Z" fill="#1C85FF"/>
</g>
<defs>
<clipPath id="clip0_261_1638">
<rect width="24" height="24" fill="white"/>
</clipPath>
</defs>
</svg>
