<svg width="24" height="24" viewBox="0 0 24 24" fill="none" xmlns="http://www.w3.org/2000/svg">
<g clip-path="url(#clip0_261_1646)">
<path d="M12.4923 5.755e-05C17.1347 -0.00331988 21.1036 3.42815 21.8593 8.14979C22.3357 11.1253 21.5964 13.7867 19.7204 16.1003C17.7853 18.4881 15.837 20.8624 13.8952 23.2435C13.0772 24.25 11.9272 24.2534 11.1091 23.2503C9.13128 20.8253 7.13699 18.4138 5.17883 15.9753C3.55909 13.959 2.82971 11.6218 3.03341 9.01441C3.3521 4.98176 5.89836 1.69553 9.63725 0.449255C10.5638 0.14191 11.5198 -0.00331988 12.4923 5.755e-05ZM16.4086 9.76082C16.4086 7.54523 14.6575 5.74168 12.5055 5.73493C10.3535 5.73155 8.59903 7.52497 8.58917 9.74394C8.57932 11.9663 10.3371 13.7766 12.5055 13.7732C14.664 13.7732 16.4119 11.9764 16.4119 9.75745L16.4086 9.76082Z" fill="#1C85FF"/>
</g>
<defs>
<clipPath id="clip0_261_1646">
<rect width="24" height="24" fill="white"/>
</clipPath>
</defs>
</svg>
