<svg width="24" height="24" viewBox="0 0 24 24" fill="none" xmlns="http://www.w3.org/2000/svg">
<g clip-path="url(#clip0_261_1643)">
<path d="M17.2431 24.0002C16.1294 23.8947 15.1667 23.6289 14.2271 23.267C11.9837 22.4029 9.99309 21.0907 8.15211 19.5194C5.58384 17.3277 3.43902 14.7581 1.81617 11.7324C0.973088 10.1625 0.340454 8.50771 0.0423674 6.72274C-0.0478261 6.1805 -0.00560789 5.69769 0.282244 5.2209C1.34026 3.46931 2.55883 1.86197 4.08701 0.525741C4.18488 0.440265 4.29426 0.369481 4.39789 0.292686C4.9979 -0.15072 5.47637 -0.0739251 6.10581 0.412219C6.21967 0.499698 6.31946 0.615891 6.40197 0.737427C7.38579 2.18584 8.33122 3.65963 9.07708 5.2603C9.24019 5.61022 9.36365 5.98217 9.48135 6.35212C9.62655 6.80821 9.53892 7.24494 9.22804 7.58618C8.85575 7.99619 8.447 8.37148 8.03889 8.74411C7.5118 9.22491 7.49901 9.22023 7.77918 9.90204C8.97537 12.8136 10.9903 14.8436 13.8209 16.0009C14.0691 16.1024 14.2251 16.0957 14.4043 15.8566C14.7382 15.4112 15.1073 14.9932 15.4744 14.5758C15.9535 14.0316 16.544 13.8626 17.1913 14.1745C18.0082 14.5678 18.8263 14.9725 19.599 15.4499C20.5118 16.0136 21.3805 16.6553 22.2613 17.2743C22.6336 17.5354 22.8581 17.9107 22.9675 18.3675C23.027 18.6179 23.0091 18.853 22.8863 19.0666C22.727 19.3444 22.5684 19.6302 22.365 19.8713C21.0504 21.4286 19.5261 22.7247 17.8047 23.7645C17.6032 23.886 17.3691 23.9488 17.2431 24.0009V24.0002Z" fill="#1C85FF"/>
</g>
<defs>
<clipPath id="clip0_261_1643">
<rect width="24" height="24" fill="white"/>
</clipPath>
</defs>
</svg>
