<svg width="40" height="40" viewBox="0 0 40 40" fill="none" xmlns="http://www.w3.org/2000/svg">
<rect width="40" height="40" rx="8" fill="white"/>
<path d="M10.8009 14.0683C10.3348 13.6356 10.103 13.0999 10.103 12.4626C10.103 11.8253 10.336 11.2661 10.8009 10.8321C11.2669 10.3994 11.8669 10.1824 12.6019 10.1824C13.337 10.1824 13.9134 10.3994 14.3782 10.8321C14.8443 11.2649 15.076 11.8092 15.076 12.4626C15.076 13.1161 14.843 13.6356 14.3782 14.0683C13.9121 14.501 13.3209 14.718 12.6019 14.718C11.883 14.718 11.2669 14.501 10.8009 14.0683ZM14.6844 16.5506V29.8176H10.4935V16.5506H14.6844Z" fill="#007EBB"/>
<path d="M28.5275 17.6703C29.441 18.6622 29.8972 20.0237 29.8972 21.757V29.3924H25.917V22.2952C25.917 21.421 25.6902 20.7415 25.2377 20.258C24.7853 19.7744 24.1755 19.5314 23.4119 19.5314C22.6483 19.5314 22.0385 19.7732 21.586 20.258C21.1336 20.7415 20.9068 21.421 20.9068 22.2952V29.3924H16.9031V16.3225H20.9068V18.0559C21.3121 17.4781 21.8588 17.0218 22.5455 16.6858C23.2322 16.3498 24.0044 16.1824 24.8634 16.1824C26.393 16.1824 27.6152 16.6784 28.5275 17.6703Z" fill="#007EBB"/>
</svg>
