<svg width="300" height="242" viewBox="0 0 300 242" fill="none" xmlns="http://www.w3.org/2000/svg">
<g clip-path="url(#clip0_461_1314)">
<path d="M253.019 136.795C252.628 142.634 253.742 148.732 258.23 153.46C260.414 155.762 258.406 159.525 255.265 159.047C245.26 157.522 232.409 154.003 223.394 145.92H154.233C129.83 145.92 109.954 126.564 109.175 102.393C109.157 101.902 109.148 101.41 109.148 100.916V57.2725C109.148 32.416 129.333 12.2668 154.233 12.2668H225.803C250.703 12.2668 270.889 32.416 270.889 57.2725V100.916C270.889 115.566 263.874 128.579 253.019 136.796V136.795Z" fill="#1C85FF"/>
<path d="M258.973 26.7903L264.753 21.0205L259.809 34.7229L258.973 26.7903Z" fill="#1CA1EA"/>
<path d="M186.096 96.2688C184.07 96.2688 182.044 95.4981 180.498 93.955L158.327 71.8219C155.235 68.7356 155.235 63.7331 158.327 60.6468C161.418 57.5606 166.429 57.5606 169.521 60.6468L186.097 77.1942L261.105 2.31371C264.197 -0.772537 269.208 -0.772537 272.3 2.31371C275.391 5.39995 275.391 10.4025 272.3 13.4888L191.693 93.955C190.147 95.4981 188.121 96.2688 186.096 96.2688Z" fill="white"/>
<path d="M154.648 114.096V145.92H154.233C129.83 145.92 109.954 126.564 109.175 102.393C109.157 101.902 109.148 101.41 109.148 100.916V79.0933H119.585C138.95 79.0933 154.648 94.7658 154.648 114.096Z" fill="black"/>
<path d="M115.197 79.0933H59.5339C40.1686 79.0933 24.4688 94.764 24.4688 114.097V148.041C24.4688 159.435 29.9234 169.556 38.3672 175.947C38.6732 180.49 37.8038 185.23 34.314 188.908C32.6151 190.698 34.1783 193.624 36.6197 193.253C44.4009 192.067 54.3957 189.33 61.4083 183.043H115.197C134.562 183.043 150.262 167.372 150.262 148.039V114.096C150.262 94.764 134.564 79.0916 115.197 79.0916V79.0933Z" fill="#8EC2FF"/>
<path d="M58.2659 138.754C62.5182 138.754 65.9654 135.313 65.9654 131.068C65.9654 126.823 62.5182 123.382 58.2659 123.382C54.0136 123.382 50.5664 126.823 50.5664 131.068C50.5664 135.313 54.0136 138.754 58.2659 138.754Z" fill="white"/>
<path d="M87.3648 141.212C92.977 141.212 97.5265 136.67 97.5265 131.068C97.5265 125.466 92.977 120.924 87.3648 120.924C81.7527 120.924 77.2031 125.466 77.2031 131.068C77.2031 136.67 81.7527 141.212 87.3648 141.212Z" fill="white"/>
<path d="M116.469 138.754C120.721 138.754 124.169 135.313 124.169 131.068C124.169 126.823 120.721 123.382 116.469 123.382C112.217 123.382 108.77 126.823 108.77 131.068C108.77 135.313 112.217 138.754 116.469 138.754Z" fill="white"/>
<path d="M63.3001 58.038C79.3549 58.038 92.3698 45.0458 92.3698 29.019C92.3698 12.9923 79.3549 0 63.3001 0C47.2454 0 34.2305 12.9923 34.2305 29.019C34.2305 45.0458 47.2454 58.038 63.3001 58.038Z" fill="#EDF3FF"/>
<path d="M63.3011 31.4491H51.6336C50.2895 31.4491 49.1992 30.3607 49.1992 29.019C49.1992 27.6772 50.2895 26.5889 51.6336 26.5889H60.8667V12.2651C60.8667 10.9233 61.957 9.83496 63.3011 9.83496C64.6452 9.83496 65.7354 10.9233 65.7354 12.2651V29.019C65.7354 30.3607 64.6452 31.4491 63.3011 31.4491Z" fill="#8EC2FF"/>
</g>
<g filter="url(#filter0_b_461_1314)">
<rect x="0.796875" y="130.098" width="298.406" height="111.902" fill="white" fill-opacity="0.4"/>
</g>
<defs>
<filter id="filter0_b_461_1314" x="-19.2031" y="110.098" width="338.406" height="151.902" filterUnits="userSpaceOnUse" color-interpolation-filters="sRGB">
<feFlood flood-opacity="0" result="BackgroundImageFix"/>
<feGaussianBlur in="BackgroundImageFix" stdDeviation="10"/>
<feComposite in2="SourceAlpha" operator="in" result="effect1_backgroundBlur_461_1314"/>
<feBlend mode="normal" in="SourceGraphic" in2="effect1_backgroundBlur_461_1314" result="shape"/>
</filter>
<clipPath id="clip0_461_1314">
<rect width="282.94" height="210.158" fill="white" transform="translate(8.07422)"/>
</clipPath>
</defs>
</svg>
