<svg width="20" height="20" viewBox="0 0 20 20" fill="none" xmlns="http://www.w3.org/2000/svg">
<g clip-path="url(#clip0_464_2009)">
<path d="M10.0007 0.833348C8.18766 0.833348 6.41538 1.37096 4.90793 2.37821C3.40048 3.38546 2.22556 4.81709 1.53176 6.49208C0.837956 8.16707 0.656426 10.0102 1.01012 11.7883C1.36382 13.5665 2.23686 15.1998 3.51884 16.4818C4.80082 17.7638 6.43417 18.6368 8.21233 18.9905C9.99049 19.3442 11.8336 19.1627 13.5086 18.4689C15.1836 17.7751 16.6152 16.6002 17.6225 15.0927C18.6297 13.5853 19.1673 11.813 19.1673 10C19.1728 8.79468 18.9395 7.60021 18.4808 6.48557C18.0221 5.37092 17.3471 4.35821 16.4948 3.5059C15.6425 2.6536 14.6297 1.9786 13.5151 1.51988C12.4005 1.06117 11.206 0.827831 10.0007 0.833348ZM14.8757 12.9167C14.8007 13.0388 14.697 13.1407 14.5734 13.2133C14.4499 13.286 14.3105 13.3272 14.1673 13.3333C14.0195 13.3314 13.8751 13.2881 13.7507 13.2083L9.16732 10.4583V5.83335C9.16732 5.61233 9.25512 5.40037 9.4114 5.24409C9.56768 5.08781 9.77964 5.00001 10.0007 5.00001C10.2217 5.00001 10.4336 5.08781 10.5899 5.24409C10.7462 5.40037 10.834 5.61233 10.834 5.83335V9.54168L14.584 11.7917C14.6801 11.8433 14.7646 11.9143 14.832 12.0001C14.8994 12.0859 14.9483 12.1848 14.9757 12.2904C15.0031 12.3961 15.0084 12.5062 14.9911 12.614C14.9739 12.7218 14.9346 12.8248 14.8757 12.9167Z" fill="black"/>
</g>
<defs>
<clipPath id="clip0_464_2009">
<rect width="20" height="20" fill="white"/>
</clipPath>
</defs>
</svg>
