<svg width="70" height="70" viewBox="0 0 70 70" fill="none" xmlns="http://www.w3.org/2000/svg">
<g clip-path="url(#clip0_654_809)">
<path d="M35.9953 5C36.4911 5.32209 36.6431 5.77565 36.6431 6.36067C36.6233 9.29235 36.6365 12.224 36.6299 15.1557C36.6299 15.3529 36.6365 15.5567 36.5902 15.7473C36.4646 16.2272 36.1209 16.4835 35.6317 16.4835C35.1426 16.4835 34.7988 16.2272 34.6798 15.7407C34.627 15.5304 34.6402 15.3069 34.6402 15.09C34.6402 12.1977 34.6534 9.3055 34.627 6.41325C34.627 5.81509 34.7592 5.33524 35.2748 5L35.9953 5Z" fill="#1C85FF"/>
<path d="M18.4514 48.5414C19.6148 48.1864 20.7452 47.746 21.9218 47.4962C24.7643 46.8915 27.5539 47.1873 30.1187 48.5348C32.0158 49.5274 33.9593 49.9941 36.0746 49.9809C37.866 49.9743 39.664 50.0861 41.4554 50.1058C43.9211 50.1387 45.8249 51.1509 47.1403 53.2413C47.18 53.307 47.2329 53.3661 47.3056 53.4516C49.2887 52.5182 51.2718 51.5914 53.2483 50.6645C53.9887 50.3161 54.7158 49.9546 55.4694 49.6325C57.7434 48.6663 60.4139 49.5011 61.7162 51.5651C62.1657 52.275 62.0731 52.7811 61.3724 53.2281C55.4826 57.0209 49.6324 60.8663 43.6831 64.567C41.5744 65.8751 39.0823 66.23 36.6299 65.8488C34.5146 65.5201 32.4521 64.8825 30.3765 64.3304C27.8579 63.6599 25.346 62.95 22.8407 62.2401C21.8293 61.9574 20.8708 62.056 19.9519 62.5556C19.6545 62.7199 19.3702 62.904 19.0529 63.0289C18.3787 63.3115 17.8829 63.6467 17.9292 64.521C17.9622 65.0469 17.5326 65.3887 16.9707 65.3755C14.3199 65.3229 11.6692 65.2638 9.01842 65.1717C8.28467 65.1455 7.96737 64.7182 7.9872 63.9228C8.07314 60.7677 8.16568 57.6191 8.25162 54.4639C8.31772 52.0252 8.39043 49.5865 8.44993 47.1478C8.47637 46.0764 8.79366 45.7806 9.87115 45.8069C12.2641 45.866 14.6571 45.9186 17.05 45.9844C18.1936 46.0172 18.4911 46.3459 18.4448 47.4896C18.4316 47.8446 18.4448 48.1995 18.4448 48.5414H18.4514ZM59.4951 52.0712C58.5234 51.1575 57.274 50.9932 56.0048 51.5914C53.5193 52.7548 51.0405 53.9446 48.5483 55.0883C48.0922 55.2987 47.9468 55.509 48.0327 56.0152C48.2046 57.0143 47.9005 57.6914 46.5652 57.6388C43.0155 57.5073 39.4657 57.4416 35.916 57.343C35.5987 57.3364 35.2748 57.3233 34.9641 57.2838C34.4485 57.2115 34.0915 56.7908 34.0981 56.3044C34.1047 55.7917 34.4947 55.3841 35.0434 55.3381C35.2219 55.325 35.4004 55.3381 35.5788 55.3381C38.7915 55.4236 41.9975 55.509 45.2101 55.5945C45.4415 55.5945 45.6662 55.5945 45.9108 55.5945C45.5803 53.7277 43.9013 52.2421 42.0173 52.1435C40.8605 52.0844 39.7037 52.0646 38.5469 52.0252C37.0926 51.9792 35.6383 51.9529 34.1774 51.9003C32.3728 51.828 30.8128 51.0524 29.2131 50.3096C25.6963 48.6794 22.2259 48.87 18.8414 50.7566C18.4911 50.9538 18.3456 51.1838 18.339 51.5979C18.2663 54.6939 18.1672 57.7834 18.0812 60.8794C18.0812 60.9846 18.1143 61.0897 18.1341 61.2541C18.458 61.0897 18.7224 60.9583 18.9802 60.8202C20.3948 60.0446 21.8756 59.8934 23.429 60.3338C25.4187 60.8991 27.415 61.4578 29.4114 61.9969C31.7713 62.6345 34.1179 63.4035 36.5175 63.8242C38.9699 64.2515 41.3497 63.7782 43.4914 62.3781C46.5586 60.3733 49.6457 58.4078 52.7261 56.4293C54.967 54.9897 57.2079 53.5436 59.4885 52.0778L59.4951 52.0712ZM16.0056 63.2589C16.1444 58.2172 16.2832 53.1164 16.4286 47.93H10.4661C10.3273 52.998 10.1818 58.0792 10.043 63.2589H16.0056Z" fill="#000915"/>
<path d="M35.5917 47.2925C27.5337 47.2662 21.0159 40.7586 21.049 32.7655C21.0754 24.7724 27.6395 18.2912 35.6777 18.3175C43.7291 18.3438 50.2535 24.8579 50.2205 32.8444C50.1874 40.8507 43.6365 47.3122 35.5917 47.2859V47.2925ZM35.638 45.3073C42.5723 45.3073 48.1977 39.7069 48.2043 32.8181C48.2043 25.9227 42.6053 20.3355 35.6644 20.3223C28.7104 20.3092 23.0585 25.9162 23.0651 32.8313C23.0717 39.7135 28.7104 45.3139 35.638 45.3073Z" fill="#1C85FF"/>
<path d="M42.1746 13.2297C42.1746 12.5132 42.1614 11.8033 42.1746 11.0868C42.1944 10.4098 42.591 9.98911 43.1794 10.0023C43.7677 10.0088 44.1511 10.4295 44.1577 11.1131C44.1709 12.5198 44.1709 13.9265 44.1577 15.3398C44.1577 16.0562 43.7545 16.4966 43.1529 16.4901C42.5514 16.4835 42.1812 16.0497 42.168 15.3135C42.1548 14.6167 42.168 13.9265 42.168 13.2297H42.1746Z" fill="#1C85FF"/>
<path d="M29.0868 13.256C29.0868 13.9725 29.1 14.6824 29.0868 15.3989C29.0736 16.0694 28.6637 16.4967 28.082 16.4901C27.5003 16.4835 27.1103 16.0628 27.1037 15.3792C27.0904 13.9528 27.0904 12.5264 27.1037 11.0934C27.1103 10.4164 27.5135 9.9957 28.1084 10.0023C28.6968 10.0088 29.0736 10.4295 29.0934 11.1132C29.1066 11.8296 29.0934 12.5396 29.0934 13.256H29.0868Z" fill="#1C85FF"/>
<path d="M33.3578 29.4394C33.3512 30.5963 34.1577 31.5297 35.3211 31.7006C35.7706 31.7663 36.24 31.7729 36.6829 31.8847C38.5205 32.3317 39.8029 33.8895 39.9285 35.7695C40.0475 37.5443 38.9568 39.319 37.2447 39.9369C36.6366 40.1539 36.4317 40.4234 36.4978 41.0215C36.5506 41.4751 36.3589 41.8958 35.9094 42.0075C35.5988 42.0864 35.1426 42.0601 34.9245 41.876C34.6799 41.6657 34.5345 41.2319 34.5345 40.8966C34.5345 40.351 34.3758 40.0947 33.847 39.8581C32.32 39.181 31.5136 37.9321 31.3483 36.2822C31.2756 35.5591 31.6788 35.0464 32.2936 35.0135C32.8885 34.9807 33.2917 35.4014 33.3578 36.1179C33.4768 37.4128 34.4089 38.2673 35.6979 38.2542C36.8613 38.241 37.8331 37.3273 37.9124 36.1704C37.9917 34.9281 37.139 33.9487 35.8566 33.7383C35.103 33.6134 34.2899 33.5346 33.6223 33.1993C32.0424 32.404 31.269 31.0104 31.3615 29.2554C31.4475 27.5003 32.3729 26.2317 34.0057 25.5415C34.4089 25.3706 34.5675 25.1799 34.5147 24.7658C34.4948 24.5883 34.5147 24.4109 34.5411 24.2334C34.6204 23.7272 35.0435 23.3723 35.5327 23.3854C36.0284 23.3986 36.5176 23.7732 36.4713 24.2728C36.3986 25.0682 36.7622 25.3443 37.4497 25.6401C38.9436 26.2777 39.717 27.5134 39.9153 29.1107C40.0079 29.8667 39.6311 30.4123 39.0031 30.4714C38.4082 30.524 37.9785 30.0836 37.9124 29.3342C37.7934 28.0722 36.7622 27.1453 35.5459 27.2111C34.3163 27.2768 33.3711 28.2496 33.3578 29.4591V29.4394Z" fill="#1C85FF"/>
</g>
<defs>
<clipPath id="clip0_654_809">
<rect width="54" height="61" fill="white" transform="translate(8 5)"/>
</clipPath>
</defs>
</svg>
