<svg width="56" height="56" viewBox="0 0 56 56" fill="none" xmlns="http://www.w3.org/2000/svg">
<g clip-path="url(#clip0_654_1093)">
<path d="M55.9947 27.8939C55.9947 28.6335 56.0062 29.3674 55.9947 30.1071C55.9718 31.6953 55.0202 32.7732 53.4553 33.0083C52.1712 33.2032 50.8872 33.3867 49.6088 33.6218C49.4025 33.6619 49.1617 33.8912 49.0757 34.0919C48.4451 35.5483 47.8604 37.0218 47.2241 38.4724C47.0866 38.782 47.0923 38.9769 47.2987 39.2464C48.0783 40.2613 48.835 41.2933 49.5916 42.3254C50.5776 43.667 50.4802 45.0832 49.3165 46.2643C48.2961 47.3021 47.2643 48.3284 46.221 49.3433C45.1719 50.3639 43.756 50.4785 42.5637 49.63C41.4745 48.8559 40.3911 48.0647 39.3249 47.2562C39.0497 47.0441 38.8491 47.0728 38.551 47.2047C37.1179 47.8296 35.6676 48.4316 34.2116 49.005C33.902 49.1254 33.7472 49.2515 33.7014 49.5956C33.5237 50.92 33.3173 52.2445 33.1167 53.5632C32.9046 54.9622 31.8211 55.9312 30.3995 55.9598C28.8861 55.9885 27.3728 56 25.8594 55.9828C24.2887 55.9656 23.2168 54.9909 22.9817 53.4141C22.7926 52.147 22.6149 50.8799 22.3913 49.6242C22.3569 49.4178 22.1391 49.1598 21.9442 49.0738C20.4709 48.4374 18.9805 47.8468 17.5073 47.2047C17.1977 47.067 17.02 47.1244 16.785 47.3021C15.7417 48.0762 14.6927 48.8445 13.6436 49.607C12.3022 50.5817 10.9437 50.4785 9.76278 49.3203C8.76534 48.3399 7.7679 47.3652 6.78193 46.3733C5.61251 45.2036 5.49787 43.8276 6.46091 42.4916C7.21759 41.4367 7.99147 40.3874 8.77108 39.3496C8.96598 39.0916 8.98891 38.9024 8.8456 38.5813C8.20357 37.1537 7.59593 35.7088 7.02269 34.2525C6.87938 33.8912 6.70741 33.7422 6.3348 33.6963C5.01061 33.5186 3.68642 33.3179 2.36796 33.1057C1.05524 32.8936 0.0864619 31.8272 0.0520674 30.5027C0.0119404 28.9317 0.000475596 27.3607 0.0234053 25.7897C0.0463349 24.3047 1.00365 23.2554 2.49981 23.0089C3.77814 22.7967 5.0622 22.5903 6.352 22.4183C6.71887 22.3667 6.85072 22.2119 6.98256 21.8736C7.55007 20.4173 8.15771 18.9724 8.78827 17.539C8.92585 17.2294 8.93158 17.0345 8.71948 16.7593C7.92841 15.7272 7.166 14.678 6.39212 13.6287C5.42908 12.3157 5.52653 10.9397 6.65581 9.79296C7.66472 8.77238 8.67362 7.7518 9.694 6.73695C10.8347 5.6017 12.2163 5.49276 13.529 6.44454C14.6009 7.21857 15.65 8.01554 16.7277 8.76664C16.8825 8.87558 17.192 8.89278 17.3754 8.81824C18.8487 8.22768 20.299 7.58552 21.7722 7.0007C22.1333 6.85736 22.2709 6.69108 22.3225 6.31266C22.483 5.00541 22.6779 3.69815 22.8843 2.39662C23.1136 0.991891 24.2027 0.0401144 25.6187 0.0171801C27.1148 -0.0114879 28.6052 -0.0172215 30.1014 -0.00575431C31.7237 0.00571287 32.7727 0.963223 33.0192 2.5801C33.2084 3.86442 33.4033 5.14875 33.6326 6.42734C33.667 6.61081 33.8905 6.83442 34.0797 6.91469C35.5529 7.54539 37.0491 8.13595 38.5223 8.76664C38.8089 8.88705 38.9924 8.89851 39.2503 8.70357C40.265 7.9238 41.3026 7.1727 42.3287 6.41014C43.6987 5.40102 45.0458 5.48703 46.2496 6.66815C47.2585 7.66006 48.2674 8.6577 49.2706 9.65535C50.3999 10.7849 50.5088 12.1953 49.5744 13.4969C48.8178 14.5518 48.0439 15.5954 47.2643 16.6389C47.0751 16.8911 47.035 17.0804 47.184 17.4072C47.826 18.8348 48.4337 20.2797 49.0127 21.736C49.156 22.0915 49.305 22.2463 49.6948 22.2979C51.0018 22.4642 52.3031 22.6649 53.6043 22.877C55.003 23.1064 55.9489 24.19 55.989 25.6119C56.0062 26.3688 55.989 27.1256 55.989 27.8824C55.9947 27.8824 56.0062 27.8824 56.0119 27.8824L55.9947 27.8939ZM17.0774 45.1406C17.3238 45.238 17.5302 45.2954 17.7136 45.3986C19.4047 46.4134 21.2104 47.1416 23.1193 47.6232C23.6066 47.7493 23.876 48.0131 23.9505 48.5348C24.1626 50.0313 24.4034 51.522 24.6212 53.0185C24.7588 53.9703 25.1314 54.3143 26.0772 54.3086C27.3957 54.3086 28.7142 54.3086 30.0326 54.2971C31.0014 54.2971 31.3453 53.976 31.4829 53.0128C31.7008 51.5163 31.9472 50.0256 32.1479 48.5291C32.2224 47.9787 32.5148 47.7092 33.0192 47.5831C34.9109 47.1072 36.6937 46.3675 38.3676 45.3642C38.8491 45.0718 39.2503 45.1004 39.6975 45.4387C40.9242 46.3561 42.1624 47.2562 43.4063 48.1564C44.0942 48.6552 44.5471 48.6208 45.1547 48.0246C46.1235 47.0728 47.0808 46.1095 48.0439 45.152C48.7088 44.4869 48.7375 44.0282 48.1757 43.2657C47.2757 42.0501 46.3815 40.8289 45.4643 39.6248C45.1433 39.2006 45.0802 38.8049 45.3611 38.3462C46.3872 36.6434 47.1382 34.8201 47.6254 32.8936C47.7515 32.4005 48.0267 32.1425 48.5369 32.068C50.033 31.8501 51.5235 31.6035 53.0196 31.3685C54.0171 31.2137 54.3094 30.8754 54.3037 29.8605C54.3037 28.5819 54.3037 27.2976 54.2922 26.019C54.2922 24.987 53.9769 24.6602 52.9336 24.5111C51.4776 24.2989 50.0216 24.0524 48.5655 23.8575C47.998 23.7829 47.7057 23.4962 47.5738 22.963C47.1038 21.0881 46.3643 19.3222 45.3496 17.6824C45.0286 17.1606 45.063 16.7363 45.4356 16.249C46.3528 15.0449 47.2356 13.8179 48.1241 12.5967C48.64 11.8857 48.5999 11.4328 47.9751 10.8078C47.012 9.85029 46.049 8.89278 45.0802 7.941C44.4439 7.31604 44.0083 7.28737 43.2917 7.80913C42.0592 8.71504 40.821 9.62095 39.6 10.5498C39.1701 10.8766 38.7746 10.8995 38.316 10.6243C36.6249 9.60948 34.8307 8.85265 32.9103 8.39969C32.4001 8.27929 32.1192 8.00407 32.039 7.45938C31.8097 5.88838 31.5517 4.31737 31.288 2.7521C31.1562 1.98954 30.7893 1.69139 30.0097 1.69139C28.6339 1.69139 27.2524 1.69139 25.8766 1.70286C24.9996 1.70859 24.6212 2.06407 24.4951 2.94131C24.2773 4.45498 24.0365 5.96865 23.8416 7.48805C23.7671 8.03274 23.4805 8.30222 22.976 8.43409C21.1072 8.91572 19.3302 9.62668 17.685 10.6358C17.1404 10.9683 16.7047 10.9282 16.206 10.5441C15.0194 9.63815 13.8041 8.76664 12.6003 7.88367C11.878 7.35618 11.4424 7.38485 10.8118 8.01554C9.84877 8.97305 8.89146 9.9363 7.93988 10.9053C7.28638 11.5646 7.25772 11.9775 7.8195 12.7343C8.73095 13.967 9.63667 15.1997 10.5596 16.4267C10.8634 16.8338 10.915 17.218 10.6513 17.6594C9.60801 19.3795 8.85706 21.22 8.36407 23.1694C8.24369 23.6453 7.96854 23.8804 7.48128 23.9549C5.9278 24.19 4.38004 24.4366 2.83229 24.7003C1.98962 24.8436 1.69727 25.2049 1.69727 26.0362C1.69727 27.3951 1.69727 28.7539 1.70874 30.1128C1.71447 31.013 2.04122 31.3685 2.93547 31.5003C4.43164 31.7239 5.92206 31.9762 7.41823 32.1712C8.0144 32.2514 8.30102 32.5553 8.4386 33.1057C8.90866 34.9577 9.63094 36.7122 10.6398 38.3348C10.9609 38.8508 10.9494 39.2808 10.5768 39.7682C9.6596 40.9722 8.77681 42.1992 7.88255 43.4205C7.33797 44.1658 7.37237 44.5901 8.03733 45.2495C8.96025 46.1669 9.88317 47.0785 10.8061 47.9959C11.5742 48.7527 11.9296 48.7757 12.8182 48.1278C14.0105 47.2563 15.1914 46.379 16.3895 45.519C16.6016 45.3642 16.8538 45.2667 17.0831 45.1463L17.0774 45.1406Z" fill="#1C85FF"/>
<path d="M10.875 27.9742C10.8922 18.5023 18.5679 10.8537 28.0322 10.8709C37.3989 10.8881 45.0632 18.508 45.1434 27.871C45.2237 37.3658 37.4505 45.1578 27.929 45.1234C18.4934 45.089 10.8578 37.4059 10.875 27.9742ZM43.3893 27.0568C43.1256 23.4446 41.8244 20.3657 39.4569 17.6824C39.3136 17.8085 39.2161 17.8945 39.1187 17.9863C38.4881 18.617 37.869 19.2591 37.2212 19.8726C36.8544 20.2166 36.3212 20.1994 36.0232 19.8497C35.6964 19.4713 35.7021 19.0699 36.0289 18.6972C36.2582 18.4335 36.5161 18.1984 36.7626 17.9461C37.2442 17.4588 37.7257 16.9657 38.2301 16.4554C35.4843 14.0989 32.406 12.8203 28.8462 12.6024C28.8347 12.7744 28.8175 12.8891 28.8175 12.998C28.8175 13.9097 28.829 14.8213 28.8175 15.733C28.806 16.2547 28.4564 16.5987 27.9863 16.5873C27.4761 16.5815 27.1952 16.2891 27.1436 15.8018C27.1092 15.4578 27.1207 15.1023 27.1207 14.7525C27.1207 14.0416 27.1207 13.3363 27.1207 12.6311C24.1112 12.5852 19.2673 14.6493 17.7482 16.5987C18.4304 17.2753 19.124 17.9519 19.8061 18.6399C20.2991 19.133 20.3393 19.6375 19.9437 20.0045C19.5768 20.3485 19.0781 20.2912 18.6138 19.8268C17.9316 19.1387 17.2609 18.445 16.5329 17.6996C14.131 20.4632 12.8355 23.5708 12.6291 27.2002C13.0362 27.2002 13.3457 27.2002 13.6553 27.2002C14.3718 27.2002 15.0941 27.1772 15.8106 27.2002C16.3323 27.2174 16.7049 27.5671 16.6992 28.0201C16.6934 28.5131 16.4125 28.8113 15.931 28.8916C15.7591 28.9202 15.5813 28.903 15.4094 28.903C14.5036 28.903 13.5979 28.903 12.6349 28.903C12.9043 32.5496 14.217 35.6572 16.6132 38.3405C17.3985 37.5608 18.1036 36.8441 18.8259 36.1388C19.2788 35.7031 19.8061 35.7088 20.1501 36.1274C20.4539 36.4943 20.4023 36.9473 19.9838 37.3658C19.273 38.0768 18.5507 38.7705 17.8342 39.47C19.8692 41.6259 24.8449 43.6212 27.2697 43.3001C27.2812 43.2829 27.3041 43.2714 27.3041 43.2542C27.3099 42.268 27.3099 41.2761 27.3213 40.2899C27.3271 39.7108 27.6309 39.3668 28.1239 39.3439C28.6398 39.3267 28.9723 39.6707 28.9952 40.2842C29.0124 40.6913 29.0067 41.0984 29.0067 41.5055C29.0067 42.1132 29.0067 42.7267 29.0067 43.3746C32.664 43.0707 35.748 41.7635 38.3906 39.3783C37.6798 38.6616 37.0091 37.9908 36.3442 37.3085C36.2009 37.1594 36.0346 36.9874 35.9716 36.7982C35.8397 36.414 35.9601 36.0586 36.3155 35.8349C36.7225 35.5769 37.1008 35.6744 37.4219 36.0012C38.1269 36.7179 38.8206 37.4461 39.5543 38.2087C41.9333 35.4279 43.2059 32.3317 43.4122 28.7196C42.4033 28.7196 41.4575 28.7196 40.5116 28.7196C39.818 28.7196 39.4225 28.387 39.4397 27.8595C39.4569 27.3492 39.8409 27.0511 40.5002 27.0453C41.446 27.0453 42.3919 27.0453 43.4065 27.0453L43.3893 27.0568Z" fill="#000915"/>
<path d="M27.1307 22.0743C27.1307 21.2028 27.1193 20.3256 27.1307 19.4541C27.1422 18.8348 27.4632 18.4679 27.9619 18.4622C28.4721 18.4564 28.8103 18.852 28.8161 19.4885C28.8218 21.1971 28.8333 22.9057 28.8161 24.6143C28.8161 24.9813 28.9307 25.1475 29.2517 25.3711C29.7791 25.7324 30.2606 26.2082 30.6218 26.7357C30.8453 27.0625 31.0173 27.1772 31.3842 27.1658C32.7026 27.1428 34.0211 27.1486 35.3396 27.1371C35.8383 27.1371 36.2224 27.3091 36.3427 27.8308C36.4688 28.3583 36.0504 28.817 35.4198 28.8228C34.0612 28.84 32.7026 28.84 31.3441 28.8228C30.9944 28.8228 30.8052 28.903 30.6447 29.247C30.0543 30.5142 28.8161 31.1334 27.4403 30.9098C26.2823 30.7206 25.2677 29.7115 25.0785 28.5533C24.8492 27.1772 25.4626 25.933 26.7295 25.3425C27.0791 25.1762 27.1537 24.9813 27.1479 24.6372C27.125 23.7829 27.1422 22.9286 27.1422 22.0743C27.1365 22.0743 27.1307 22.0743 27.125 22.0743H27.1307ZM28.0422 26.73C27.3658 26.7013 26.7639 27.2575 26.7237 27.9398C26.6893 28.6164 27.2339 29.2241 27.9161 29.27C28.6097 29.3158 29.246 28.7368 29.2632 28.0315C29.2804 27.355 28.7186 26.7587 28.0365 26.73H28.0422Z" fill="#000915"/>
</g>
<defs>
<clipPath id="clip0_654_1093">
<rect width="56" height="56" fill="white"/>
</clipPath>
</defs>
</svg>
