<svg width="70" height="70" viewBox="0 0 70 70" fill="none" xmlns="http://www.w3.org/2000/svg">
<g clip-path="url(#clip0_654_54)">
<path d="M4.9996 34.6505C5.30004 34.1753 5.73704 34.0497 6.28875 34.0606C7.98759 34.0879 9.68642 34.0661 11.3798 34.0715C12.1282 34.0715 12.4996 34.3665 12.516 34.9508C12.5324 35.568 12.1609 35.9011 11.3853 35.9066C9.64818 35.9175 7.91111 35.9011 6.17404 35.9175C5.62779 35.9175 5.23449 35.7264 4.99414 35.2403V34.6559L4.9996 34.6505Z" fill="#000915"/>
<path d="M35.2396 5C35.7312 5.24031 35.9224 5.62807 35.917 6.17422C35.9006 7.90552 35.9115 9.64227 35.9115 11.3736C35.9115 11.4883 35.9115 11.6084 35.8897 11.7231C35.7968 12.2365 35.4909 12.5205 34.961 12.5041C34.4312 12.4823 34.098 12.1709 34.087 11.663C34.0597 9.71327 34.0543 7.76898 34.1034 5.81922C34.1089 5.54069 34.4585 5.27307 34.6497 5C34.8463 5 35.043 5 35.2342 5H35.2396Z" fill="#000915"/>
<path d="M34.983 15.4697C45.7004 15.4424 54.4513 24.1808 54.4895 34.9454C54.5278 45.7045 45.7714 54.4812 34.9939 54.4812C24.2383 54.4812 15.5256 45.7919 15.471 35.0164C15.4163 24.3009 24.2055 15.497 34.983 15.4697ZM34.9557 52.7007C44.7117 52.7226 52.6814 44.7925 52.7088 35.0328C52.7361 25.284 44.7881 17.3211 35.0267 17.3048C25.2925 17.2884 17.3337 25.213 17.3118 34.9345C17.29 44.7051 25.2051 52.6734 34.9611 52.6953L34.9557 52.7007Z" fill="#000915"/>
<path d="M34.0713 61.1933C34.0713 60.2977 34.0658 59.3965 34.0713 58.5008C34.0767 57.8454 34.3826 57.5014 34.9398 57.4795C35.5352 57.4577 35.8957 57.8018 35.9012 58.4735C35.9176 60.3086 35.9176 62.1436 35.9012 63.9787C35.9012 64.6068 35.5243 64.9945 34.9999 65C34.4536 65.0055 34.0767 64.5904 34.0713 63.9459C34.0603 63.0284 34.0713 62.1109 34.0713 61.1933Z" fill="#000915"/>
<path d="M61.2529 34.0715C62.1487 34.0715 63.05 34.0661 63.9459 34.0715C64.6178 34.077 65.0001 34.4156 65.0001 34.9836C65.0001 35.5462 64.6232 35.9012 63.9459 35.9066C62.1487 35.9175 60.3516 35.9175 58.5599 35.9066C57.8334 35.9066 57.4783 35.5625 57.4947 34.9563C57.5111 34.3774 57.8607 34.077 58.5599 34.0715C59.4557 34.0661 60.357 34.0715 61.2529 34.0715Z" fill="#000915"/>
<path d="M15.6673 23.1267C15.6454 24.0005 14.979 24.4484 14.3891 24.1152C12.6902 23.1649 11.0078 22.1928 9.33078 21.2043C8.85009 20.9203 8.76815 20.4396 9.03581 19.9918C9.29801 19.5494 9.76778 19.3856 10.243 19.6532C11.9036 20.5871 13.5642 21.5319 15.1975 22.5041C15.4433 22.6515 15.5744 22.9956 15.6673 23.1212V23.1267Z" fill="#000915"/>
<path d="M61.1056 20.6417C60.9964 20.7783 60.8489 21.106 60.5976 21.2589C58.9698 22.2256 57.3256 23.1649 55.6814 24.0934C55.2061 24.361 54.7254 24.219 54.4687 23.7766C54.212 23.3452 54.2994 22.8099 54.7528 22.5423C56.4352 21.5538 58.1231 20.5762 59.8329 19.6368C60.4174 19.3146 61.0892 19.7897 61.1111 20.6417H61.1056Z" fill="#000915"/>
<path d="M20.6831 8.89406C20.8033 8.99783 21.1037 9.14529 21.2457 9.38559C22.2071 11.0077 23.1467 12.6461 24.0753 14.29C24.343 14.7652 24.201 15.2676 23.7858 15.5134C23.3488 15.7701 22.7862 15.6609 22.5076 15.1912C21.5407 13.5473 20.5848 11.8979 19.6616 10.2267C19.312 9.59313 19.8091 8.85583 20.6831 8.8886V8.89406Z" fill="#000915"/>
<path d="M24.3103 55.0655C24.1956 55.3878 24.1574 55.5625 24.0754 55.71C23.1523 57.3321 22.2291 58.9541 21.2841 60.5707C20.9673 61.1114 20.4538 61.2425 19.9949 60.964C19.5415 60.6854 19.4214 60.172 19.7218 59.6423C20.6231 58.053 21.5408 56.4691 22.4531 54.8853C22.6934 54.4648 23.0594 54.2081 23.5128 54.3992C23.8296 54.5303 24.059 54.858 24.3048 55.0765L24.3103 55.0655Z" fill="#000915"/>
<path d="M15.6628 46.9225C15.5645 47.0371 15.417 47.3321 15.1821 47.4741C13.5543 48.4407 11.9156 49.3801 10.2714 50.3086C9.80706 50.5707 9.29904 50.4287 9.04231 50.0191C8.76918 49.5713 8.87843 49.0579 9.38098 48.763C11.0252 47.7908 12.6749 46.8241 14.3409 45.8902C14.98 45.5298 15.6902 46.0104 15.6683 46.9225H15.6628Z" fill="#000915"/>
<path d="M50.5465 60.3414C50.3116 60.5653 50.0822 60.8875 49.7763 61.035C49.3776 61.2261 49.0061 61.0131 48.7876 60.6472C48.3015 59.8498 47.8426 59.0361 47.3728 58.2278C46.8921 57.4031 46.406 56.5838 45.9362 55.7537C45.6412 55.2294 45.7614 54.7652 46.2202 54.4866C46.7009 54.1917 47.198 54.3064 47.5094 54.8471C48.4544 56.4582 49.3776 58.0858 50.3062 59.7078C50.3936 59.8553 50.4318 60.03 50.552 60.3468L50.5465 60.3414Z" fill="#000915"/>
<path d="M61.1045 49.3528C61.1154 50.1775 60.4271 50.6745 59.8535 50.3577C58.1547 49.4129 56.4668 48.4353 54.7898 47.4522C54.3255 47.1791 54.2272 46.6712 54.4785 46.2343C54.7297 45.7974 55.2159 45.6281 55.6857 45.8957C57.3626 46.846 59.0287 47.8127 60.6784 48.8067C60.8969 48.9377 61.0171 49.2436 61.1045 49.3583V49.3528Z" fill="#000915"/>
<path d="M46.8424 15.6554C46.0121 15.639 45.5588 14.9563 45.8865 14.3665C46.837 12.6625 47.8257 10.9803 48.8253 9.30366C49.093 8.85035 49.5682 8.77935 49.9998 9.03058C50.4204 9.27635 50.6006 9.74604 50.3494 10.1884C49.388 11.8869 48.4102 13.5745 47.4105 15.2512C47.2794 15.4697 46.9626 15.5735 46.837 15.6608L46.8424 15.6554Z" fill="#000915"/>
<path d="M27.4895 45.2731C27.637 42.7226 27.7572 40.7947 27.8446 38.8668C27.8555 38.5882 27.7408 38.2496 27.5715 38.0311C26.3642 36.5238 25.1243 35.0382 23.8952 33.5473C23.0922 32.5751 23.2943 31.9197 24.5015 31.6084C26.3697 31.1278 28.2433 30.6581 30.1061 30.1447C30.3901 30.0683 30.696 29.8389 30.8599 29.5931C31.9469 27.9492 33.0012 26.2835 34.0718 24.6286C34.6727 23.6947 35.3555 23.6947 35.9618 24.6286C37.0325 26.2835 38.0813 27.9547 39.1738 29.5931C39.3377 29.8389 39.6436 30.0628 39.9276 30.1393C41.7903 30.6527 43.6639 31.1223 45.5321 31.603C46.7229 31.9088 46.9251 32.5314 46.1385 33.4981C44.9039 35.0109 43.6585 36.5128 42.4404 38.0421C42.2765 38.2441 42.1672 38.5664 42.1836 38.8231C42.271 40.7947 42.4076 42.7608 42.5114 44.7324C42.5715 45.9066 42.0689 46.2835 40.96 45.8575C39.1574 45.1748 37.3602 44.4648 35.5685 43.7439C35.2026 43.5964 34.8912 43.5855 34.5143 43.7384C32.739 44.4484 30.9527 45.1256 29.172 45.8138C27.9538 46.2835 27.4841 45.9449 27.5114 45.2676L27.4895 45.2731ZM44.0955 33.1213C42.9757 32.8263 41.976 32.4604 40.9436 32.3184C38.9444 32.0508 37.5624 31.0841 36.7102 29.2381C36.2732 28.2988 35.6013 27.4631 34.9895 26.5183C34.2302 27.7035 33.4382 28.7684 32.8264 29.9317C32.1654 31.1934 31.2477 31.8815 29.8329 32.1109C28.5383 32.3239 27.2765 32.7663 25.9382 33.1213C26.1184 33.3506 26.2495 33.5145 26.3806 33.6783C27.353 34.8744 28.3526 36.0486 29.2867 37.2775C29.5325 37.5997 29.68 38.0803 29.6854 38.4954C29.6964 39.4293 29.5871 40.3632 29.5325 41.3026C29.4888 42.0945 29.456 42.8864 29.4123 43.7439C29.68 43.6456 29.8766 43.58 30.0733 43.5036C31.4007 42.9847 32.728 42.4823 34.0445 41.9416C34.6782 41.6794 35.2626 41.663 35.9018 41.9252C37.251 42.4823 38.6221 42.9902 39.9877 43.5199C40.1734 43.5909 40.3701 43.651 40.6159 43.7329C40.5121 41.9634 40.4302 40.2922 40.3045 38.621C40.2608 38.0366 40.3865 37.5778 40.7743 37.1245C41.8777 35.8356 42.9429 34.5139 44.09 33.1158L44.0955 33.1213Z" fill="#1C85FF"/>
</g>
<defs>
<clipPath id="clip0_654_54">
<rect width="60" height="60" fill="white" transform="translate(5 5)"/>
</clipPath>
</defs>
</svg>
