<svg width="70" height="70" viewBox="0 0 70 70" fill="none" xmlns="http://www.w3.org/2000/svg">
<g clip-path="url(#clip0_654_308)">
<path d="M47.0337 37.1361C46.7555 37.1361 46.5438 37.1361 46.3321 37.1361C44.7049 37.1361 43.0717 37.1483 41.4446 37.1361C39.7388 37.1179 38.4383 35.8477 38.408 34.1948C38.3778 32.5418 39.6965 31.1866 41.4264 31.1562C43.102 31.1258 44.7715 31.1258 46.447 31.1562C47.064 31.1683 47.2938 31.0164 47.2817 30.354C47.2576 28.6706 47.3664 26.9872 47.318 25.3099C47.2334 22.326 48.3705 20.0349 50.9958 18.4427C49.4714 17.0814 48.7335 15.4163 49.0843 13.3683C49.3021 12.0981 49.9312 11.0529 50.9292 10.2446C53.01 8.56729 55.9679 8.74352 57.837 10.6457C59.942 12.7909 59.7908 15.5135 57.4378 18.3759C58.0911 18.9593 58.7988 19.488 59.3795 20.1382C60.4381 21.3354 60.9764 22.7757 60.9824 24.3862C60.9945 28.9441 60.9885 33.502 60.9824 38.0598C60.9824 39.7128 60.3292 41.0924 59.1133 42.2956C60.6498 42.7697 61.0127 43.8575 61.0066 45.2856C60.9643 50.9495 60.9885 56.6135 60.9885 62.2774C60.9885 64.137 60.1417 64.9817 58.2786 64.9817C54.492 64.9817 50.7054 64.9817 46.9188 64.9817C45.0921 64.9817 44.2271 64.1006 44.2271 62.247C44.2271 58.5278 44.2271 54.8146 44.2271 51.0954V50.3965C44.1847 50.3844 44.1484 50.3783 44.1061 50.3661C44.0033 50.5971 43.9004 50.8219 43.8036 51.0589C42.2612 54.9605 40.7429 58.8681 39.1763 62.7575C38.2024 65.1823 35.2021 65.7596 33.5085 63.8635C32.5346 62.7757 32.3652 61.5178 32.9036 60.1565C34.5368 56.0301 36.1639 51.9037 37.7911 47.7772C37.9302 47.4309 38.0996 47.0905 38.2024 46.732C38.8617 44.3436 40.3255 42.6299 42.4305 41.3719C43.5435 40.7095 44.5719 39.8951 45.6244 39.1355C46.2958 38.6554 46.8281 38.0538 47.0398 37.124L47.0337 37.1361ZM49.0359 29.1872C49.0904 29.1993 49.1508 29.2175 49.2053 29.2297C49.3323 29.0656 49.4714 28.9137 49.5924 28.7435C50.4272 27.6071 51.2559 26.4585 52.0967 25.3281C53.3185 23.6752 55.3509 23.3044 56.9237 24.4348C58.4903 25.5591 58.7928 27.6557 57.6072 29.3148C56.2946 31.144 54.9578 32.9611 53.6149 34.766C52.5564 36.1881 51.1409 36.9781 49.3686 37.1422C49.175 37.1604 48.8907 37.3792 48.8424 37.5554C48.4431 38.9653 47.5842 40.0106 46.3986 40.825C45.0195 41.7791 43.6706 42.7697 42.2854 43.7055C41.372 44.3193 40.755 45.1215 40.3558 46.1546C39.3214 48.8286 38.2568 51.4965 37.2043 54.1644C36.3212 56.4008 35.438 58.6372 34.5549 60.8796C34.3069 61.5117 34.3553 62.0951 34.8029 62.6177C35.1961 63.0796 35.7042 63.2437 36.2909 63.1343C36.9926 63.0006 37.3495 62.5023 37.5975 61.8642C39.2125 57.756 40.8457 53.6539 42.4547 49.5457C43.0959 47.9049 44.215 46.7927 45.8421 46.1364C49.3868 44.6961 52.9253 43.2315 56.4579 41.773C58.3814 40.9769 59.1859 39.7797 59.1859 37.6831C59.192 33.4351 59.1859 29.1872 59.1859 24.9392C59.1859 24.6961 59.1738 24.453 59.1617 24.2099C58.9742 21.615 57.0023 19.6764 54.3831 19.5062C52.0241 19.3543 49.6529 21.0924 49.296 23.5293C49.0238 25.3889 49.1146 27.3032 49.042 29.1872H49.0359ZM59.1799 53.6478C59.1799 51.0589 59.1799 48.47 59.1799 45.8812C59.1799 43.8696 59.3311 44.1309 57.462 44.137C56.6575 44.137 55.7865 44.058 55.0606 44.3376C52.2055 45.4254 49.3989 46.6408 46.568 47.7894C46.1506 47.9596 46.0236 48.1662 46.0236 48.6098C46.0417 53.1434 46.0357 57.677 46.0357 62.2106C46.0357 63.11 46.0901 63.1647 46.9612 63.1647C50.7236 63.1647 54.492 63.1647 58.2544 63.1647C59.1133 63.1647 59.1799 63.0978 59.1799 62.2106C59.1799 59.3543 59.1799 56.5041 59.1799 53.6478ZM45.3098 35.3433C46.4349 35.3433 47.5539 35.3433 48.679 35.3433C49.8707 35.3433 51.0139 35.082 51.77 34.1218C53.3306 32.1224 54.8368 30.0805 56.2885 28.0021C56.9539 27.048 56.2522 25.7414 55.1029 25.6259C54.4255 25.5591 53.9355 25.8933 53.5423 26.4281C52.4172 27.9839 51.2619 29.5214 50.1489 31.0772C49.2113 32.3838 47.9532 32.9975 46.3684 32.9854C44.7836 32.9732 43.1988 32.9611 41.614 33.0036C41.251 33.0158 40.7732 33.1434 40.5675 33.3986C40.3437 33.6721 40.2651 34.1765 40.3316 34.5412C40.4344 35.1063 40.9365 35.3312 41.4869 35.3373C42.7632 35.3494 44.0395 35.3373 45.3159 35.3373L45.3098 35.3433ZM54.1835 10.9374C52.3144 10.9252 50.8082 12.4081 50.7961 14.2738C50.784 16.1273 52.2781 17.6587 54.1291 17.6831C55.9619 17.7074 57.5043 16.1759 57.5225 14.3345C57.5406 12.4749 56.0405 10.9556 54.1835 10.9435V10.9374Z" fill="#000915"/>
<path d="M30.2529 44.6718V45.6199C30.2529 51.1501 30.2529 56.6803 30.2529 62.2106C30.2529 64.21 29.4786 64.9939 27.5128 64.9939C25.0448 64.9939 22.5829 64.9939 20.115 64.9939C18.4999 64.9939 17.6289 64.1188 17.6289 62.4901C17.6289 56.8505 17.6289 51.2109 17.6289 45.5713C17.6289 45.3099 17.6289 45.0425 17.6289 44.7205C17.4111 44.7022 17.2236 44.6779 17.0361 44.6779C15.8263 44.6779 14.6166 44.6779 13.4068 44.6779C11.9309 44.6658 11.0175 43.7542 11.0054 42.2835C10.9933 40.8007 11.0054 39.3178 11.0054 37.835C11.0054 36.2124 11.8704 35.3555 13.5036 35.3494C15.9231 35.3434 18.3487 35.3494 20.7683 35.3494C21.0042 35.3494 21.2461 35.3494 21.6091 35.3494C21.4518 35.0638 21.349 34.8633 21.234 34.6688C18.6572 30.3479 16.0864 26.021 13.4915 21.7062C13.0076 20.904 12.8079 20.0714 13.068 19.172C13.3947 18.0416 14.1387 17.3063 15.3001 17.0571C16.4857 16.8019 17.4656 17.1969 18.2519 18.1024C18.4394 18.3151 18.5786 18.5764 18.7237 18.8195C21.0889 22.7514 23.46 26.6895 25.807 30.6335C26.0368 31.0164 26.2788 31.1744 26.7385 31.1683C29.2246 31.144 31.7107 31.1623 34.2028 31.1562C35.4731 31.1562 36.4832 31.6302 37.0821 32.7849C37.6809 33.9395 37.5115 35.0456 36.7433 36.0787C36.6526 36.2002 36.6345 36.419 36.6587 36.5892C36.7191 37.0632 36.8764 37.5372 36.8885 38.0112C36.9188 39.4272 36.9067 40.8432 36.8946 42.2592C36.8825 43.7299 35.957 44.6658 34.4992 44.6779C33.114 44.6901 31.7349 44.6779 30.2468 44.6779L30.2529 44.6718ZM24.0347 37.1361C20.5807 37.1361 17.1208 37.1483 13.6669 37.1301C13.062 37.1301 12.7777 37.3063 12.7958 37.9626C12.8261 39.3361 12.82 40.7034 12.7958 42.0769C12.7898 42.6421 12.9955 42.8608 13.5701 42.8548C15.0642 42.8244 16.5643 42.8426 18.0584 42.8426C19.2016 42.8426 19.4557 43.0978 19.4557 44.2464C19.4557 50.2203 19.4557 56.1881 19.4557 62.162C19.4557 62.8304 19.7783 63.1647 20.4235 63.1647C22.7765 63.1647 25.1355 63.1647 27.4886 63.1647C28.1257 63.1647 28.4443 62.8446 28.4443 62.2045C28.4443 56.2124 28.4443 50.2142 28.4443 44.2221C28.4443 43.0735 28.6802 42.8426 29.8476 42.8426C31.3235 42.8426 32.7995 42.8244 34.2694 42.8548C34.8621 42.8669 35.098 42.6785 35.0859 42.0586C35.0497 40.7338 35.0739 39.4029 35.0739 38.0781C35.0739 37.203 35.0194 37.1483 34.1302 37.1483C30.761 37.1483 27.3918 37.1483 24.0286 37.1483L24.0347 37.1361ZM29.2548 35.3434C30.9304 35.3434 32.5999 35.3555 34.2754 35.3434C35.1585 35.3312 35.6666 34.8146 35.6062 34.055C35.5517 33.3865 35.0678 32.9976 34.2633 32.9915C31.5534 32.9915 28.8496 32.9672 26.1397 33.0036C25.4077 33.0097 24.9722 32.7545 24.5972 32.1285C22.1111 27.9353 19.5887 23.7603 17.0724 19.5792C16.6066 18.8013 15.9352 18.5825 15.3061 18.9714C14.7194 19.3361 14.6166 20.0349 15.0521 20.7703C17.8527 25.474 20.6594 30.1656 23.454 34.8754C23.6596 35.2218 23.8895 35.3616 24.2948 35.3555C25.9461 35.3312 27.5974 35.3434 29.2488 35.3434H29.2548Z" fill="#000915"/>
<path d="M45.8709 11.0468C45.6108 11.3507 45.4535 11.6971 45.1934 11.8004C44.9333 11.9037 44.5401 11.8368 44.2739 11.7031C43.9715 11.5512 43.7477 11.2413 43.4876 11.0043C37.1302 5.2978 27.4157 5.4315 21.2035 11.3142C20.5019 11.9766 19.9817 12.0799 19.5643 11.6363C19.1409 11.1866 19.2619 10.6639 19.9454 10.0076C26.9318 3.28018 38.2674 3.33487 45.2176 10.1474C45.4535 10.3783 45.6168 10.6943 45.8648 11.0468H45.8709Z" fill="#1C85FF"/>
<path d="M32.4925 12.554C35.3173 12.6147 37.7671 13.5567 39.8359 15.4588C40.4347 16.0119 40.5315 16.5588 40.1202 16.9964C39.7149 17.4339 39.237 17.3792 38.6321 16.8262C35.0451 13.5567 29.9338 13.5628 26.3711 16.8444C25.7904 17.3792 25.2762 17.4218 24.877 16.9781C24.4959 16.5467 24.5685 16.0605 25.1189 15.5379C27.1998 13.5688 29.6858 12.6147 32.4925 12.554Z" fill="#1C85FF"/>
<path d="M34.9291 21.5542C34.911 22.8669 33.8161 23.9547 32.5156 23.9547C31.1909 23.9547 30.0719 22.8243 30.0961 21.4934C30.1203 20.1747 31.2091 19.093 32.5096 19.093C33.8343 19.093 34.9473 20.2233 34.9291 21.5603V21.5542ZM32.558 20.6791C32.2616 21.0498 31.9289 21.2868 31.9531 21.4691C31.9894 21.7061 32.316 21.9006 32.5156 22.1133C32.7092 21.9188 33.0358 21.7426 33.06 21.5238C33.0842 21.3172 32.806 21.068 32.558 20.673V20.6791Z" fill="#1C85FF"/>
</g>
<defs>
<clipPath id="clip0_654_308">
<rect width="50" height="60" fill="white" transform="translate(11 5)"/>
</clipPath>
</defs>
</svg>
