<svg width="70" height="70" viewBox="0 0 70 70" fill="none" xmlns="http://www.w3.org/2000/svg">
<path d="M13.4768 62.9384C12.8283 62.6872 12.1308 62.5218 11.5373 62.1726C9.95878 61.2475 9.12056 59.8262 9.02267 57.9883C8.99819 57.4737 8.99207 56.953 9.02267 56.4322C9.08997 55.158 10.0934 54.1839 11.366 54.1533C11.9167 54.141 12.4734 54.1533 13.122 54.1533C13.122 53.8714 13.122 53.6264 13.122 53.3752C13.122 39.1377 13.1281 24.9063 13.1159 10.6688C13.1159 8.91056 13.7461 7.53827 15.2634 6.62545C15.9915 6.19048 16.8052 6.06183 17.6557 6.06183C29.507 6.06795 41.3583 6.06183 53.2157 6.06795C53.6195 6.06795 54.0294 6.09246 54.4271 6.1721C56.2871 6.53968 57.7127 8.19378 57.7555 10.0929C57.7984 11.8144 57.7739 13.5359 57.7739 15.2574C57.7739 15.87 57.4557 16.2376 56.9601 16.2437C56.4584 16.2499 56.1158 15.8578 56.1097 15.2206C56.1036 13.6646 56.1097 12.1085 56.1097 10.5585C56.1097 8.76965 55.0634 7.73431 53.283 7.72818C41.395 7.72818 29.507 7.72818 17.6129 7.72818C15.8324 7.72818 14.7862 8.76965 14.7862 10.5524C14.7862 24.9002 14.7862 39.248 14.7862 53.5896C14.7862 53.755 14.7984 53.9143 14.8107 54.1471H15.5387C25.8543 54.1471 36.176 54.1716 46.4916 54.1226C48.2659 54.1165 49.4345 55.3172 49.3244 56.9713C49.2877 57.5166 49.3244 58.0925 49.4407 58.6255C49.8139 60.2428 51.4536 61.4129 53.026 61.2475C54.7331 61.0698 56.0546 59.6608 56.0975 57.9332C56.128 56.8059 56.1036 55.6726 56.1097 54.5453C56.1097 54.3615 56.0975 54.1716 56.1403 53.994C56.2443 53.5345 56.5563 53.2833 57.0213 53.3262C57.4557 53.363 57.7555 53.6264 57.7555 54.0859C57.7617 55.5684 57.8351 57.0571 57.7066 58.5274C57.5292 60.5614 55.9017 62.289 53.8826 62.8097C53.7602 62.8403 53.6501 62.8955 53.5339 62.9322H13.4768V62.9384ZM49.0185 61.272C47.9172 60.0039 47.5807 58.6132 47.6357 57.0816C47.6786 55.9911 47.4767 55.8257 46.3998 55.8257C35.0258 55.8257 23.6578 55.8257 12.2838 55.8257C11.1988 55.8257 10.6583 56.3751 10.6624 57.4737C10.6746 59.8323 12.1186 61.2781 14.468 61.2781C25.7625 61.2781 37.0632 61.2781 48.3577 61.2781C48.5351 61.2781 48.7126 61.2781 49.0124 61.2781L49.0185 61.272Z" fill="#000915"/>
<path d="M46.2396 46.2808C46.2396 45.1536 46.2519 44.0202 46.2213 42.893C46.2213 42.7153 46.0439 42.458 45.8848 42.3845C44.8752 41.9189 44.294 41.1531 44.1349 40.0565C44.0003 39.1498 43.7801 38.9415 42.8684 38.8128C40.9717 38.5433 39.9194 36.7115 40.6291 34.9226C40.9656 34.0833 40.8738 33.7403 40.1824 33.1889C38.6345 31.9636 38.6345 29.8868 40.1824 28.6677C40.8555 28.1408 40.9595 27.7671 40.6474 26.983C39.8949 25.0961 40.9472 23.3133 42.9847 23.0438C43.6944 22.9519 44.0125 22.6333 44.1227 21.9043C44.4408 19.7968 46.1723 18.8044 48.1547 19.5885C48.8277 19.852 49.2438 19.7356 49.7026 19.1536C50.9997 17.5117 53.0249 17.5117 54.3159 19.1536C54.787 19.7539 55.1908 19.8581 55.9128 19.564C57.8095 18.7982 59.5655 19.8152 59.8714 21.8553C59.9876 22.6456 60.3058 22.9519 61.0889 23.0499C63.0285 23.2888 64.1175 25.1145 63.3956 26.934C63.0468 27.8161 63.1202 28.098 63.8728 28.6922C65.384 29.8868 65.3718 31.9943 63.8483 33.1828C63.1386 33.7341 63.0529 34.0588 63.3895 34.9043C64.1114 36.7238 63.0468 38.5555 61.1134 38.819C60.2691 38.9354 59.9754 39.2049 59.8775 40.0381C59.7429 41.1531 59.1616 41.9311 58.1399 42.3477C57.8034 42.4825 57.7605 42.6663 57.7605 42.9665C57.7667 45.1352 57.7055 47.2978 57.785 49.4665C57.834 50.8388 56.5797 51.4636 55.5396 50.7469C54.5484 50.0669 53.4716 49.5277 52.4498 48.8967C52.1439 48.7068 51.9175 48.6884 51.5993 48.8845C50.547 49.5339 49.4763 50.1526 48.4055 50.7775C47.2614 51.4391 46.2702 50.8755 46.2396 49.5584C46.2396 49.54 46.2396 49.5216 46.2396 49.5032C46.2396 48.4311 46.2396 47.3529 46.2396 46.2808ZM42.073 35.8538C42.0241 36.6196 42.4462 37.0791 43.1621 37.1649C44.6611 37.3425 45.5972 38.2615 45.7685 39.7257C45.8848 40.712 46.5761 41.1102 47.5123 40.7304C48.8889 40.1729 50.0942 40.4976 51.0059 41.6677C51.6299 42.4702 52.4008 42.4702 53.0127 41.6677C53.8998 40.5037 55.1419 40.1668 56.5063 40.7304C57.424 41.1102 58.0787 40.7488 58.2378 39.7808C58.5009 38.1573 59.3024 37.3732 60.9115 37.1587C61.7314 37.0485 62.1535 36.3501 61.8721 35.5843C61.2419 33.8751 61.4744 32.9929 62.8755 31.8411C63.4935 31.3326 63.4935 30.5423 62.8755 30.0277C61.4683 28.8515 61.2358 27.9754 61.8721 26.2846C62.1535 25.531 61.762 24.8449 60.9727 24.7162C59.2473 24.4406 58.5192 23.7299 58.2317 22.0268C58.0787 21.1262 57.4179 20.7587 56.5675 21.1017C55.099 21.696 53.9549 21.3897 52.9943 20.1522C52.407 19.3986 51.636 19.3986 51.0487 20.1399C50.0697 21.3835 48.9195 21.696 47.4756 21.1017C46.5945 20.7403 45.8909 21.1569 45.7746 22.1187C45.6033 23.5706 44.6978 24.4834 43.2355 24.6917C42.1954 24.8449 41.8344 25.4882 42.2382 26.4684C42.7705 27.7733 42.4401 29.0169 41.3327 29.8807C40.47 30.5546 40.47 31.2959 41.3266 31.9575C42.434 32.8091 42.7705 34.065 42.2443 35.3699C42.1709 35.5537 42.1097 35.7497 42.0791 35.8477L42.073 35.8538ZM47.9038 49.1357C49.0663 48.4495 50.1248 47.8491 51.1588 47.212C51.7462 46.8505 52.2907 46.8567 52.8658 47.212C53.7775 47.7695 54.7075 48.3025 55.6313 48.8477C55.7598 48.9274 55.9067 48.9825 56.0963 49.0744C56.0963 46.9731 56.0963 44.9575 56.0963 42.9481C56.0963 42.3355 55.8822 42.072 55.2887 42.1701C54.9339 42.2313 54.53 42.4764 54.3037 42.7582C53.0494 44.3143 50.9875 44.3326 49.7393 42.7643C49.5925 42.5805 49.4273 42.3906 49.2254 42.2742C48.5279 41.876 47.8977 42.2436 47.8977 43.0216C47.8977 43.8915 47.8977 44.7615 47.8977 45.6253V49.1295L47.9038 49.1357Z" fill="#1C85FF"/>
<path d="M27.9522 27.9696C25.2173 27.9696 22.4762 27.9696 19.7413 27.9696C19.5761 27.9696 19.4048 27.9758 19.2396 27.9574C18.7869 27.9145 18.5299 27.6266 18.4932 27.1977C18.4626 26.7873 18.6706 26.4748 19.0805 26.3645C19.3069 26.3033 19.5578 26.3033 19.7903 26.3033C25.205 26.3033 30.6259 26.3033 36.0407 26.3033C36.2977 26.3033 36.5669 26.3094 36.8055 26.3829C37.2093 26.5116 37.3745 26.8363 37.3255 27.2529C37.2766 27.6511 37.038 27.8839 36.6464 27.9451C36.4629 27.9758 36.2793 27.9635 36.0958 27.9635C33.3792 27.9635 30.6626 27.9635 27.94 27.9635L27.9522 27.9696Z" fill="#000915"/>
<path d="M27.9344 41.2878C25.1995 41.2878 22.4584 41.2878 19.7235 41.2878C19.5583 41.2878 19.387 41.3 19.2279 41.2755C18.7813 41.2142 18.5243 40.9324 18.4998 40.4975C18.4754 40.087 18.7018 39.7868 19.1056 39.6704C19.2769 39.6214 19.4727 39.6214 19.6562 39.6214C25.1689 39.6214 30.6754 39.6214 36.1881 39.6214C36.39 39.6214 36.6041 39.6214 36.7877 39.6827C37.1854 39.8113 37.3812 40.1115 37.3444 40.5342C37.3077 40.9569 37.0569 41.202 36.6469 41.2755C36.4818 41.3061 36.3166 41.2878 36.1514 41.2878C33.4164 41.2878 30.6754 41.2878 27.9405 41.2878H27.9344Z" fill="#000915"/>
<path d="M27.9186 34.6287C25.1286 34.6287 22.3325 34.6287 19.5425 34.6287C19.0714 34.6287 18.6982 34.5246 18.5391 34.0345C18.3862 33.575 18.6737 33.0972 19.1815 32.993C19.3773 32.9501 19.5854 32.9624 19.7873 32.9624C25.2265 32.9624 30.6596 32.9624 36.0989 32.9624C36.2273 32.9624 36.3558 32.9624 36.4843 32.9624C37.0411 33.0053 37.3715 33.3422 37.3531 33.8384C37.3348 34.3163 37.0105 34.6165 36.466 34.6226C34.7283 34.6349 32.9907 34.6226 31.2531 34.6226C30.1457 34.6226 29.0321 34.6226 27.9247 34.6226L27.9186 34.6287Z" fill="#000915"/>
<path d="M27.8974 21.3224C25.1991 21.3224 22.5009 21.3224 19.7966 21.3224C19.5764 21.3224 19.301 21.3837 19.1481 21.2734C18.885 21.0896 18.5485 20.8078 18.5301 20.5444C18.5118 20.2809 18.8054 19.9562 19.0441 19.7418C19.1787 19.6254 19.4662 19.656 19.6865 19.656C25.1747 19.656 30.669 19.656 36.1572 19.656C36.3407 19.656 36.5304 19.656 36.7078 19.6928C37.1422 19.797 37.3625 20.091 37.338 20.5444C37.3135 20.9671 37.0749 21.2244 36.6589 21.2918C36.457 21.3224 36.2551 21.3163 36.0531 21.3163C33.3366 21.3163 30.62 21.3163 27.8974 21.3163V21.3224Z" fill="#000915"/>
<path d="M60.0074 30.9284C60.0074 35.3516 56.4221 38.9477 52.0046 38.9416C47.6177 38.9416 44.0201 35.3516 44.0079 30.9652C43.9895 26.5481 47.581 22.9397 51.9985 22.9336C56.4343 22.9275 60.0074 26.4869 60.0074 30.9284ZM58.3432 30.9284C58.3432 27.4303 55.5227 24.6122 52.0352 24.6061C48.5294 24.6 45.666 27.4487 45.6721 30.9468C45.6721 34.4388 48.5538 37.2936 52.0474 37.2814C55.5166 37.2691 58.3494 34.4082 58.3432 30.9284Z" fill="#1C85FF"/>
</svg>
