<svg width="146" height="190" viewBox="0 0 146 190" fill="none" xmlns="http://www.w3.org/2000/svg">
<path d="M14.7876 20.4993H131.212C138.822 20.4993 145 26.6685 145 34.2679V175.522C145 183.121 138.822 189.29 131.212 189.29H14.7876C7.1777 189.29 1 183.121 1 175.522V34.2679C1 26.6685 7.1777 20.4993 14.7876 20.4993Z" stroke="#595F7B" stroke-linecap="round" stroke-linejoin="round"/>
<path d="M77.7115 120.075H66.2916V122.186H77.7115V120.075Z" fill="#4598E6"/>
<path d="M89.3867 139.429H22.9301V143.518H89.3867V139.429Z" fill="#CDD1EC"/>
<path d="M76.6702 159.064H22.9301V163.153H76.6702V159.064Z" fill="#CDD1EC"/>
<path d="M54.4349 149.247H22.9301V153.337H54.4349V149.247Z" fill="#CDD1EC"/>
<path d="M106.775 37.3315V39.3972H118.953V50.8113H121.021V37.3315H106.775ZM24.0752 50.8113H26.1437V39.3972H38.3216V37.3315H24.0752V50.8113ZM118.953 109.704V121.122H106.775V123.188H121.021V109.704H118.953ZM26.1437 109.704H24.0752V123.188H38.3216V121.122H26.1437V109.704Z" fill="#1C85FF"/>
<path d="M114.572 163.454C107.856 163.454 102.393 157.998 102.393 151.291C102.393 144.584 107.856 139.128 114.572 139.128C121.289 139.128 126.752 144.584 126.752 151.291C126.752 157.998 121.289 163.454 114.572 163.454ZM114.572 141.482C109.157 141.482 104.75 145.883 104.75 151.291C104.75 156.699 109.157 161.099 114.572 161.099C119.988 161.099 124.395 156.699 124.395 151.291C124.395 145.883 119.988 141.482 114.572 141.482Z" fill="#CDD1EC"/>
<path d="M113.796 156.078L108.263 150.552L109.93 148.889L113.796 152.749L119.216 147.337L120.884 149L113.796 156.078Z" fill="#CDD1EC"/>
<path d="M116.485 101.21H102.825C101.926 94.6788 100.823 87.2228 100.823 87.2228C100.823 87.2228 100.27 93.376 99.5997 101.21H44.932C44.4333 94.1648 43.8329 88.894 43.6155 88.7845C43.3003 88.6271 41.3514 94.878 39.7337 101.21H24.9368C28.7427 84.8384 35.842 58.5701 39.9452 56.9964C45.7877 54.7534 69.6109 47.4209 69.6109 47.4209H83.207C83.207 47.4209 107.367 54.3032 109.613 61.7871C111.401 67.7511 115.342 87.416 116.485 101.21Z" fill="url(#paint0_linear_0_15)"/>
<path d="M77.0354 3.37621C77.0354 3.37621 89.7299 5.37418 87.797 25.2084C85.8641 45.0446 74.6596 43.4171 73.9096 43.3972C73.1616 43.3773 62.6613 43.7597 61.8435 19.5412C61.8435 19.5412 61.4864 1.63323 77.0354 3.37621Z" fill="#E2E6FF"/>
<path d="M82.9618 37.5547C82.9618 37.5547 82.6147 45.7139 83.4046 47.4788C84.1945 49.2437 72.9283 54.9188 66.0564 48.5963C66.0564 48.5963 67.716 39.7299 67.2552 36.5866C66.7944 33.4432 82.9618 37.5527 82.9618 37.5527V37.5547Z" fill="#E2E6FF"/>
<path d="M87.9945 19.6049C87.9945 19.6049 89.3848 18.1228 89.8954 19.6228C90.4061 21.1247 87.7391 27.8317 87.9127 28.1325C87.9127 28.1325 87.6593 28.7142 87.3242 28.3935C86.9911 28.0728 87.9945 19.6049 87.9945 19.6049Z" fill="#CDD1EC"/>
<path d="M61.987 19.3539C61.987 19.3539 60.6266 17.844 60.086 19.336C59.5474 20.8279 62.0827 27.5848 61.9032 27.8816C61.9032 27.8816 62.1466 28.4692 62.4857 28.1545C62.8248 27.8397 61.985 19.3539 61.985 19.3539H61.987Z" fill="#CDD1EC"/>
<path d="M87.9863 22.6467L86.1691 25.0729C86.1691 25.0729 86.221 19.7543 85.9298 18.9197C85.6385 18.085 85.1917 15.5373 84.9483 14.9357C84.705 14.3341 74.0471 11.3521 64.632 15.8062C64.632 15.8062 65.0469 19.6308 64.1432 19.9714C63.2416 20.3121 63.6825 26.2024 63.6825 26.2024L62.1884 24.5191C62.1884 24.5191 59.9004 9.25854 60.465 7.66894C61.0295 6.07933 62.8307 -3.48419 82.1437 2.19297C82.1437 2.19297 88.1639 0.920091 89.3727 5.07139C90.5815 9.22268 87.9843 22.6487 87.9843 22.6487L87.9863 22.6467Z" fill="#2D4168"/>
<path d="M83.4025 47.4807C83.4025 47.4807 86.2669 48.0903 74.2806 59.5621C74.2806 59.5621 65.779 50.1719 66.0543 48.5982C66.3295 47.0265 83.4025 47.4807 83.4025 47.4807Z" fill="#E2E6FF"/>
<path d="M74.2806 59.5601L77.552 65.1476L87.2564 48.6938L83.0535 45.7676L74.2806 59.5601Z" fill="#1C85FF"/>
<path d="M74.2806 59.5601L66.3435 46.9468L61.8434 49.8352L69.9121 65.1476L74.2806 59.5601Z" fill="#1C85FF"/>
<path d="M71.8212 94.5055C71.9189 96.366 71.9628 98.6468 71.9668 101.21H71.518C71.512 98.6588 71.4701 96.3819 71.3724 94.5274C70.6363 80.5337 74.0314 63.5062 74.0533 59.5163L74.4922 59.6019C74.4702 63.5919 71.0871 80.5695 71.8232 94.5035L71.8212 94.5055Z" fill="#CDD1EC"/>
<path d="M68.436 41.0626C68.436 41.0626 71.4521 44.2477 75.7128 43.3972C79.9736 42.5486 81.8646 40.6004 81.8646 40.6004C81.8646 40.6004 80.183 44.8115 75.258 45.1979C70.333 45.5844 68.436 41.0626 68.436 41.0626Z" fill="#C78D71"/>
<path d="M68.436 41.0626C68.436 41.0626 71.4521 44.2477 75.7128 43.3972C79.9736 42.5486 81.8646 40.6004 81.8646 40.6004C81.8646 40.6004 80.183 44.8115 75.258 45.1979C70.333 45.5844 68.436 41.0626 68.436 41.0626Z" fill="#C78D71"/>
<path d="M68.436 41.0626C68.436 41.0626 71.4521 44.2477 75.7128 43.3972C79.9736 42.5486 81.8646 40.6004 81.8646 40.6004C81.8646 40.6004 80.183 44.8115 75.258 45.1979C70.333 45.5844 68.436 41.0626 68.436 41.0626Z" fill="#CDD1EC"/>
<defs>
<linearGradient id="paint0_linear_0_15" x1="24.9535" y1="74.3136" x2="116.468" y2="74.3136" gradientUnits="userSpaceOnUse">
<stop stop-color="#D2D2F9"/>
<stop offset="1" stop-color="#1C85FF"/>
</linearGradient>
</defs>
</svg>
