<svg width="213" height="272" viewBox="0 0 213 272" fill="none" xmlns="http://www.w3.org/2000/svg">
<g clip-path="url(#clip0_0_316)">
<path d="M162.496 73.448C157.221 90.1163 144.887 119.43 138.995 117.569C136.778 116.875 133.642 105.448 135.505 100.154C139.874 87.7707 139.612 75.3874 142.905 64.9697C148.18 48.3014 153.206 46.6634 159.097 48.5242C164.989 50.3849 167.757 56.7797 162.483 73.448H162.496Z" fill="#228FD8"/>
<path d="M142.026 117.438C132.736 130.346 112.162 151.194 107.753 147.892C106.1 146.66 100.746 143.174 103.029 138.64C106.625 131.525 121.57 118.277 130.807 104.622C132.828 101.635 136.502 100.796 140.898 104.085C145.307 107.387 148.6 108.292 142.026 117.425V117.438Z" fill="#228FD8"/>
<path opacity="0.4" d="M185.038 54.172C186.429 54.4603 201.138 61.8509 207.673 69.2547C212.475 74.6798 213.066 87.5217 213 89.2121C212.816 94.6896 205.258 128.026 204.104 135.443C202.936 142.873 203.828 151.05 203.828 156.069C203.828 160.721 205.258 174.624 204.838 176.865C203.434 184.334 183.923 182.84 180.183 182.618C168.112 181.91 152.956 172.79 154.203 166.893C157.798 149.975 156.486 100.783 154.925 94.7682C153.376 88.7535 141.606 57.8542 150.896 49.638C153.271 47.5414 158.061 46.1785 160.934 46.3227C171.208 46.8206 183.319 53.8051 185.051 54.1589L185.038 54.172Z" fill="url(#paint0_linear_0_316)"/>
<path d="M177.428 48.9828C177.192 49.2842 166.301 48.7207 159.714 56.2162C153.127 63.7117 154.938 62.5455 154.938 62.5455L159.583 61.0385C159.583 61.0385 159.124 77.7723 161.302 80.498L182.034 70.7748L183.438 79.3055C183.438 79.3055 197.766 63.4758 195.864 59.4005C191.284 49.5725 179.908 45.9296 177.454 48.9959L177.428 48.9828Z" fill="#228FD8"/>
<path d="M171.864 51.3808C171.864 51.3808 163.847 54.054 162.679 64.8255C161.512 75.5839 163.401 83.0532 163.401 83.0532C163.44 82.2801 174.515 72.6617 183.595 65.9394C184.579 65.2056 194.564 57.8018 183.595 52.7174L171.851 51.3808H171.864Z" fill="#E2E6FF"/>
<path d="M183.411 66.0835C179.199 66.3063 174.567 66.018 171.445 64.8256C167.626 63.3841 165.619 60.593 164.582 58.2604C164.582 58.2604 164.582 58.2735 164.582 58.2866C164.477 58.4963 164.372 58.7191 164.267 58.9418C164.267 58.9418 164.267 58.955 164.267 58.9681C164.162 59.1908 164.07 59.4267 163.965 59.6626C163.965 59.6626 163.965 59.6888 163.952 59.7019C163.86 59.9378 163.769 60.1736 163.69 60.4226C163.69 60.4488 163.677 60.475 163.664 60.5012C163.585 60.7371 163.506 60.973 163.44 61.2088C163.427 61.2613 163.414 61.3137 163.401 61.3661C163.336 61.5889 163.27 61.8116 163.217 62.0475C163.191 62.1392 163.178 62.231 163.152 62.3096C163.099 62.5061 163.06 62.7158 163.007 62.9255C162.981 63.0696 162.955 63.2138 162.929 63.371C162.903 63.5283 162.863 63.6986 162.837 63.8559C162.784 64.1703 162.745 64.498 162.706 64.8256C161.538 75.5839 163.427 83.0532 163.427 83.0532C163.414 83.0794 163.427 83.0401 163.427 83.0532C163.939 82.0704 174.528 72.6355 183.438 66.0835H183.411Z" fill="url(#paint1_linear_0_316)"/>
<path d="M186.495 36.3505C186.495 41.1859 185.681 43.6364 186.35 49.4545C186.56 51.3153 187.4 53.674 187.4 56.2686C187.4 60.6716 182.611 62.5586 180.17 63.8165C177.94 64.9697 168.807 61.9033 169.345 58.7977C169.778 56.2817 169.253 52.6126 170.119 50.1228C171.09 47.371 173.675 45.8771 173.675 43.0074L186.482 36.3636L186.495 36.3505Z" fill="#CDD1EC"/>
<path d="M161.551 16.131C161.59 18.8567 161.551 21.1892 160.947 23.8362C160.514 25.697 161.236 30.362 160.541 35.276C160.108 38.3685 161.197 41.5135 162.023 44.5274C162.679 46.8862 163.008 49.6642 165.12 51.1056C170.382 54.7224 176.378 50.9615 181.771 49.1531C187.112 47.3579 186.351 39.6658 188.056 35.2891C191.14 27.3743 189.08 16.2228 180.341 12.6585C176.431 11.0598 169.975 10.2342 165.947 11.7019C164.543 12.226 161.433 13.353 161.538 16.131H161.551Z" fill="#E2E6FF"/>
<path d="M189.723 6.61753C184.723 2.07043 174.607 3.48567 166.34 7.25962C162.207 9.1466 161.197 14.8206 161.197 14.8206C160.278 16.3931 164.726 19.7609 165.868 20.3636C168.243 21.6085 170.723 21.9754 173.36 22.1327C174.961 22.2375 176.654 22.2113 178.215 22.0803C179.226 21.9885 180.813 21.5561 181.771 21.6609C184.238 21.923 184.251 25.199 184.684 27.1515C185.051 28.8026 185.603 30.1261 185.734 31.8821C185.786 32.6814 184.356 41.579 185.616 41.8149C187.348 42.1294 194.302 33.9787 194.788 29.4185C195.102 26.4046 198.553 14.6503 189.723 6.61753Z" fill="#2D4168"/>
<path d="M189.801 36.4291C188.647 39.2727 186.705 41.1728 185.445 40.6617C184.198 40.1638 182.86 37.4251 184.015 34.5815C185.156 31.7379 188.371 29.8509 189.604 30.362C190.864 30.873 190.943 33.5856 189.788 36.4291H189.801Z" fill="#CDD1EC"/>
<path d="M121.806 79.5283L74.6609 106.706L121.806 133.884L168.938 106.706L121.806 79.5283Z" fill="#767FF9"/>
<path d="M121.806 133.884V188.252L168.938 161.075V106.706L121.806 133.884Z" fill="#555CBB"/>
<path d="M121.806 133.884V188.252L74.6609 161.075V106.706L121.806 133.884Z" fill="#676EDA"/>
<path d="M208.093 94.5979C202.818 111.266 190.484 140.58 184.592 138.719C182.375 138.025 179.239 126.598 181.102 121.304C185.471 108.921 185.209 96.5373 188.502 86.1196C193.777 69.4513 198.816 67.8133 204.694 69.674C210.586 71.5348 213.354 77.9296 208.079 94.5979H208.093Z" fill="url(#paint2_linear_0_316)"/>
<path d="M187.623 138.588C178.333 151.495 157.759 172.344 153.35 169.042C151.697 167.81 146.343 164.324 148.626 159.79C152.222 152.675 167.167 139.427 176.391 125.785C178.412 122.798 186.206 118.382 190.602 121.671C195.011 124.973 194.184 129.455 187.61 138.588H187.623Z" fill="url(#paint3_linear_0_316)"/>
<path d="M154.373 160.183C151.657 159.659 147.642 161.743 146.671 162.228C144.755 163.171 142.066 163.197 141.305 165.556C140.924 166.762 140.399 166.945 139.481 167.744C138.51 168.583 139.323 169.487 140.412 169.474C141.383 169.474 142.394 169.474 142.984 168.622C143.758 167.495 145.241 165.53 146.619 167.063C147.983 168.583 146.488 169.894 145.805 171.283C144.716 173.484 143.535 174.401 143.745 176.917C143.745 178.215 146.159 178.673 147.458 176.983C147.472 177.284 146.934 177.73 147.59 178.097C149.295 178.713 150.883 177.73 151.29 176.341C151.159 178.909 154.636 177.441 154.82 175.423C155.777 176.957 158.297 174.283 158.795 173.353C159.701 171.649 160.554 168.321 160.646 166.447C160.711 164.888 159.123 161.913 157.523 161.232C156.827 160.93 155.148 160.197 154.373 160.197V160.183Z" fill="#CDD1EC"/>
<path d="M161.472 12.7109C161.472 12.7109 164.005 4.75676 168.807 2.79116C174.528 0.445538 183.136 -0.812447 185.891 0.563474C189.657 2.45045 193.226 4.65193 194.735 9.19902C196.848 15.5807 195.706 19.9574 195.706 19.9574C195.706 19.9574 195.785 20.4554 195.391 20.783C193.2 22.6699 185.288 28.4619 179.435 27.0729C174.869 25.9853 170.972 25.5921 170.972 25.5921L161.485 12.7109H161.472Z" fill="url(#paint4_linear_0_316)"/>
<path d="M161.866 12.7109C161.866 12.7109 162.955 11.2695 169.857 15.0041C174.266 17.389 182.204 25.8411 180.485 27.6364C177.625 30.6372 170.119 30.9386 166.104 29.2613C161.236 27.2432 159.097 18.6339 151.408 19.6167C145.871 20.3243 156.276 13.7985 161.459 12.7109H161.866Z" fill="url(#paint5_linear_0_316)"/>
<path d="M54.6376 154.942C53.6142 156.554 52.2102 157.641 50.9243 159.056C50.3076 159.738 49.9271 160.446 49.4284 161.206C48.7986 162.136 47.6308 163.014 47.2109 163.957L45.82 165.504C45.2427 168.819 49.7171 169.894 52.2102 168.439C53.5354 167.666 54.7557 166.775 55.7923 165.726C56.0548 165.661 56.3303 165.608 56.5927 165.556C58.1542 165.242 59.0989 164.848 60.3586 163.892C61.9988 162.66 63.3503 161.284 64.938 160.144C66.1976 159.685 67.3917 159.122 68.4151 158.165C68.9006 157.72 69.5173 157.038 69.0843 156.318C68.835 155.912 68.4414 155.885 68.0215 156.003C68.0609 155.977 68.0871 155.951 68.1265 155.938C68.5201 155.702 70.2653 155.151 69.8191 154.064C69.701 153.789 69.5436 153.618 69.3599 153.513C69.911 153.278 70.3702 152.95 70.3965 152.4C70.2128 151.613 69.268 151.391 68.2446 151.43C68.2446 151.273 68.179 151.102 68.0215 150.906C67.5098 150.224 66.6437 150.526 65.9089 150.539C64.9642 150.539 63.9014 150.316 62.996 150.722C62.1562 151.102 61.3427 151.666 60.516 152.111C59.8862 152.282 59.3614 152.295 58.6397 152.373C56.7502 152.596 55.6218 153.409 54.6376 154.981V154.942Z" fill="#CDD1EC"/>
<path d="M58.2984 151.05C58.0754 151.024 57.3668 151.417 57.0125 151.509C56.4745 151.64 56.1334 151.705 55.7397 152.111C55.3986 152.465 55.2936 152.845 55.0574 153.238C54.8081 153.658 54.362 153.959 53.9946 154.287C52.42 155.649 49.9794 159.568 53.3648 160.105C55.2936 160.406 55.9234 158.559 56.4221 157.025C56.7501 155.99 56.5664 154.496 57.3668 153.684C58.0097 153.029 59.0595 153.029 59.5974 152.19C59.8992 151.705 60.2666 149.766 59.2432 149.91C58.8889 149.962 58.5477 150.552 58.2722 150.788C57.7998 151.207 57.1437 151.286 56.6714 151.692L58.2984 151.05Z" fill="#CDD1EC"/>
<path d="M119.352 195.224C118.631 195.813 117.935 196.455 117.227 197.071C116.505 197.7 115.849 198.395 115.088 198.984C115.049 199.024 114.983 199.063 114.931 199.115C112.831 202.064 107.897 204.645 105.772 206.375L100.379 200.753C100.668 198.906 100.904 195.748 101.809 193.297C102.085 192.118 102.203 190.768 103.108 189.956C104.355 188.803 104.906 188.121 106.192 187.191C107.228 186.431 107.845 185.029 108.882 184.256C109.839 183.535 111.48 182.735 111.847 184.57C112.057 185.658 110.115 187.269 109.538 187.977C109.052 188.567 108.567 189.327 108.147 190.152C108.475 190.244 108.816 190.349 109.144 190.467C109.721 190.257 110.181 189.641 110.679 189.274C111.217 188.868 111.729 188.462 112.267 188.056C112.91 187.571 113.841 187.243 114.17 186.444C114.904 184.662 115.416 182.984 116.518 181.412C116.978 180.757 118.342 180.377 118.618 181.53C118.749 182.106 118.473 182.644 118.329 183.207C118.172 183.797 118.106 184.4 117.975 184.989C117.948 185.094 117.922 185.199 117.896 185.317C118.132 184.858 118.342 184.413 118.539 183.98C118.88 183.233 119.339 181.779 120.179 181.333C121.347 180.731 122.055 181.7 121.911 182.893C121.872 183.207 121.78 183.535 121.662 183.862C121.767 183.771 121.885 183.692 122.016 183.613C122.292 183.456 123 183.325 123.276 183.705C123.446 183.954 123.263 184.727 123.197 184.989C123.026 185.671 122.817 186.339 122.685 187.034C122.541 187.767 122.344 188.278 122.003 188.842C122.436 188.541 123.053 188.082 123.381 188.527C123.525 188.724 123.355 189.301 123.328 189.536C123.276 190.008 123.131 190.192 122.882 190.598C122.226 191.725 121.714 192.812 120.888 193.848C120.428 194.398 119.877 194.791 119.326 195.237L119.352 195.224Z" fill="#CDD1EC"/>
<path d="M3.04419 163.984C-0.196802 180.508 -2.16501 198.002 4.14639 200.609C6.2983 201.5 13.3707 204.501 14.2236 199.155C16.2312 186.667 22.3327 176.341 24.3665 166.002C27.6075 149.477 26.7677 147.21 20.6794 146.018C14.591 144.826 6.2983 147.459 3.04419 163.984Z" fill="url(#paint6_linear_0_316)"/>
<path opacity="0.4" d="M45.715 154.47C47.014 154.837 54.8738 158.559 60.6078 165.975C64.8067 171.414 64.5836 183.6 64.413 185.199C63.8882 190.375 61.9462 240.432 61.9462 245.189C61.9724 254.624 62.9566 263.705 62.4842 264.989C58.4034 275.944 40.5189 270.886 36.9761 270.454C25.5868 269.025 9.18498 260.036 10.156 254.388C11.9536 243.918 12.4522 198.395 11.35 192.603C10.2478 186.811 4.60561 159.79 12.2292 149.202C13.9874 146.752 17.6352 145.415 20.3644 145.73C30.0612 146.83 44.088 154.025 45.7019 154.47H45.715Z" fill="url(#paint7_linear_0_316)"/>
<path d="M49.3104 190.808C52.3152 199.836 56.6452 220.685 62.3793 231.22C67.2211 240.118 73.5063 239.685 76.1961 238.794C78.4005 238.061 82.1926 234.771 80.2375 229.491C75.6582 217.12 72.286 192.406 68.835 182.002C63.2978 165.346 58.2198 163.774 52.3283 165.726C46.4368 167.679 43.7731 174.152 49.3104 190.794V190.808Z" fill="url(#paint8_linear_0_316)"/>
<path d="M52.9712 111.043C52.8925 113.717 54.8738 117.097 55.438 119.692C55.8317 121.514 56.0154 122.038 55.32 123.676C54.2571 126.152 54.5458 128.419 55.1625 130.883C55.8973 133.831 54.9788 136.976 54.1259 139.912C53.4698 142.205 53.1024 144.917 51.0161 146.306C45.82 149.766 39.9679 147.735 34.7193 145.9C29.5232 144.092 30.3893 134.866 28.7753 130.568C25.8492 122.798 28.0143 111.921 36.5957 108.527C40.4271 107.02 46.7517 106.274 50.6881 107.781C52.0527 108.305 52.9712 111.043 52.9712 111.043Z" fill="#E2E6FF"/>
<path d="M45.7675 142.401C45.7675 142.401 42.0935 153.487 44.3504 156.593C45.2164 157.799 40.7551 160.446 36.5694 160.524C29.9299 160.655 22.2539 157.065 24.4977 151.561C25.7048 148.6 28.8934 145.69 26.8727 133.687C26.2297 129.926 45.7675 142.401 45.7675 142.401Z" fill="#CDD1EC"/>
<path d="M26.2691 103.574C34.3257 98.1229 45.1902 98.8698 50.3863 104.911C53.3518 108.357 53.483 112.786 53.483 112.786C54.4015 114.372 49.9795 114.149 48.9167 120.531C43.4451 153.409 28.0537 141.589 27.555 140.396C23.6055 131.053 20.9681 133.189 19.1442 127.568C16.4018 119.089 14.9322 111.227 26.2691 103.561V103.574Z" fill="#2D4168"/>
<path d="M43.7468 132.98C44.8621 135.849 45.505 138.536 46.7647 138.038C48.0243 137.553 49.4021 134.827 48.2736 131.957C47.1583 129.088 46.5285 126.336 45.177 126.31C42.6183 126.257 42.6183 130.11 43.7336 132.98H43.7468Z" fill="#CDD1EC"/>
<path d="M79.6864 237.091C88.3465 230.473 110.325 209.625 106.861 205.327C104.027 201.828 101.245 198.788 98.555 200.007C93.4901 202.3 76.5897 219.112 67.326 225.599C65.3053 227.014 60.3585 228.298 63.8226 232.596C67.2866 236.894 73.5718 241.769 79.6995 237.091H79.6864Z" fill="url(#paint9_linear_0_316)"/>
<path d="M21.9784 149.006C20.9681 150.316 20.6138 151.784 20.955 153.396C21.4011 155.558 22.7788 157.51 24.3272 159.161C25.7574 160.681 33.1972 163.839 39.1544 163.328C44.5079 162.87 48.0376 159.476 48.9561 159.214C50.3076 158.821 51.8034 158.663 53.1287 158.729C51.4754 157.143 47.5521 153.33 45.1771 152.321C44.3636 151.98 43.4713 152.885 43.2614 153.068C42.0411 154.156 41.3063 154.903 39.653 155.518C36.5957 156.645 33.3678 155.702 30.6517 153.828C25.1013 149.962 26.9646 147.918 27.0302 145.415C25.1669 144.406 23.1856 147.407 21.9653 149.006H21.9784Z" fill="url(#paint10_linear_0_316)"/>
</g>
<defs>
<linearGradient id="paint0_linear_0_316" x1="180.182" y1="46.3123" x2="180.182" y2="182.887" gradientUnits="userSpaceOnUse">
<stop stop-color="#1C85FF"/>
<stop offset="1" stop-color="#001227"/>
</linearGradient>
<linearGradient id="paint1_linear_0_316" x1="162.329" y1="70.6605" x2="183.434" y2="70.6605" gradientUnits="userSpaceOnUse">
<stop stop-color="#D2D2F9"/>
<stop offset="1" stop-color="#1C85FF"/>
</linearGradient>
<linearGradient id="paint2_linear_0_316" x1="180.54" y1="103.934" x2="210.875" y2="103.934" gradientUnits="userSpaceOnUse">
<stop stop-color="#D2D2F9"/>
<stop offset="1" stop-color="#1C85FF"/>
</linearGradient>
<linearGradient id="paint3_linear_0_316" x1="148.077" y1="144.947" x2="193.341" y2="144.947" gradientUnits="userSpaceOnUse">
<stop stop-color="#D2D2F9"/>
<stop offset="1" stop-color="#1C85FF"/>
</linearGradient>
<linearGradient id="paint4_linear_0_316" x1="161.478" y1="13.6383" x2="196.008" y2="13.6383" gradientUnits="userSpaceOnUse">
<stop stop-color="#D2D2F9"/>
<stop offset="1" stop-color="#1C85FF"/>
</linearGradient>
<linearGradient id="paint5_linear_0_316" x1="149.835" y1="21.3571" x2="180.719" y2="21.3571" gradientUnits="userSpaceOnUse">
<stop stop-color="#D2D2F9"/>
<stop offset="1" stop-color="#1C85FF"/>
</linearGradient>
<linearGradient id="paint6_linear_0_316" x1="0.0106456" y1="174.01" x2="26.2247" y2="174.01" gradientUnits="userSpaceOnUse">
<stop stop-color="#D2D2F9"/>
<stop offset="1" stop-color="#1C85FF"/>
</linearGradient>
<linearGradient id="paint7_linear_0_316" x1="36.3963" y1="145.684" x2="36.3963" y2="271.993" gradientUnits="userSpaceOnUse">
<stop stop-color="#1C85FF"/>
<stop offset="1" stop-color="#001227"/>
</linearGradient>
<linearGradient id="paint8_linear_0_316" x1="46.2839" y1="202.152" x2="80.7738" y2="202.152" gradientUnits="userSpaceOnUse">
<stop stop-color="#D2D2F9"/>
<stop offset="1" stop-color="#1C85FF"/>
</linearGradient>
<linearGradient id="paint9_linear_0_316" x1="62.6324" y1="219.364" x2="107.22" y2="219.364" gradientUnits="userSpaceOnUse">
<stop stop-color="#D2D2F9"/>
<stop offset="1" stop-color="#1C85FF"/>
</linearGradient>
<linearGradient id="paint10_linear_0_316" x1="20.8348" y1="154.297" x2="53.1228" y2="154.297" gradientUnits="userSpaceOnUse">
<stop stop-color="#D2D2F9"/>
<stop offset="1" stop-color="#1C85FF"/>
</linearGradient>
<clipPath id="clip0_0_316">
<rect width="213" height="272" fill="white"/>
</clipPath>
</defs>
</svg>
