<svg width="275" height="146" viewBox="0 0 275 146" fill="none" xmlns="http://www.w3.org/2000/svg">
<g clip-path="url(#clip0_0_354)">
<path d="M50.0563 94.7249C50.0254 94.7249 49.9944 94.7187 49.9634 94.7002L12.7619 73.2872C12.6752 73.2378 12.6442 73.1266 12.6938 73.034C12.7433 72.9475 12.8548 72.9166 12.9478 72.966L50.0563 94.3234L138.113 43.6413C138.169 43.6104 138.243 43.6104 138.299 43.6413L196.973 77.4129L235.68 55.1352C235.767 55.0858 235.878 55.1167 235.934 55.2032C235.983 55.2896 235.952 55.4008 235.866 55.4564L197.066 77.7897C197.01 77.8205 196.936 77.8205 196.88 77.7897L138.206 44.018L50.1493 94.7002C50.1493 94.7002 50.0873 94.7249 50.0563 94.7249Z" fill="#1C85FF"/>
<path d="M274.814 120.665C274.783 120.665 274.752 120.659 274.721 120.64L224.126 91.5194L199.593 105.57C199.538 105.601 199.47 105.601 199.408 105.57L76.3855 34.7537C76.3297 34.7228 76.2925 34.661 76.2925 34.5931C76.2925 34.5251 76.3297 34.4696 76.3855 34.4325L132.463 2.22962C132.55 2.18021 132.662 2.21109 132.717 2.29756C132.767 2.38403 132.736 2.4952 132.649 2.55078L76.8501 34.5993L199.513 105.206L224.045 91.155C224.101 91.1242 224.169 91.1242 224.231 91.155L274.92 120.332C275.006 120.381 275.037 120.492 274.988 120.585C274.957 120.64 274.895 120.677 274.827 120.677L274.814 120.665Z" fill="#1C85FF"/>
<path d="M160.837 145.043C160.806 145.043 160.775 145.037 160.744 145.018L123.189 123.401C123.134 123.37 123.096 123.309 123.096 123.241C123.096 123.173 123.134 123.117 123.189 123.08L169.9 96.1948C169.987 96.1454 170.099 96.1763 170.154 96.2628C170.204 96.3493 170.173 96.4604 170.086 96.516L123.654 123.241L160.93 144.697C161.017 144.746 161.048 144.857 160.998 144.95C160.967 145.006 160.905 145.043 160.837 145.043Z" fill="#1C85FF"/>
<path d="M174.02 131.819C173.989 131.819 173.958 131.813 173.927 131.795L12.7681 39.0276C12.6813 38.9782 12.6504 38.867 12.6999 38.7744C12.7495 38.6879 12.861 38.657 12.9539 38.7065L174.119 131.473C174.206 131.523 174.237 131.634 174.187 131.727C174.156 131.782 174.094 131.819 174.026 131.819H174.02Z" fill="#1C85FF"/>
<path d="M93.1432 106.077C93.1122 106.077 93.0812 106.071 93.0503 106.052L39.7973 75.3995C39.7415 75.3686 39.7043 75.3068 39.7043 75.2389C39.7043 75.1709 39.7415 75.1154 39.7973 75.0783L86.5082 48.1932C86.595 48.1437 86.7065 48.1746 86.7622 48.2611C86.8118 48.3476 86.7808 48.4587 86.6941 48.5143L40.2619 75.2451L93.1494 105.688L220.006 32.6723C220.093 32.6229 220.204 32.6537 220.26 32.7402C220.31 32.8267 220.279 32.9379 220.192 32.9934L93.2485 106.064C93.2485 106.064 93.1866 106.089 93.1556 106.089L93.1432 106.077Z" fill="#1C85FF"/>
<path opacity="0.3" d="M58.1347 39.67L42.0337 30.4056L58.1347 21.1413L74.2296 30.4056L58.1347 39.67Z" fill="#1C85FF"/>
<path opacity="0.5" d="M58.1347 28.9974L42.0337 19.7331L58.1347 10.4687L74.2296 19.7331L58.1347 28.9974Z" fill="#1C85FF"/>
<path opacity="0.7" d="M58.1347 20.4433L42.0337 11.179L58.1347 1.91463L74.2296 11.179L58.1347 20.4433Z" fill="#1C85FF"/>
<path d="M58.1347 20.9004C58.0542 20.9004 57.9799 20.8819 57.9055 20.8386L41.8045 11.5743C41.662 11.494 41.5753 11.3396 41.5753 11.179C41.5753 11.0184 41.662 10.864 41.8045 10.7837L57.8993 1.51936C58.0418 1.43906 58.2153 1.43906 58.3577 1.51936L74.4588 10.7837C74.6013 10.864 74.688 11.0184 74.688 11.179C74.688 11.3396 74.6013 11.494 74.4588 11.5743L58.3639 20.8386C58.2958 20.8819 58.2153 20.9004 58.1347 20.9004ZM42.9506 11.179L58.1347 19.9184L73.3189 11.179L58.1347 2.43961L42.9506 11.179Z" fill="#1C85FF"/>
<path opacity="0.7" d="M182.055 145.543L165.96 136.279L182.055 127.008L198.156 136.279L182.055 145.543Z" fill="#1C85FF"/>
<path d="M182.055 146C181.975 146 181.9 145.981 181.826 145.938L165.725 136.674C165.582 136.594 165.496 136.439 165.496 136.279C165.496 136.118 165.582 135.964 165.725 135.883L181.82 126.619C181.962 126.539 182.136 126.539 182.278 126.619L198.379 135.883C198.522 135.964 198.608 136.118 198.608 136.279C198.608 136.439 198.522 136.594 198.379 136.674L182.284 145.938C182.216 145.981 182.136 146 182.055 146ZM166.871 136.279L182.055 145.018L197.239 136.279L182.055 127.539L166.871 136.279Z" fill="#1C85FF"/>
<path opacity="0.7" d="M221.778 134.71L213.328 129.843L221.778 124.982L230.222 129.843L221.778 134.71Z" fill="#1C85FF"/>
<path opacity="0.5" d="M221.778 129.843L213.328 124.982L221.778 120.122L230.222 124.982L221.778 129.843Z" fill="#1C85FF"/>
<path opacity="0.3" d="M221.778 124.982L213.328 120.122L221.778 115.261L230.222 120.122L221.778 124.982Z" fill="#1C85FF"/>
<path d="M221.778 135.161C221.697 135.161 221.623 135.142 221.549 135.099L213.105 130.238C212.962 130.158 212.876 130.004 212.876 129.843C212.876 129.682 212.962 129.528 213.105 129.448L221.549 124.587C221.691 124.507 221.865 124.507 222.007 124.587L230.451 129.448C230.594 129.528 230.68 129.682 230.68 129.843C230.68 130.004 230.594 130.158 230.451 130.238L222.007 135.099C221.939 135.142 221.859 135.161 221.778 135.161ZM214.245 129.843L221.778 134.179L229.311 129.843L221.778 125.507L214.245 129.843Z" fill="#1C85FF"/>
<path opacity="0.7" d="M8.90234 75.3315L0.458435 70.4708L8.90234 65.6101L17.3462 70.4708L8.90234 75.3315Z" fill="#1C85FF"/>
<path d="M8.90234 75.7886C8.82181 75.7886 8.74747 75.77 8.67313 75.7268L0.229218 70.8661C0.0867312 70.7858 0 70.6314 0 70.4708C0 70.3102 0.0867312 70.1558 0.229218 70.0755L8.67313 65.2149C8.81561 65.1346 8.98907 65.1346 9.13156 65.2149L17.5755 70.0755C17.718 70.1558 17.8047 70.3102 17.8047 70.4708C17.8047 70.6314 17.718 70.7858 17.5755 70.8661L9.13156 75.7268C9.06342 75.77 8.98288 75.7886 8.90234 75.7886ZM1.36911 70.4708L8.90234 74.8065L16.4356 70.4708L8.90234 66.1351L1.36911 70.4708Z" fill="#1C85FF"/>
<path style="mix-blend-mode:lighten" opacity="0.2" d="M129.855 3.66868C132.47 5.17568 134.941 7.29413 137.141 9.7955C140.195 0.0185251 149.512 -3.01401 160.533 3.32899C169.653 8.57878 177.595 18.8993 181.801 29.8312C183.195 29.8744 184.744 30.3315 186.392 31.2764C192.339 34.6981 197.165 43.0298 197.165 49.8793C197.165 50.0275 197.153 50.1634 197.146 50.3054C198.844 50.4228 200.721 51.0219 202.691 52.1583C210.298 56.5372 216.469 67.1912 216.469 75.9492C216.469 84.707 210.298 88.2584 202.691 83.8794L129.868 41.9613C120.68 36.6745 113.234 23.8156 113.234 13.2418C113.234 2.66813 120.68 -1.61818 129.868 3.66868H129.855Z" fill="url(#paint0_linear_0_354)"/>
<path style="mix-blend-mode:lighten" opacity="0.4" d="M123.561 7.58442C126.175 9.09142 128.647 11.2099 130.846 13.7112C133.901 3.93427 143.212 0.901735 154.233 7.24473C163.352 12.4945 171.294 22.815 175.501 33.7469C176.895 33.7902 178.443 34.2472 180.091 35.1922C186.039 38.6138 190.864 46.9456 190.864 53.795C190.864 53.9432 190.852 54.0791 190.846 54.2212C192.543 54.3385 194.42 54.9376 196.391 56.074C203.998 60.453 210.168 71.107 210.168 79.8649C210.168 88.6228 203.998 92.1741 196.391 87.7952L123.567 45.8771C114.38 40.5902 106.933 27.7313 106.933 17.1576C106.933 6.58387 114.38 2.29756 123.567 7.58442H123.561Z" fill="url(#paint1_linear_0_354)"/>
<path style="mix-blend-mode:lighten" opacity="0.6" d="M116.127 12.4575C118.741 13.9645 121.213 16.0829 123.412 18.5843C126.467 8.80731 135.778 5.77478 146.799 12.1178C155.918 17.3676 163.86 27.6881 168.067 38.62C169.46 38.6632 171.009 39.1203 172.657 40.0652C178.604 43.4869 183.43 51.8186 183.43 58.668C183.43 58.8163 183.418 58.9522 183.412 59.0942C185.109 59.2116 186.986 59.8107 188.956 60.9471C196.564 65.326 202.734 75.98 202.734 84.7379C202.734 93.4958 196.564 97.0472 188.956 92.6682L116.133 50.7501C106.946 45.4633 99.4993 32.6043 99.4993 22.0306C99.4993 11.4569 106.946 7.17061 116.133 12.4575H116.127Z" fill="url(#paint2_linear_0_354)"/>
<path d="M169.095 122.913C168.531 122.913 168.005 122.808 167.627 122.592L68.2141 65.3693C67.9725 65.2334 67.861 65.011 67.861 64.906C67.861 64.6775 68.2203 64.4243 68.5239 64.2514L89.1845 52.3621C89.7421 52.041 90.4855 51.8557 91.2351 51.8557C91.8174 51.8557 92.3378 51.973 92.7033 52.183L192.116 109.406C192.221 109.468 192.469 109.628 192.469 109.801C192.469 109.931 192.333 110.221 191.806 110.524L171.146 122.413C170.576 122.74 169.807 122.913 169.089 122.913H169.095ZM68.2451 64.906C68.2699 64.9431 68.3133 64.9987 68.3938 65.0481L167.813 122.271C168.556 122.697 170.061 122.617 170.966 122.092L191.627 110.203C191.918 110.036 192.035 109.894 192.079 109.82C192.054 109.795 192.004 109.758 191.93 109.715L92.5175 52.4918C92.2077 52.3127 91.7555 52.2139 91.2351 52.2139C90.5598 52.2139 89.8598 52.3806 89.3642 52.6709L68.7036 64.5602C68.4062 64.7331 68.2885 64.8505 68.2451 64.906Z" fill="#1C85FF"/>
<path d="M107.745 17.732C110.359 19.239 112.831 21.3574 115.03 23.8588C118.085 14.0818 127.396 11.0493 138.417 17.3923C147.536 22.6421 155.478 32.9626 159.685 43.8945C161.079 43.9377 162.627 44.3948 164.275 45.3397C170.222 48.7614 175.048 57.0931 175.048 63.9426C175.048 64.0908 175.036 64.2267 175.03 64.3687C176.727 64.4861 178.604 65.0852 180.574 66.2216C188.182 70.6005 194.352 81.2545 194.352 90.0124C194.352 98.7703 188.182 102.322 180.574 97.9427L107.751 56.0246C98.5639 50.7378 91.1174 37.8788 91.1174 27.3051C91.1174 16.7314 98.5639 12.4451 107.751 17.732H107.745Z" fill="url(#paint3_linear_0_354)"/>
<path d="M107.745 17.732C109.263 18.6028 110.725 19.6898 112.119 20.9313L120.259 16.2435C124.732 13.1121 131.212 13.248 138.417 17.3923C147.536 22.6421 155.478 32.9626 159.685 43.8945C161.079 43.9377 162.627 44.3948 164.275 45.3397C170.222 48.7614 175.048 57.0931 175.048 63.9426C175.048 64.0908 175.036 64.2267 175.03 64.3687C176.727 64.4861 178.604 65.0852 180.574 66.2216C188.182 70.6005 194.352 81.2545 194.352 90.0124C194.352 94.3543 192.835 97.4116 190.381 98.863H190.387L190.326 98.9C190.326 98.9 190.319 98.9 190.313 98.9062L170.365 110.45L166.01 89.5554L107.751 56.0246C98.5639 50.7378 91.1174 37.8788 91.1174 27.3051C91.1174 16.7314 98.5639 12.4451 107.751 17.732H107.745Z" fill="url(#paint4_radial_0_354)"/>
<path d="M75.6854 28.3242L95.8938 16.6202C98.9108 14.8353 103.105 15.0577 107.745 17.732C109.263 18.6028 110.725 19.6898 112.119 20.9313L120.259 16.2435C124.732 13.1121 131.212 13.248 138.417 17.3923C147.536 22.6421 155.478 32.9626 159.685 43.8945C161.079 43.9377 162.627 44.3948 164.275 45.3397C170.222 48.7614 175.048 57.0931 175.048 63.9426C175.048 64.0908 175.036 64.2267 175.03 64.3687C176.727 64.4861 178.604 65.0852 180.574 66.2216C188.182 70.6005 194.352 81.2545 194.352 90.0124C194.352 94.3543 192.835 97.4116 190.381 98.863H190.388L190.326 98.9C190.326 98.9 190.319 98.9 190.313 98.9062L170.365 110.45L166.01 89.5554L107.751 56.0246C100.305 51.7383 94.0043 42.4801 91.8856 33.4937L75.6916 28.3366L75.6854 28.3242Z" fill="url(#paint5_linear_0_354)"/>
<path d="M87.7349 29.3062C90.3492 30.8132 92.821 32.9317 95.0203 35.4331C98.0745 25.6561 107.386 22.6236 118.407 28.9665C127.526 34.2163 135.468 44.5368 139.674 55.4688C141.068 55.512 142.617 55.969 144.265 56.914C150.212 60.3356 155.038 68.6674 155.038 75.5168C155.038 75.6651 155.026 75.8009 155.02 75.943C156.717 76.0603 158.594 76.6594 160.564 77.7959C168.172 82.1748 174.342 92.8288 174.342 101.587C174.342 110.345 168.172 113.896 160.564 109.517L87.7411 67.5989C78.5537 62.312 71.1072 49.4531 71.1072 38.8794C71.1072 28.3057 78.5537 24.0194 87.7411 29.3062H87.7349Z" fill="url(#paint6_linear_0_354)"/>
<path d="M94.3512 35.8345C92.152 33.3331 89.6801 31.2147 87.0658 29.7077C82.5744 27.1199 78.5042 26.8296 75.512 28.4416C78.5476 26.3972 82.9027 26.5269 87.7349 29.3124C90.1943 30.7268 92.5299 32.697 94.6362 35.0131C94.5371 35.2848 94.4442 35.5566 94.3574 35.8407L94.3512 35.8345Z" fill="white"/>
<path d="M173.673 101.988C173.673 93.2303 167.503 82.5763 159.895 78.1973C157.919 77.0609 156.048 76.4618 154.351 76.3444C154.351 76.2024 154.369 76.0665 154.369 75.9183C154.369 69.0688 149.543 60.7433 143.596 57.3155C141.954 56.3705 140.399 55.9135 139.005 55.8702C134.799 44.9321 126.857 34.6116 117.738 29.368C111.072 25.5326 105.032 25.1311 100.627 27.5707C105.081 24.6988 111.4 24.9335 118.407 28.9665C127.526 34.2163 135.468 44.5368 139.674 55.4688C141.068 55.512 142.617 55.969 144.265 56.914C150.212 60.3356 155.038 68.6674 155.038 75.5168C155.038 75.6651 155.026 75.8009 155.02 75.943C156.717 76.0603 158.594 76.6594 160.564 77.7959C168.172 82.1748 174.342 92.8288 174.342 101.587C174.342 106.083 172.713 109.208 170.099 110.585C172.323 109.048 173.673 106.089 173.673 101.982V101.988Z" fill="white"/>
</g>
<defs>
<linearGradient id="paint0_linear_0_354" x1="274.125" y1="96.857" x2="171.042" y2="37.1602" gradientUnits="userSpaceOnUse">
<stop stop-color="#42E8E0"/>
<stop offset="0.02" stop-color="#40DDD9"/>
<stop offset="0.11" stop-color="#36ADBC"/>
<stop offset="0.22" stop-color="#2E82A2"/>
<stop offset="0.32" stop-color="#275E8C"/>
<stop offset="0.43" stop-color="#21407A"/>
<stop offset="0.55" stop-color="#1D296C"/>
<stop offset="0.67" stop-color="#1A1962"/>
<stop offset="0.81" stop-color="#18105C"/>
<stop offset="1" stop-color="#180D5B"/>
</linearGradient>
<linearGradient id="paint1_linear_0_354" x1="264.552" y1="98.8852" x2="161.469" y2="39.1884" gradientUnits="userSpaceOnUse">
<stop stop-color="#42E8E0"/>
<stop offset="0.02" stop-color="#40DDD9"/>
<stop offset="0.11" stop-color="#36ADBC"/>
<stop offset="0.22" stop-color="#2E82A2"/>
<stop offset="0.32" stop-color="#275E8C"/>
<stop offset="0.43" stop-color="#21407A"/>
<stop offset="0.55" stop-color="#1D296C"/>
<stop offset="0.67" stop-color="#1A1962"/>
<stop offset="0.81" stop-color="#18105C"/>
<stop offset="1" stop-color="#180D5B"/>
</linearGradient>
<linearGradient id="paint2_linear_0_354" x1="253.142" y1="101.468" x2="150.064" y2="41.7739" gradientUnits="userSpaceOnUse">
<stop stop-color="#42E8E0"/>
<stop offset="0.02" stop-color="#40DDD9"/>
<stop offset="0.11" stop-color="#36ADBC"/>
<stop offset="0.22" stop-color="#2E82A2"/>
<stop offset="0.32" stop-color="#275E8C"/>
<stop offset="0.43" stop-color="#21407A"/>
<stop offset="0.55" stop-color="#1D296C"/>
<stop offset="0.67" stop-color="#1A1962"/>
<stop offset="0.81" stop-color="#18105C"/>
<stop offset="1" stop-color="#180D5B"/>
</linearGradient>
<linearGradient id="paint3_linear_0_354" x1="240.381" y1="104.221" x2="137.298" y2="44.5241" gradientUnits="userSpaceOnUse">
<stop stop-color="#5761D7"/>
<stop offset="0.18" stop-color="#5B65D8"/>
<stop offset="0.39" stop-color="#6A72DE"/>
<stop offset="0.61" stop-color="#8188E8"/>
<stop offset="0.85" stop-color="#A2A6F5"/>
<stop offset="1" stop-color="#BCBEFF"/>
</linearGradient>
<radialGradient id="paint4_radial_0_354" cx="0" cy="0" r="1" gradientUnits="userSpaceOnUse" gradientTransform="translate(170.086 46.8282) rotate(180) scale(49.2448 49.0949)">
<stop stop-color="#2B237C"/>
<stop offset="1" stop-color="#180D5B"/>
</radialGradient>
<linearGradient id="paint5_linear_0_354" x1="75.7071" y1="62.2551" x2="194.331" y2="62.2551" gradientUnits="userSpaceOnUse">
<stop stop-color="#D2D2F9"/>
<stop offset="1" stop-color="#1C85FF"/>
</linearGradient>
<linearGradient id="paint6_linear_0_354" x1="210.336" y1="110.027" x2="107.253" y2="50.3301" gradientUnits="userSpaceOnUse">
<stop stop-color="#C0BFF6"/>
<stop offset="0.29" stop-color="#C4C3F6"/>
<stop offset="0.64" stop-color="#D2D2F9"/>
<stop offset="1" stop-color="#E9E9FD"/>
</linearGradient>
<clipPath id="clip0_0_354">
<rect width="275" height="146" fill="white"/>
</clipPath>
</defs>
</svg>
