<svg width="219" height="142" viewBox="0 0 219 142" fill="none" xmlns="http://www.w3.org/2000/svg">
<path d="M212.982 1H6.01847C3.24685 1 1 3.24566 1 6.01582V135.984C1 138.754 3.24685 141 6.01847 141H212.982C215.753 141 218 138.754 218 135.984V6.01582C218 3.24566 215.753 1 212.982 1Z" stroke="#595F7B" stroke-linecap="round" stroke-linejoin="round"/>
<path d="M218 6.05099V25H1V6.05099C1 3.26102 3.24646 1 6.01847 1H212.982C215.754 1 218 3.26102 218 6.05099Z" fill="url(#paint0_linear_59_103)"/>
<path d="M203 12C203 13.6625 204.347 15 206 15C207.653 15 209 13.6533 209 12C209 10.3467 207.653 9 206 9C204.347 9 203 10.3467 203 12Z" fill="#8786CE"/>
<path d="M189 12C189 13.6625 190.571 15 192.5 15C194.429 15 196 13.6533 196 12C196 10.3467 194.429 9 192.5 9C190.571 9 189 10.3467 189 12Z" fill="#8786CE"/>
<path d="M175 12C175 13.6625 176.347 15 178 15C179.653 15 181 13.6533 181 12C181 10.3467 179.653 9 178 9C176.347 9 175 10.3467 175 12Z" fill="#8786CE"/>
<path d="M66.9027 51.0818C61.2306 51.0818 56.9276 55.5495 56.9276 61.4276C56.9276 67.3056 61.2306 71.8762 66.9027 71.8762C69.9498 71.8762 73.4705 70.1983 76.044 67.5732L81.6647 73.616C77.722 77.7646 71.844 80.4411 66.388 80.4411C55.3114 80.4411 47.0657 72.3498 47.0657 61.5408C47.0657 50.7318 55.5173 42.9493 66.7586 42.9493C72.2249 42.9493 77.9485 45.3685 81.6235 49.2494L76.0543 55.9201C73.6352 52.976 70.1248 51.0921 66.913 51.0921L66.9027 51.0818Z" fill="#1C85FF"/>
<path d="M96.2621 43.2067L106.031 64.6806L115.801 43.2067H126.301V80.019H117.798L117.746 56.7025L109.181 76.344H102.881L94.3268 56.7025V80.019H85.7722V43.2067H96.2724H96.2621Z" fill="#1C85FF"/>
<path d="M146.93 50.6185C144.624 50.6185 143.101 51.4627 143.101 53.1406C143.101 59.2348 162.475 55.7657 162.475 69.0041C162.475 76.5086 155.855 80.3484 147.661 80.3484C141.516 80.3484 135.113 78.0939 130.696 74.4704L134.423 66.9658C138.201 70.2188 143.924 72.535 147.764 72.535C150.595 72.535 152.386 71.485 152.386 69.5394C152.386 63.2908 133.012 67.0688 133.012 54.0465C133.012 47.1699 138.839 42.8052 147.713 42.8052C153.117 42.8052 158.583 44.4831 162.413 46.9538L158.789 54.5715C154.908 52.3686 149.967 50.6288 146.92 50.6288L146.93 50.6185Z" fill="#1C85FF"/>
<path d="M198.261 101H17.7391C16.2254 101 15 99.8816 15 98.5C15 97.1184 16.2254 96 17.7391 96H198.261C199.775 96 201 97.1184 201 98.5C201 99.8816 199.775 101 198.261 101Z" fill="url(#paint1_linear_59_103)"/>
<path d="M198.261 115H17.7391C16.2254 115 15 113.882 15 112.5C15 111.118 16.2254 110 17.7391 110H198.261C199.775 110 201 111.118 201 112.5C201 113.882 199.775 115 198.261 115Z" fill="url(#paint2_linear_59_103)"/>
<path d="M57.2208 129H17.7792C16.2433 129 15 127.658 15 126C15 124.342 16.2433 123 17.7792 123H57.2208C58.7567 123 60 124.342 60 126C60 127.658 58.7567 129 57.2208 129Z" fill="url(#paint3_linear_59_103)"/>
<path d="M127.283 129H88.7174C87.2157 129 86 127.658 86 126C86 124.342 87.2157 123 88.7174 123H127.283C128.784 123 130 124.342 130 126C130 127.658 128.784 129 127.283 129Z" fill="url(#paint4_linear_59_103)"/>
<path d="M198.221 129H158.779C157.243 129 156 127.658 156 126C156 124.342 157.243 123 158.779 123H198.221C199.757 123 201 124.342 201 126C201 127.658 199.757 129 198.221 129Z" fill="url(#paint5_linear_59_103)"/>
<defs>
<linearGradient id="paint0_linear_59_103" x1="-142.893" y1="13.004" x2="-138.675" y2="13.004" gradientUnits="userSpaceOnUse">
<stop stop-color="#E9E9FD"/>
<stop offset="0.36" stop-color="#D2D2F9"/>
<stop offset="0.71" stop-color="#C4C3F6"/>
<stop offset="1" stop-color="#C0BFF6"/>
</linearGradient>
<linearGradient id="paint1_linear_59_103" x1="15.0339" y1="98.4998" x2="200.966" y2="98.4998" gradientUnits="userSpaceOnUse">
<stop stop-color="#D2D2F9"/>
<stop offset="1" stop-color="#1C85FF"/>
</linearGradient>
<linearGradient id="paint2_linear_59_103" x1="15.0339" y1="112.5" x2="200.966" y2="112.5" gradientUnits="userSpaceOnUse">
<stop stop-color="#D2D2F9"/>
<stop offset="1" stop-color="#1C85FF"/>
</linearGradient>
<linearGradient id="paint3_linear_59_103" x1="15.0082" y1="126" x2="59.9918" y2="126" gradientUnits="userSpaceOnUse">
<stop stop-color="#D2D2F9"/>
<stop offset="1" stop-color="#1C85FF"/>
</linearGradient>
<linearGradient id="paint4_linear_59_103" x1="86.008" y1="126" x2="129.992" y2="126" gradientUnits="userSpaceOnUse">
<stop stop-color="#D2D2F9"/>
<stop offset="1" stop-color="#1C85FF"/>
</linearGradient>
<linearGradient id="paint5_linear_59_103" x1="156.008" y1="126" x2="200.992" y2="126" gradientUnits="userSpaceOnUse">
<stop stop-color="#D2D2F9"/>
<stop offset="1" stop-color="#1C85FF"/>
</linearGradient>
</defs>
</svg>
