<svg width="247" height="134" viewBox="0 0 247 134" fill="none" xmlns="http://www.w3.org/2000/svg">
<g clip-path="url(#clip0_0_146)">
<path d="M246.584 6.00898V127.883C246.584 130.97 244.091 133.474 241.015 133.474H5.99302C2.91757 133.474 0.415649 130.97 0.415649 127.883V6.00898C0.415649 2.92103 2.91757 0.417297 5.99302 0.417297H241.015C244.091 0.417297 246.584 2.92103 246.584 6.00898Z" stroke="#595F7B" stroke-linecap="round" stroke-linejoin="round"/>
<path d="M225.996 61.7922H195.416C192.008 61.7922 189.24 64.5714 189.24 67.9932C189.24 71.4149 192.008 74.1941 195.416 74.1941H225.996C229.403 74.1941 232.171 71.4149 232.171 67.9932C232.171 64.5714 229.403 61.7922 225.996 61.7922Z" fill="#1C85FF"/>
<path d="M246.584 6.00898V17.426H0.415649V6.00898C0.415649 2.92103 2.91757 0.417297 5.99302 0.417297H241.015C244.091 0.417297 246.584 2.92103 246.584 6.00898Z" fill="url(#paint0_linear_0_146)"/>
<path d="M10.8305 12.4853C12.9514 12.4853 14.6707 10.759 14.6707 8.62956C14.6707 6.50008 12.9514 4.7738 10.8305 4.7738C8.70965 4.7738 6.99036 6.50008 6.99036 8.62956C6.99036 10.759 8.70965 12.4853 10.8305 12.4853Z" fill="#8786CE"/>
<path d="M21.2206 12.4853C23.3415 12.4853 25.0608 10.759 25.0608 8.62956C25.0608 6.50008 23.3415 4.7738 21.2206 4.7738C19.0998 4.7738 17.3805 6.50008 17.3805 8.62956C17.3805 10.759 19.0998 12.4853 21.2206 12.4853Z" fill="#8786CE"/>
<path d="M31.6107 12.4853C33.7315 12.4853 35.4508 10.759 35.4508 8.62956C35.4508 6.50008 33.7315 4.7738 31.6107 4.7738C29.4898 4.7738 27.7705 6.50008 27.7705 8.62956C27.7705 10.759 29.4898 12.4853 31.6107 12.4853Z" fill="#8786CE"/>
<path d="M238.206 12.4853H184.386C182.266 12.4853 180.545 10.7577 180.545 8.62956C180.545 6.50138 182.266 4.7738 184.386 4.7738H238.206C240.325 4.7738 242.046 6.50138 242.046 8.62956C242.046 10.7577 240.325 12.4853 238.206 12.4853Z" fill="#8786CE"/>
<path d="M228.389 53.2044H111.921C109.835 53.2044 108.139 51.5019 108.139 49.4071C108.139 47.3123 109.835 45.6097 111.921 45.6097H228.389C230.476 45.6097 232.171 47.3123 232.171 49.4071C232.171 51.5019 230.476 53.2044 228.389 53.2044Z" fill="url(#paint1_linear_0_146)"/>
<path d="M174.361 53.2044H111.921C109.835 53.2044 108.139 51.5019 108.139 49.4071C108.139 47.3123 109.835 45.6097 111.921 45.6097H174.361C176.448 45.6097 178.143 47.3123 178.143 49.4071C178.143 51.5019 176.448 53.2044 174.361 53.2044Z" fill="#1C85FF"/>
<path d="M35.7833 112.785H35.7999L36.6311 107.068H37.6368L36.5563 114.079H34.9188L33.8383 107.068H34.9438L35.775 112.785H35.7833Z" fill="url(#paint2_linear_0_146)"/>
<path d="M39.2411 110.023H40.7456V111.024H39.2411V113.077H41.1363V114.079H38.1439V107.068H41.1363V108.07H39.2411V110.023Z" fill="url(#paint3_linear_0_146)"/>
<path d="M44.1119 114.07C44.0537 113.887 44.0121 113.778 44.0121 113.211V112.109C44.0121 111.458 43.796 111.216 43.2973 111.216H42.9149V114.07H41.8177V107.06H43.4718C44.6106 107.06 45.101 107.594 45.101 108.671V109.221C45.101 109.939 44.8683 110.406 44.3862 110.632V110.649C44.9348 110.882 45.1176 111.4 45.1176 112.134V113.219C45.1176 113.561 45.1259 113.812 45.234 114.07H44.1202H44.1119ZM42.9149 108.07V110.223H43.3472C43.7544 110.223 44.0038 110.039 44.0038 109.48V108.787C44.0038 108.287 43.8376 108.07 43.4469 108.07H42.9149Z" fill="url(#paint4_linear_0_146)"/>
<path d="M46.8881 113.01V114.07H45.8325V113.01H46.8881Z" fill="url(#paint5_linear_0_146)"/>
<path d="M50.8364 107.986C50.4873 107.986 50.2712 108.178 50.2712 108.679V109.43H49.2322V108.746C49.2322 107.627 49.7891 106.985 50.8696 106.985C51.9502 106.985 52.5071 107.627 52.5071 108.746C52.5071 109.68 52.1663 110.431 51.1523 111.516C50.5039 112.217 50.3211 112.551 50.3211 112.919C50.3211 112.969 50.3211 113.019 50.3294 113.069H52.3991V114.07H49.2322V113.211C49.2322 112.426 49.5148 111.842 50.3294 110.982C51.1689 110.089 51.4099 109.538 51.4099 108.787C51.4099 108.153 51.1938 107.986 50.8447 107.986H50.8364Z" fill="url(#paint6_linear_0_146)"/>
<path d="M54.2359 113.01V114.07H53.1803V113.01H54.2359Z" fill="url(#paint7_linear_0_146)"/>
<path d="M54.9425 108.746C54.9425 107.627 55.5327 106.985 56.6049 106.985C57.6772 106.985 58.2673 107.627 58.2673 108.746V112.393C58.2673 113.511 57.6772 114.154 56.6049 114.154C55.5327 114.154 54.9425 113.511 54.9425 112.393V108.746ZM56.0397 112.46C56.0397 112.96 56.2558 113.152 56.6049 113.152C56.954 113.152 57.1701 112.96 57.1701 112.46V108.679C57.1701 108.178 56.954 107.986 56.6049 107.986C56.2558 107.986 56.0397 108.178 56.0397 108.679V112.46Z" fill="url(#paint8_linear_0_146)"/>
<path d="M59.9713 111.809V112.46C59.9713 112.96 60.1874 113.144 60.5365 113.144C60.8856 113.144 61.1017 112.96 61.1017 112.46V110.916C61.1017 110.415 60.8856 110.223 60.5365 110.223C60.1874 110.223 59.9713 110.415 59.9713 110.916V111.124H58.9323L59.1318 107.06H62.0243V108.061H60.1126L60.0211 109.73H60.0378C60.2373 109.397 60.5448 109.221 60.9853 109.221C61.7916 109.221 62.1989 109.789 62.1989 110.824V112.384C62.1989 113.503 61.642 114.145 60.5614 114.145C59.4809 114.145 58.924 113.503 58.924 112.384V111.8H59.963L59.9713 111.809Z" fill="url(#paint9_linear_0_146)"/>
<path d="M30.1227 86.1369C27.5377 83.6665 25.4597 80.6788 24.0466 77.3321" stroke="#263238" stroke-linecap="round" stroke-linejoin="round"/>
<path d="M54.0614 41.537C62.5313 43.5066 69.4303 49.6157 72.5224 57.6277" stroke="#263238" stroke-linecap="round" stroke-linejoin="round"/>
<path d="M56.2724 60.4486V52.9707L50.695 52.4867C50.3625 51.3016 49.9054 50.1749 49.3152 49.1317L52.9143 44.8336L47.6445 39.5424L43.3638 43.1561C42.3165 42.5719 41.1944 42.1045 40.0224 41.7707L39.5403 36.1707H32.0927L31.6106 41.7707C30.4303 42.1045 29.3082 42.5635 28.2692 43.1561L23.9885 39.5424L18.7187 44.8336L22.3178 49.1317C21.7359 50.1832 21.2704 51.3099 20.938 52.4867L15.3606 52.9707V60.4486L20.938 60.9326C21.2704 62.1177 21.7276 63.2444 22.3178 64.2876L18.7187 68.5857L23.9885 73.8769L28.2692 70.2632C29.3165 70.8474 30.4386 71.3148 31.6106 71.6486L32.0927 77.2486H39.5403L40.0224 71.6486C41.2027 71.3148 42.3248 70.8558 43.3638 70.2632L47.6445 73.8769L52.9143 68.5857L49.3152 64.2876C49.897 63.236 50.3625 62.1094 50.695 60.9326L56.2724 60.4486ZM35.8165 65.3976C31.0371 65.3976 27.1637 61.5085 27.1637 56.7096C27.1637 51.9108 31.0371 48.0217 35.8165 48.0217C40.5959 48.0217 44.4693 51.9108 44.4693 56.7096C44.4693 61.5085 40.5959 65.3976 35.8165 65.3976Z" fill="#1C85FF"/>
<path d="M80.9175 77.1401V71.8155L76.9444 71.4734C76.7117 70.6304 76.3792 69.8292 75.9636 69.0865L78.5237 66.0236L74.775 62.2596L71.7328 64.8301C70.993 64.4128 70.195 64.079 69.3555 63.8453L69.0147 59.856H63.7117L63.3709 63.8453C62.5314 64.079 61.7334 64.4128 60.9936 64.8301L57.9431 62.2596L54.1944 66.0236L56.7545 69.0781C56.3389 69.8209 56.0064 70.6221 55.7737 71.465L51.8005 71.8072V77.1318L55.7737 77.474C56.0064 78.3169 56.3389 79.1181 56.7545 79.8609L54.1944 82.9238L57.9431 86.6877L60.9936 84.1172C61.7334 84.5345 62.5314 84.8684 63.3709 85.102L63.7117 89.0913H69.0147L69.3555 85.102C70.195 84.8684 70.993 84.5345 71.7328 84.1172L74.775 86.6877L78.5237 82.9238L75.9636 79.8609C76.3792 79.1181 76.7117 78.3169 76.9444 77.474L80.9175 77.1318V77.1401ZM66.3549 80.6704C62.9553 80.6704 60.1957 77.8996 60.1957 74.4862C60.1957 71.0728 62.9553 68.302 66.3549 68.302C69.7545 68.302 72.5141 71.0728 72.5141 74.4862C72.5141 77.8996 69.7545 80.6704 66.3549 80.6704Z" fill="#92E3A9"/>
<mask id="mask0_0_146" style="mask-type:luminance" maskUnits="userSpaceOnUse" x="51" y="59" width="30" height="31">
<path d="M80.9175 77.1401V71.8155L76.9444 71.4734C76.7117 70.6304 76.3792 69.8292 75.9636 69.0865L78.5237 66.0236L74.775 62.2596L71.7328 64.8301C70.993 64.4128 70.195 64.079 69.3555 63.8453L69.0147 59.856H63.7117L63.3709 63.8453C62.5314 64.079 61.7334 64.4128 60.9936 64.8301L57.9431 62.2596L54.1944 66.0236L56.7545 69.0781C56.3389 69.8209 56.0064 70.6221 55.7737 71.465L51.8005 71.8072V77.1318L55.7737 77.474C56.0064 78.3169 56.3389 79.1181 56.7545 79.8609L54.1944 82.9238L57.9431 86.6877L60.9936 84.1172C61.7334 84.5345 62.5314 84.8684 63.3709 85.102L63.7117 89.0913H69.0147L69.3555 85.102C70.195 84.8684 70.993 84.5345 71.7328 84.1172L74.775 86.6877L78.5237 82.9238L75.9636 79.8609C76.3792 79.1181 76.7117 78.3169 76.9444 77.474L80.9175 77.1318V77.1401ZM66.3549 80.6704C62.9553 80.6704 60.1957 77.8996 60.1957 74.4862C60.1957 71.0728 62.9553 68.302 66.3549 68.302C69.7545 68.302 72.5141 71.0728 72.5141 74.4862C72.5141 77.8996 69.7545 80.6704 66.3549 80.6704Z" fill="white"/>
</mask>
<g mask="url(#mask0_0_146)">
<path opacity="0.3" d="M80.9175 77.1401V71.8155L76.9444 71.4734C76.7117 70.6304 76.3792 69.8292 75.9636 69.0865L78.5237 66.0236L74.775 62.2596L71.7328 64.8301C70.993 64.4128 70.195 64.079 69.3555 63.8453L69.0147 59.856H63.7117L63.3709 63.8453C62.5314 64.079 61.7334 64.4128 60.9936 64.8301L57.9431 62.2596L54.1944 66.0236L56.7545 69.0781C56.3389 69.8209 56.0064 70.6221 55.7737 71.465L51.8005 71.8072V77.1318L55.7737 77.474C56.0064 78.3169 56.3389 79.1181 56.7545 79.8609L54.1944 82.9238L57.9431 86.6877L60.9936 84.1172C61.7334 84.5345 62.5314 84.8684 63.3709 85.102L63.7117 89.0913H69.0147L69.3555 85.102C70.195 84.8684 70.993 84.5345 71.7328 84.1172L74.775 86.6877L78.5237 82.9238L75.9636 79.8609C76.3792 79.1181 76.7117 78.3169 76.9444 77.474L80.9175 77.1318V77.1401ZM66.3549 80.6704C62.9553 80.6704 60.1957 77.8996 60.1957 74.4862C60.1957 71.0728 62.9553 68.302 66.3549 68.302C69.7545 68.302 72.5141 71.0728 72.5141 74.4862C72.5141 77.8996 69.7545 80.6704 66.3549 80.6704Z" fill="white"/>
</g>
<path d="M80.9175 77.1401V71.8155L76.9444 71.4734C76.7117 70.6304 76.3792 69.8292 75.9636 69.0865L78.5237 66.0236L74.775 62.2596L71.7328 64.8301C70.993 64.4128 70.195 64.079 69.3555 63.8453L69.0147 59.856H63.7117L63.3709 63.8453C62.5314 64.079 61.7334 64.4128 60.9936 64.8301L57.9431 62.2596L54.1944 66.0236L56.7545 69.0781C56.3389 69.8209 56.0064 70.6221 55.7737 71.465L51.8005 71.8072V77.1318L55.7737 77.474C56.0064 78.3169 56.3389 79.1181 56.7545 79.8609L54.1944 82.9238L57.9431 86.6877L60.9936 84.1172C61.7334 84.5345 62.5314 84.8684 63.3709 85.102L63.7117 89.0913H69.0147L69.3555 85.102C70.195 84.8684 70.993 84.5345 71.7328 84.1172L74.775 86.6877L78.5237 82.9238L75.9636 79.8609C76.3792 79.1181 76.7117 78.3169 76.9444 77.474L80.9175 77.1318V77.1401ZM66.3549 80.6704C62.9553 80.6704 60.1957 77.8996 60.1957 74.4862C60.1957 71.0728 62.9553 68.302 66.3549 68.302C69.7545 68.302 72.5141 71.0728 72.5141 74.4862C72.5141 77.8996 69.7545 80.6704 66.3549 80.6704Z" fill="url(#paint10_linear_0_146)"/>
<path d="M54.984 89.542V85.753L52.1579 85.511C51.9916 84.9101 51.7589 84.3426 51.4597 83.8084L53.28 81.6302L50.6118 78.9512L48.4424 80.7789C47.9104 80.4785 47.3452 80.2448 46.7468 80.0779L46.5057 77.2403H42.732L42.491 80.0779C41.8925 80.2448 41.3273 80.4785 40.7953 80.7789L38.6259 78.9512L35.9577 81.6302L37.7781 83.8084C37.4788 84.3426 37.2461 84.9101 37.0799 85.511L34.2538 85.753V89.542L37.0799 89.784C37.2461 90.3849 37.4788 90.9524 37.7781 91.4866L35.9577 93.6648L38.6259 96.3438L40.7953 94.5161C41.3273 94.8165 41.8925 95.0502 42.491 95.2171L42.732 98.0547H46.5057L46.7468 95.2171C47.3452 95.0502 47.9104 94.8165 48.4424 94.5161L50.6118 96.3438L53.28 93.6648L51.4597 91.4866C51.7589 90.9524 51.9916 90.3849 52.1579 89.784L54.984 89.542ZM44.6272 92.0457C42.2084 92.0457 40.2467 90.0761 40.2467 87.6475C40.2467 85.2189 42.2084 83.2493 44.6272 83.2493C47.046 83.2493 49.0076 85.2189 49.0076 87.6475C49.0076 90.0761 47.046 92.0457 44.6272 92.0457Z" fill="#101B2A"/>
<mask id="mask1_0_146" style="mask-type:luminance" maskUnits="userSpaceOnUse" x="34" y="77" width="21" height="22">
<path d="M54.984 89.542V85.753L52.1579 85.511C51.9916 84.9101 51.7589 84.3426 51.4597 83.8084L53.28 81.6302L50.6118 78.9512L48.4424 80.7789C47.9104 80.4785 47.3452 80.2448 46.7468 80.0779L46.5057 77.2403H42.732L42.491 80.0779C41.8925 80.2448 41.3273 80.4785 40.7953 80.7789L38.6259 78.9512L35.9577 81.6302L37.7781 83.8084C37.4788 84.3426 37.2461 84.9101 37.0799 85.511L34.2538 85.753V89.542L37.0799 89.784C37.2461 90.3849 37.4788 90.9524 37.7781 91.4866L35.9577 93.6648L38.6259 96.3438L40.7953 94.5161C41.3273 94.8165 41.8925 95.0502 42.491 95.2171L42.732 98.0547H46.5057L46.7468 95.2171C47.3452 95.0502 47.9104 94.8165 48.4424 94.5161L50.6118 96.3438L53.28 93.6648L51.4597 91.4866C51.7589 90.9524 51.9916 90.3849 52.1579 89.784L54.984 89.542ZM44.6272 92.0457C42.2084 92.0457 40.2467 90.0761 40.2467 87.6475C40.2467 85.2189 42.2084 83.2493 44.6272 83.2493C47.046 83.2493 49.0076 85.2189 49.0076 87.6475C49.0076 90.0761 47.046 92.0457 44.6272 92.0457Z" fill="white"/>
</mask>
<g mask="url(#mask1_0_146)">
<path opacity="0.5" d="M54.984 89.542V85.753L52.1579 85.511C51.9916 84.9101 51.7589 84.3426 51.4597 83.8084L53.28 81.6302L50.6118 78.9512L48.4424 80.7789C47.9104 80.4785 47.3452 80.2448 46.7468 80.0779L46.5057 77.2403H42.732L42.491 80.0779C41.8925 80.2448 41.3273 80.4785 40.7953 80.7789L38.6259 78.9512L35.9577 81.6302L37.7781 83.8084C37.4788 84.3426 37.2461 84.9101 37.0799 85.511L34.2538 85.753V89.542L37.0799 89.784C37.2461 90.3849 37.4788 90.9524 37.7781 91.4866L35.9577 93.6648L38.6259 96.3438L40.7953 94.5161C41.3273 94.8165 41.8925 95.0502 42.491 95.2171L42.732 98.0547H46.5057L46.7468 95.2171C47.3452 95.0502 47.9104 94.8165 48.4424 94.5161L50.6118 96.3438L53.28 93.6648L51.4597 91.4866C51.7589 90.9524 51.9916 90.3849 52.1579 89.784L54.984 89.542ZM44.6272 92.0457C42.2084 92.0457 40.2467 90.0761 40.2467 87.6475C40.2467 85.2189 42.2084 83.2493 44.6272 83.2493C47.046 83.2493 49.0076 85.2189 49.0076 87.6475C49.0076 90.0761 47.046 92.0457 44.6272 92.0457Z" fill="#101B2A"/>
</g>
<path d="M54.984 89.542V85.753L52.1579 85.511C51.9916 84.9101 51.7589 84.3426 51.4597 83.8084L53.28 81.6302L50.6118 78.9512L48.4424 80.7789C47.9104 80.4785 47.3452 80.2448 46.7468 80.0779L46.5057 77.2403H42.732L42.491 80.0779C41.8925 80.2448 41.3273 80.4785 40.7953 80.7789L38.6259 78.9512L35.9577 81.6302L37.7781 83.8084C37.4788 84.3426 37.2461 84.9101 37.0799 85.511L34.2538 85.753V89.542L37.0799 89.784C37.2461 90.3849 37.4788 90.9524 37.7781 91.4866L35.9577 93.6648L38.6259 96.3438L40.7953 94.5161C41.3273 94.8165 41.8925 95.0502 42.491 95.2171L42.732 98.0547H46.5057L46.7468 95.2171C47.3452 95.0502 47.9104 94.8165 48.4424 94.5161L50.6118 96.3438L53.28 93.6648L51.4597 91.4866C51.7589 90.9524 51.9916 90.3849 52.1579 89.784L54.984 89.542ZM44.6272 92.0457C42.2084 92.0457 40.2467 90.0761 40.2467 87.6475C40.2467 85.2189 42.2084 83.2493 44.6272 83.2493C47.046 83.2493 49.0076 85.2189 49.0076 87.6475C49.0076 90.0761 47.046 92.0457 44.6272 92.0457Z" fill="url(#paint11_linear_0_146)"/>
<path d="M70.5192 56.718L72.5224 57.6193L73.312 55.8083" stroke="#263238" stroke-linecap="round" stroke-linejoin="round"/>
<path d="M26 78.1584L23.9968 77.2487L23.2072 79.068" stroke="#263238" stroke-linecap="round" stroke-linejoin="round"/>
<path d="M109.237 36.2207V40.3185C109.237 40.694 109.403 40.8359 109.669 40.8359C109.935 40.8359 110.101 40.7024 110.101 40.3185V36.2207H110.891V40.2684C110.891 41.1197 110.467 41.6037 109.652 41.6037C108.838 41.6037 108.414 41.1197 108.414 40.2684V36.2207H109.245H109.237Z" fill="url(#paint12_linear_0_146)"/>
<path d="M113.916 37.531V38.2237C113.916 39.0749 113.509 39.534 112.678 39.534H112.287V41.5286H111.456V36.2123H112.678C113.509 36.2123 113.916 36.6797 113.916 37.5226V37.531ZM112.287 36.9802V38.7828H112.678C112.944 38.7828 113.085 38.6577 113.085 38.2821V37.4809C113.085 37.1053 112.944 36.9802 112.678 36.9802H112.287Z" fill="url(#paint13_linear_0_146)"/>
<path d="M116.892 41.537H116.052L115.911 40.5772H114.889L114.747 41.537H113.983L114.831 36.2207H116.044L116.892 41.537ZM114.997 39.8511H115.795L115.404 37.1638H115.388L114.997 39.8511Z" fill="url(#paint14_linear_0_146)"/>
<path d="M117.274 36.2207H118.588C119.419 36.2207 119.826 36.6881 119.826 37.531V40.2183C119.826 41.0696 119.419 41.5286 118.588 41.5286H117.274V36.2123V36.2207ZM118.105 36.9802V40.7775H118.571C118.837 40.7775 118.995 40.644 118.995 40.2601V37.4976C118.995 37.122 118.837 36.9802 118.571 36.9802H118.105Z" fill="url(#paint15_linear_0_146)"/>
<path d="M123.043 41.537H122.203L122.062 40.5772H121.04L120.898 41.537H120.134L120.981 36.2207H122.195L123.043 41.537ZM121.148 39.8511H121.946L121.555 37.1638H121.538L121.148 39.8511Z" fill="url(#paint16_linear_0_146)"/>
<path d="M122.893 36.2207H125.462V36.9802H124.597V41.537H123.766V36.9802H122.893V36.2207Z" fill="url(#paint17_linear_0_146)"/>
<path d="M125.827 36.2207H126.659V41.537H125.827V36.2207Z" fill="url(#paint18_linear_0_146)"/>
<path d="M128.022 37.6896H128.005V41.537H127.257V36.2207H128.304L129.144 39.4004H129.161V36.2207H129.9V41.537H129.044L128.022 37.6896Z" fill="url(#paint19_linear_0_146)"/>
<path d="M131.737 38.5742H132.901V40.2601C132.901 41.1113 132.477 41.5954 131.662 41.5954C130.848 41.5954 130.424 41.1113 130.424 40.2601V37.4976C130.424 36.6463 130.848 36.1623 131.662 36.1623C132.477 36.1623 132.901 36.6463 132.901 37.4976V38.0151H132.111V37.4475C132.111 37.072 131.945 36.9218 131.679 36.9218C131.413 36.9218 131.247 37.0636 131.247 37.4475V40.3185C131.247 40.7024 131.413 40.8359 131.679 40.8359C131.945 40.8359 132.111 40.7024 132.111 40.3185V39.342H131.737V38.5826V38.5742Z" fill="url(#paint20_linear_0_146)"/>
<path d="M239.652 77.5992L225.838 67.7094L229.769 84.2758L232.604 80.0528L235.214 83.9503L237.3 82.5399L234.682 78.6424L239.652 77.5992Z" fill="url(#paint21_linear_0_146)"/>
</g>
<defs>
<linearGradient id="paint0_linear_0_146" x1="-162.82" y1="8.92452" x2="-158.034" y2="8.92452" gradientUnits="userSpaceOnUse">
<stop stop-color="#E9E9FD"/>
<stop offset="0.36" stop-color="#D2D2F9"/>
<stop offset="0.71" stop-color="#C4C3F6"/>
<stop offset="1" stop-color="#C0BFF6"/>
</linearGradient>
<linearGradient id="paint1_linear_0_146" x1="25.8935" y1="49.4084" x2="28.3047" y2="49.4084" gradientUnits="userSpaceOnUse">
<stop stop-color="#E9E9FD"/>
<stop offset="0.36" stop-color="#D2D2F9"/>
<stop offset="0.71" stop-color="#C4C3F6"/>
<stop offset="1" stop-color="#C0BFF6"/>
</linearGradient>
<linearGradient id="paint2_linear_0_146" x1="31.3194" y1="110.575" x2="31.3932" y2="110.575" gradientUnits="userSpaceOnUse">
<stop stop-color="#E9E9FD"/>
<stop offset="0.36" stop-color="#D2D2F9"/>
<stop offset="0.71" stop-color="#C4C3F6"/>
<stop offset="1" stop-color="#C0BFF6"/>
</linearGradient>
<linearGradient id="paint3_linear_0_146" x1="36.1597" y1="110.575" x2="36.2179" y2="110.575" gradientUnits="userSpaceOnUse">
<stop stop-color="#E9E9FD"/>
<stop offset="0.36" stop-color="#D2D2F9"/>
<stop offset="0.71" stop-color="#C4C3F6"/>
<stop offset="1" stop-color="#C0BFF6"/>
</linearGradient>
<linearGradient id="paint4_linear_0_146" x1="39.5524" y1="110.566" x2="39.6188" y2="110.566" gradientUnits="userSpaceOnUse">
<stop stop-color="#E9E9FD"/>
<stop offset="0.36" stop-color="#D2D2F9"/>
<stop offset="0.71" stop-color="#C4C3F6"/>
<stop offset="1" stop-color="#C0BFF6"/>
</linearGradient>
<linearGradient id="paint5_linear_0_146" x1="45.1325" y1="113.54" x2="45.1531" y2="113.54" gradientUnits="userSpaceOnUse">
<stop stop-color="#E9E9FD"/>
<stop offset="0.36" stop-color="#D2D2F9"/>
<stop offset="0.71" stop-color="#C4C3F6"/>
<stop offset="1" stop-color="#C0BFF6"/>
</linearGradient>
<linearGradient id="paint6_linear_0_146" x1="47.0606" y1="110.529" x2="47.1242" y2="110.529" gradientUnits="userSpaceOnUse">
<stop stop-color="#E9E9FD"/>
<stop offset="0.36" stop-color="#D2D2F9"/>
<stop offset="0.71" stop-color="#C4C3F6"/>
<stop offset="1" stop-color="#C0BFF6"/>
</linearGradient>
<linearGradient id="paint7_linear_0_146" x1="52.4803" y1="113.54" x2="52.5008" y2="113.54" gradientUnits="userSpaceOnUse">
<stop stop-color="#E9E9FD"/>
<stop offset="0.36" stop-color="#D2D2F9"/>
<stop offset="0.71" stop-color="#C4C3F6"/>
<stop offset="1" stop-color="#C0BFF6"/>
</linearGradient>
<linearGradient id="paint8_linear_0_146" x1="52.7378" y1="110.57" x2="52.8025" y2="110.57" gradientUnits="userSpaceOnUse">
<stop stop-color="#E9E9FD"/>
<stop offset="0.36" stop-color="#D2D2F9"/>
<stop offset="0.71" stop-color="#C4C3F6"/>
<stop offset="1" stop-color="#C0BFF6"/>
</linearGradient>
<linearGradient id="paint9_linear_0_146" x1="56.7523" y1="110.604" x2="56.816" y2="110.604" gradientUnits="userSpaceOnUse">
<stop stop-color="#E9E9FD"/>
<stop offset="0.36" stop-color="#D2D2F9"/>
<stop offset="0.71" stop-color="#C4C3F6"/>
<stop offset="1" stop-color="#C0BFF6"/>
</linearGradient>
<linearGradient id="paint10_linear_0_146" x1="32.493" y1="74.4786" x2="33.059" y2="74.4786" gradientUnits="userSpaceOnUse">
<stop stop-color="#E9E9FD"/>
<stop offset="0.36" stop-color="#D2D2F9"/>
<stop offset="0.71" stop-color="#C4C3F6"/>
<stop offset="1" stop-color="#C0BFF6"/>
</linearGradient>
<linearGradient id="paint11_linear_0_146" x1="20.5075" y1="87.651" x2="20.9105" y2="87.651" gradientUnits="userSpaceOnUse">
<stop stop-color="#E9E9FD"/>
<stop offset="0.36" stop-color="#D2D2F9"/>
<stop offset="0.71" stop-color="#C4C3F6"/>
<stop offset="1" stop-color="#C0BFF6"/>
</linearGradient>
<linearGradient id="paint12_linear_0_146" x1="106.771" y1="38.9131" x2="106.819" y2="38.9131" gradientUnits="userSpaceOnUse">
<stop stop-color="#E9E9FD"/>
<stop offset="0.36" stop-color="#D2D2F9"/>
<stop offset="0.71" stop-color="#C4C3F6"/>
<stop offset="1" stop-color="#C0BFF6"/>
</linearGradient>
<linearGradient id="paint13_linear_0_146" x1="109.824" y1="38.8714" x2="109.872" y2="38.8714" gradientUnits="userSpaceOnUse">
<stop stop-color="#E9E9FD"/>
<stop offset="0.36" stop-color="#D2D2F9"/>
<stop offset="0.71" stop-color="#C4C3F6"/>
<stop offset="1" stop-color="#C0BFF6"/>
</linearGradient>
<linearGradient id="paint14_linear_0_146" x1="112.054" y1="38.8797" x2="112.11" y2="38.8797" gradientUnits="userSpaceOnUse">
<stop stop-color="#E9E9FD"/>
<stop offset="0.36" stop-color="#D2D2F9"/>
<stop offset="0.71" stop-color="#C4C3F6"/>
<stop offset="1" stop-color="#C0BFF6"/>
</linearGradient>
<linearGradient id="paint15_linear_0_146" x1="115.582" y1="38.8714" x2="115.632" y2="38.8714" gradientUnits="userSpaceOnUse">
<stop stop-color="#E9E9FD"/>
<stop offset="0.36" stop-color="#D2D2F9"/>
<stop offset="0.71" stop-color="#C4C3F6"/>
<stop offset="1" stop-color="#C0BFF6"/>
</linearGradient>
<linearGradient id="paint16_linear_0_146" x1="118.205" y1="38.8797" x2="118.261" y2="38.8797" gradientUnits="userSpaceOnUse">
<stop stop-color="#E9E9FD"/>
<stop offset="0.36" stop-color="#D2D2F9"/>
<stop offset="0.71" stop-color="#C4C3F6"/>
<stop offset="1" stop-color="#C0BFF6"/>
</linearGradient>
<linearGradient id="paint17_linear_0_146" x1="121.19" y1="38.8797" x2="121.24" y2="38.8797" gradientUnits="userSpaceOnUse">
<stop stop-color="#E9E9FD"/>
<stop offset="0.36" stop-color="#D2D2F9"/>
<stop offset="0.71" stop-color="#C4C3F6"/>
<stop offset="1" stop-color="#C0BFF6"/>
</linearGradient>
<linearGradient id="paint18_linear_0_146" x1="125.276" y1="38.8797" x2="125.292" y2="38.8797" gradientUnits="userSpaceOnUse">
<stop stop-color="#E9E9FD"/>
<stop offset="0.36" stop-color="#D2D2F9"/>
<stop offset="0.71" stop-color="#C4C3F6"/>
<stop offset="1" stop-color="#C0BFF6"/>
</linearGradient>
<linearGradient id="paint19_linear_0_146" x1="125.504" y1="38.8797" x2="125.556" y2="38.8797" gradientUnits="userSpaceOnUse">
<stop stop-color="#E9E9FD"/>
<stop offset="0.36" stop-color="#D2D2F9"/>
<stop offset="0.71" stop-color="#C4C3F6"/>
<stop offset="1" stop-color="#C0BFF6"/>
</linearGradient>
<linearGradient id="paint20_linear_0_146" x1="128.781" y1="38.8798" x2="128.83" y2="38.8798" gradientUnits="userSpaceOnUse">
<stop stop-color="#E9E9FD"/>
<stop offset="0.36" stop-color="#D2D2F9"/>
<stop offset="0.71" stop-color="#C4C3F6"/>
<stop offset="1" stop-color="#C0BFF6"/>
</linearGradient>
<linearGradient id="paint21_linear_0_146" x1="216.677" y1="75.9954" x2="216.946" y2="75.9954" gradientUnits="userSpaceOnUse">
<stop stop-color="#E9E9FD"/>
<stop offset="0.36" stop-color="#D2D2F9"/>
<stop offset="0.71" stop-color="#C4C3F6"/>
<stop offset="1" stop-color="#C0BFF6"/>
</linearGradient>
<clipPath id="clip0_0_146">
<rect width="247" height="134" fill="white"/>
</clipPath>
</defs>
</svg>
