<svg width="231" height="139" viewBox="0 0 231 139" fill="none" xmlns="http://www.w3.org/2000/svg">
<g clip-path="url(#clip0_0_39)">
<g opacity="0.3">
<path d="M165.152 99.7002V91.0356L162.758 89.7011C162.082 93.8013 157.275 96.4896 153.26 97.0505L125.905 113.084L113.956 117.397L75.8481 97.6887L76.7362 97.1859C73.4737 95.658 71.7169 92.1767 69.9602 88.9855L67.3927 90.5134L65.8676 90.9389V99.8355C65.8676 101.538 66.9873 103.239 69.2266 104.516L107.411 126.603C111.89 129.194 119.149 129.194 123.627 126.603L161.812 104.516C164.013 103.239 165.132 101.576 165.171 99.9129C165.171 99.8355 165.171 99.7582 165.171 99.6808L165.152 99.7002Z" fill="url(#paint0_linear_0_39)"/>
<path opacity="0.3" d="M153.26 97.0505L125.905 113.084L115.519 116.836V128.556C118.454 128.556 121.388 127.918 123.627 126.622L161.812 104.535C164.013 103.259 165.132 101.596 165.171 99.9323C165.171 99.8549 165.171 99.7775 165.171 99.7002V91.0357L162.99 89.8172H162.758C162.005 93.84 157.256 96.4897 153.279 97.0505H153.26Z" fill="#0F054C"/>
<path d="M107.392 117.803L69.2073 95.716C64.7287 93.1244 64.7287 88.9275 69.2073 86.3359L107.392 64.2491C111.871 61.6575 119.129 61.6575 123.608 64.2491L161.793 86.3359C166.271 88.9275 166.271 93.1244 161.793 95.716L123.608 117.803C119.129 120.394 111.871 120.394 107.392 117.803Z" fill="url(#paint1_linear_0_39)"/>
<g opacity="0.3">
<path d="M107.392 117.803L69.2073 95.716C64.7287 93.1244 64.7287 88.9275 69.2073 86.3359L107.392 64.2491C111.871 61.6575 119.129 61.6575 123.608 64.2491L161.793 86.3359C166.271 88.9275 166.271 93.1244 161.793 95.716L123.608 117.803C119.129 120.394 111.871 120.394 107.392 117.803Z" fill="#0F054C"/>
</g>
</g>
<path opacity="0.4" d="M115.5 124.862C92.2185 124.862 68.9178 119.737 51.1961 109.486C33.957 99.5067 24.459 86.2392 24.459 72.1013C24.459 57.9634 33.957 44.6958 51.1961 34.7161C86.6588 14.2152 144.341 14.2152 179.804 34.7161C197.043 44.6958 206.541 57.9634 206.541 72.1013C206.541 86.2392 197.043 99.5067 179.804 109.486C162.082 119.737 138.781 124.862 115.5 124.862ZM115.5 19.9787C92.3344 19.9787 69.1687 25.0846 51.5242 35.277C34.4975 45.1213 25.1347 58.1955 25.1347 72.0819C25.1347 85.9684 34.5168 99.0426 51.5242 108.887C86.7939 129.291 144.187 129.291 179.456 108.887C196.483 99.0426 205.846 85.9684 205.846 72.0819C205.846 58.1955 196.464 45.1213 179.456 35.277C161.812 25.0846 138.646 19.9787 115.481 19.9787H115.5Z" fill="#1C85FF"/>
<path opacity="0.2" d="M115.5 139C85.9445 139 56.389 132.502 33.899 119.485C12.0461 106.837 0 90.0106 0 72.082C0 54.1533 12.0461 37.3465 33.899 24.6978C78.8983 -1.33449 152.102 -1.33449 197.101 24.6978C218.954 37.3465 231 54.1727 231 72.082C231 89.9912 218.954 106.837 197.101 119.466C174.611 132.482 145.055 138.981 115.5 138.981V139ZM115.5 5.84083C86.0603 5.84083 56.64 12.3199 34.2272 25.278C12.5867 37.7913 0.675664 54.4241 0.675664 72.082C0.675664 89.7398 12.5867 106.373 34.2465 118.886C79.0527 144.802 151.967 144.802 196.773 118.886C218.413 106.373 230.344 89.7398 230.344 72.082C230.344 54.4241 218.433 37.7913 196.773 25.278C174.36 12.3199 144.94 5.84083 115.5 5.84083Z" fill="#1C85FF"/>
<path d="M115.5 113.722C97.1412 113.722 78.8018 109.68 64.8252 101.595C51.2154 93.7239 43.7444 83.2414 43.7444 72.0819C43.7444 60.9225 51.2347 50.4399 64.8252 42.5684C92.7591 26.3997 138.241 26.3997 166.175 42.5684C179.765 50.4399 187.256 60.9225 187.256 72.0819C187.256 83.2414 179.765 93.7239 166.175 101.595C152.198 109.68 133.859 113.722 115.5 113.722ZM115.5 31.1188C97.2764 31.1188 79.0334 35.1416 65.1534 43.1679C51.7752 50.9041 44.4008 61.1739 44.4008 72.1013C44.4008 83.0093 51.7752 93.2791 65.1534 101.035C92.9135 117.087 138.087 117.087 165.847 101.035C179.225 93.2984 186.599 83.0286 186.599 72.1013C186.599 61.1739 179.225 50.9235 165.847 43.1679C151.967 35.1416 133.743 31.1188 115.5 31.1188Z" fill="#1C85FF"/>
<path d="M115.5 85.6783C112.894 85.6783 110.288 85.0981 108.299 83.957L70.1147 61.8702C68.1263 60.7291 67.0452 59.1819 67.0452 57.5186C67.0452 55.8553 68.1456 54.3081 70.1147 53.167L108.299 31.0801C112.276 28.7786 118.724 28.7786 122.701 31.0801L160.885 53.167C162.874 54.3081 163.955 55.8553 163.955 57.5186C163.955 59.1819 162.854 60.7291 160.885 61.8702L122.701 83.957C120.712 85.0981 118.106 85.6783 115.5 85.6783ZM115.5 29.9971C113.01 29.9971 110.519 30.5386 108.628 31.641L70.4429 53.7278C68.6861 54.7529 67.7016 56.0874 67.7016 57.4992C67.7016 58.9111 68.6668 60.2456 70.4429 61.2706L108.628 83.3574C112.411 85.5429 118.569 85.5429 122.353 83.3574L160.538 61.2706C162.295 60.2456 163.279 58.9111 163.279 57.4992C163.279 56.0874 162.314 54.7529 160.538 53.7278L122.353 31.641C120.461 30.5386 117.971 29.9971 115.481 29.9971H115.5Z" fill="#1C85FF"/>
<path opacity="0.4" d="M165.152 49.0281V35.9346L162.758 34.6001C162.082 38.7003 157.275 41.3886 153.26 41.9495L125.905 57.9828L113.956 62.2957L75.8481 42.5877L76.7362 42.0849C73.4737 40.557 71.7169 37.0757 69.9602 33.8845L67.3927 35.4124L65.8676 35.8379V49.1635C65.8676 50.8655 66.9873 52.5674 69.2266 53.8439L107.411 75.9307C111.89 78.5223 119.149 78.5223 123.627 75.9307L161.812 53.8439C164.013 52.5674 165.132 50.9041 165.171 49.2409C165.171 49.1635 165.171 49.0861 165.171 49.0088L165.152 49.0281Z" fill="#1C85FF"/>
<path d="M165.152 37.3852V28.7206L162.758 27.3861C162.082 31.4863 157.275 34.1746 153.26 34.7355L125.905 50.7688L113.956 55.0817L75.8481 35.3737L76.7362 34.8709C73.4737 33.343 71.7169 29.8617 69.9602 26.6705L67.3927 28.1984L65.8676 28.6239V37.5205C65.8676 39.2225 66.9873 40.9245 69.2266 42.2009L107.411 64.2878C111.89 66.8794 119.149 66.8794 123.627 64.2878L161.812 42.2009C164.013 40.9245 165.132 39.2612 165.171 37.5979C165.171 37.5205 165.171 37.4432 165.171 37.3658L165.152 37.3852Z" fill="url(#paint2_linear_0_39)"/>
<path opacity="0.3" d="M153.26 34.7355L125.905 50.7688L115.519 54.5208V66.2412C118.454 66.2412 121.388 65.6029 123.627 64.3071L161.812 42.2203C164.013 40.9438 165.132 39.2805 165.171 37.6173C165.171 37.5399 165.171 37.4625 165.171 37.3852V28.7206L162.99 27.5022H162.758C162.005 31.525 157.256 34.1747 153.279 34.7355H153.26Z" fill="#0F054C"/>
<path d="M107.392 55.4878L69.2072 33.401C64.7285 30.8094 64.7285 26.6125 69.2072 24.0209L107.392 1.93407C111.871 -0.65755 119.129 -0.65755 123.608 1.93407L161.793 24.0209C166.271 26.6125 166.271 30.8094 161.793 33.401L123.608 55.4878C119.129 58.0795 111.871 58.0795 107.392 55.4878Z" fill="url(#paint3_linear_0_39)"/>
<path d="M115.5 51.4844C113.145 51.4844 110.79 50.9622 108.994 49.9371L79.1685 32.6854C77.3732 31.641 76.3887 30.2485 76.3887 28.7206C76.3887 27.2121 77.3732 25.8002 79.1685 24.7752L108.994 7.52345C112.585 5.45402 118.415 5.45402 122.006 7.52345L151.831 24.7752C153.627 25.8195 154.611 27.2121 154.611 28.74C154.611 30.2678 153.627 31.6604 151.831 32.6854L122.006 49.9371C120.21 50.9815 117.855 51.4844 115.5 51.4844ZM109.322 49.3569C112.72 51.3296 118.261 51.3296 121.658 49.3569L151.484 32.1052C153.067 31.1962 153.936 29.9971 153.936 28.74C153.936 27.4828 153.067 26.2837 151.484 25.3747L121.658 8.123C118.261 6.15027 112.72 6.15027 109.322 8.123L79.4967 25.3747C77.9137 26.2837 77.045 27.4828 77.045 28.74C77.045 29.9971 77.9137 31.1962 79.4967 32.1245L109.322 49.3762V49.3569Z" fill="#5351AF"/>
<path d="M161.793 33.401L123.608 55.4878C119.129 58.0794 111.871 58.0794 107.392 55.4878L69.2073 33.401C67.1996 32.2406 66.0993 30.7707 65.8869 29.2428C65.6167 31.1188 66.7363 33.0335 69.2073 34.4647L107.392 56.5515C111.871 59.1432 119.129 59.1432 123.608 56.5515L161.793 34.4647C164.264 33.0335 165.364 31.0995 165.113 29.2428C164.901 30.7514 163.8 32.2406 161.793 33.401Z" fill="white"/>
</g>
<defs>
<linearGradient id="paint0_linear_0_39" x1="75.7323" y1="73.8033" x2="154.588" y2="119.243" gradientUnits="userSpaceOnUse">
<stop stop-color="#BCBEFF"/>
<stop offset="0.23" stop-color="#AAADF7"/>
<stop offset="0.68" stop-color="#7B82E5"/>
<stop offset="1" stop-color="#5761D7"/>
</linearGradient>
<linearGradient id="paint1_linear_0_39" x1="65.8483" y1="91.0356" x2="165.152" y2="91.0356" gradientUnits="userSpaceOnUse">
<stop stop-color="#E9E9FD"/>
<stop offset="0.36" stop-color="#D2D2F9"/>
<stop offset="0.71" stop-color="#C4C3F6"/>
<stop offset="1" stop-color="#C0BFF6"/>
</linearGradient>
<linearGradient id="paint2_linear_0_39" x1="75.7323" y1="11.4883" x2="154.588" y2="56.928" gradientUnits="userSpaceOnUse">
<stop stop-color="#BCBEFF"/>
<stop offset="0.23" stop-color="#AAADF7"/>
<stop offset="0.68" stop-color="#7B82E5"/>
<stop offset="1" stop-color="#5761D7"/>
</linearGradient>
<linearGradient id="paint3_linear_0_39" x1="-0.000112861" y1="28.7206" x2="1.93036" y2="28.7206" gradientUnits="userSpaceOnUse">
<stop stop-color="#E9E9FD"/>
<stop offset="0.36" stop-color="#D2D2F9"/>
<stop offset="0.71" stop-color="#C4C3F6"/>
<stop offset="1" stop-color="#C0BFF6"/>
</linearGradient>
<clipPath id="clip0_0_39">
<rect width="231" height="139" fill="white"/>
</clipPath>
</defs>
</svg>
