<svg width="303" height="186" viewBox="0 0 303 186" fill="none" xmlns="http://www.w3.org/2000/svg">
<g clip-path="url(#clip0_0_297)">
<path opacity="0.4" d="M302.839 153.333L292.124 58.4704L292.108 58.4791C289.771 25.8309 262.621 0 229.449 0C209.539 0 191.804 9.25178 180.291 23.7016H122.709C111.196 9.25178 93.4608 0 73.5508 0C40.3779 0 13.2291 25.7982 10.8923 58.4453L10.876 58.454L0.160923 153.326C-1.09175 164.411 5.05851 175.012 15.293 179.403L25.9265 183.967C35.8696 188.232 47.4187 185.639 54.6335 177.566L105.405 120.726H197.595L248.366 177.567C255.582 185.64 267.132 188.219 277.075 183.952L287.708 179.398C297.941 175.008 304.092 164.419 302.84 153.333H302.839Z" fill="url(#paint0_linear_0_297)"/>
<path d="M103.054 92.5889C119.076 76.5323 119.076 50.4995 103.054 34.443C87.0316 18.3864 61.0547 18.3864 45.0326 34.443C29.0105 50.4995 29.0105 76.5323 45.0326 92.5889C61.0547 108.645 87.0316 108.645 103.054 92.5889Z" fill="#1C85FF"/>
<path d="M261.066 92.5886C277.088 76.5321 277.088 50.4993 261.066 34.4427C245.044 18.3861 219.067 18.3862 203.045 34.4427C187.023 50.4993 187.023 76.5321 203.045 92.5887C219.067 108.645 245.044 108.645 261.066 92.5886Z" fill="#020230"/>
<path d="M232.421 51.6668C237.663 51.5356 241.807 47.1704 241.676 41.9168C241.545 36.6632 237.189 32.5106 231.947 32.6417C226.705 32.7729 222.561 37.1381 222.692 42.3917C222.823 47.6453 227.178 51.7979 232.421 51.6668Z" fill="#1C85FF"/>
<path d="M236.026 91.8009C240.822 89.6751 242.99 84.0557 240.869 79.2496C238.748 74.4434 233.141 72.2706 228.345 74.3963C223.549 76.5221 221.381 82.1415 223.502 86.9477C225.623 91.7538 231.231 93.9267 236.026 91.8009Z" fill="#7B82E5"/>
<path d="M253.889 72.0547C259.085 71.3452 262.723 66.5487 262.015 61.3416C261.307 56.1344 256.52 52.4884 251.324 53.198C246.129 53.9076 242.49 58.7041 243.198 63.9112C243.907 69.1183 248.693 72.7643 253.889 72.0547Z" fill="#1C85FF"/>
<path d="M211.76 72.1323C217.004 72.1323 221.255 67.872 221.255 62.6168C221.255 57.3615 217.004 53.1013 211.76 53.1013C206.516 53.1013 202.265 57.3615 202.265 62.6168C202.265 67.872 206.516 72.1323 211.76 72.1323Z" fill="#91B3FA"/>
<path d="M93.0966 58.2797H79.4673L77.6013 40.467C77.411 38.6025 75.8441 37.6359 73.9738 37.6359H69.4405C68.4357 37.6359 67.4756 37.6152 66.7862 38.3486C66.0979 39.082 65.7412 39.835 65.801 40.8408L66.859 58.2808H49.8665C47.8526 58.2808 45.8551 59.9448 45.8551 61.963V65.4272C45.8551 67.4454 47.8526 69.1181 49.8665 69.1181H67.5039L68.588 87.2926C68.7032 89.2225 70.2984 90.7938 72.2275 90.7938H78.7289C79.7609 90.7938 80.7439 90.2719 81.4354 89.5047C82.127 88.7375 82.4609 87.6892 82.3565 86.6605L80.5666 69.1181H93.0955C95.1093 69.1181 95.8085 67.4454 95.8085 65.4272V61.963C95.8085 59.9448 95.1093 58.2808 93.0955 58.2808L93.0966 58.2797Z" fill="#020230"/>
<path d="M144.218 50.0228C144.218 51.1627 143.296 52.0867 142.158 52.0867H130.313C129.176 52.0867 128.254 51.1627 128.254 50.0228C128.254 48.883 129.176 47.9589 130.313 47.9589H142.158C143.296 47.9589 144.218 48.883 144.218 50.0228Z" fill="#2467B3"/>
<path d="M172.028 50.0228C172.028 51.1627 171.106 52.0867 169.968 52.0867H158.123C156.986 52.0867 156.064 51.1627 156.064 50.0228C156.064 48.883 156.986 47.9589 158.123 47.9589H169.968C171.106 47.9589 172.028 48.883 172.028 50.0228Z" fill="#2467B3"/>
</g>
<defs>
<linearGradient id="paint0_linear_0_297" x1="151.5" y1="50" x2="151.5" y2="186" gradientUnits="userSpaceOnUse">
<stop stop-color="#1C85FF"/>
<stop offset="1" stop-color="#001227"/>
</linearGradient>
<clipPath id="clip0_0_297">
<rect width="303" height="186" fill="white"/>
</clipPath>
</defs>
</svg>
