<svg width="410" height="230" viewBox="0 0 410 230" fill="none" xmlns="http://www.w3.org/2000/svg">
<g clip-path="url(#clip0_0_204)">
<path d="M393.462 163.15C392.245 163.15 391.018 162.835 389.933 162.206L378.029 155.328C377.339 154.933 376.923 154.213 376.923 153.421C376.923 152.63 377.339 151.91 378.029 151.514L389.933 144.636C392.113 143.379 394.82 143.379 396.99 144.636L408.895 151.514C409.584 151.91 410 152.63 410 153.421C410 154.213 409.584 154.933 408.895 155.328L396.99 162.206C395.905 162.835 394.678 163.15 393.462 163.15ZM393.462 145.58C392.569 145.58 391.677 145.813 390.876 146.27L378.972 153.147C378.84 153.229 378.809 153.35 378.809 153.421C378.809 153.492 378.83 153.614 378.972 153.695L390.876 160.573C392.468 161.496 394.455 161.496 396.047 160.573L407.952 153.695C408.084 153.614 408.114 153.492 408.114 153.421C408.114 153.35 408.094 153.229 407.952 153.147L396.047 146.27C395.246 145.813 394.354 145.58 393.462 145.58Z" fill="url(#paint0_linear_0_204)"/>
<path d="M337.367 194.769C335.38 194.769 333.403 194.262 331.638 193.237L311.156 181.409C310.182 180.851 309.594 179.837 309.594 178.711C309.594 177.585 310.172 176.581 311.156 176.012L331.638 164.184C335.177 162.145 339.568 162.145 343.107 164.184L363.589 176.012C364.563 176.57 365.151 177.585 365.151 178.711C365.151 179.837 364.573 180.841 363.589 181.409L343.107 193.237C341.342 194.262 339.355 194.769 337.367 194.769ZM332.581 191.594C335.542 193.298 339.203 193.298 342.164 191.594L362.646 179.766C363.194 179.441 363.255 178.914 363.255 178.701C363.255 178.488 363.194 177.96 362.646 177.636L342.164 165.807C339.203 164.103 335.532 164.103 332.581 165.807L312.099 177.636C311.551 177.96 311.49 178.488 311.49 178.701C311.49 178.914 311.551 179.441 312.099 179.766L332.581 191.594Z" fill="url(#paint1_linear_0_204)"/>
<path d="M27.7734 160.847C25.786 160.847 23.8087 160.34 22.0342 159.315L1.55143 147.487C0.577987 146.929 -0.0101318 145.915 -0.0101318 144.789C-0.0101318 143.663 0.567847 142.658 1.55143 142.09L22.0342 130.262C25.573 128.223 29.9637 128.223 33.5025 130.262L53.9853 142.09C54.9587 142.648 55.5468 143.663 55.5468 144.789C55.5468 145.915 54.9688 146.919 53.9853 147.487L33.5025 159.315C31.7381 160.34 29.7507 160.847 27.7633 160.847H27.7734ZM27.7734 130.617C26.1206 130.617 24.4576 131.043 22.9772 131.895L2.49444 143.723C1.93674 144.048 1.88604 144.576 1.88604 144.789C1.88604 145.002 1.94688 145.529 2.49444 145.854L22.9772 157.682C25.9381 159.386 29.6088 159.386 32.5595 157.682L53.0423 145.854C53.5999 145.529 53.6507 145.002 53.6507 144.789C53.6507 144.576 53.5898 144.048 53.0423 143.723L32.5595 131.895C31.0791 131.043 29.4262 130.617 27.7633 130.617H27.7734Z" fill="url(#paint2_linear_0_204)"/>
<path d="M92.5882 86.6621C89.8504 86.6621 87.1126 85.952 84.6688 84.542L55.6685 67.7939C54.4111 67.0736 53.6608 65.765 53.6608 64.3144C53.6608 62.8638 54.4111 61.5653 55.6685 60.8349L84.6587 44.0868C89.5462 41.2667 95.62 41.2667 100.507 44.0868L129.508 60.8349C130.765 61.5653 131.516 62.8638 131.516 64.3144C131.516 65.765 130.765 67.0635 129.508 67.7939L100.518 84.542C98.0739 85.952 95.3361 86.6621 92.5983 86.6621H92.5882ZM85.6017 82.9088C89.9112 85.3941 95.255 85.3941 99.5645 82.9088L128.555 66.1606C129.224 65.7752 129.619 65.0854 129.619 64.3144C129.619 63.5434 129.224 62.8536 128.555 62.4681L99.5543 45.72C95.255 43.2347 89.9011 43.2347 85.5916 45.72L56.6014 62.4681C55.9321 62.8536 55.5367 63.5434 55.5367 64.3144C55.5367 65.0854 55.9321 65.7752 56.6014 66.1606L85.6017 82.9088Z" fill="#1C85FF"/>
<path d="M351.239 95.2949L351.34 95.4166L271.488 49.2503C267.411 46.8968 260.303 47.191 255.598 49.9096L76.7189 153.229L70.7566 150.946L72.4297 159.315C72.6528 160.573 73.5349 161.75 75.1168 162.663L157.524 210.31C161.601 212.664 168.709 212.369 173.414 209.651L352.749 106.068C354.96 104.79 356.238 103.207 356.552 101.635H356.562L358.276 93.4994L351.239 95.2949Z" fill="url(#paint3_linear_0_204)"/>
<path d="M157.829 202.945L73.4338 154.152C69.3271 151.778 69.8442 147.649 74.5796 144.91L255.193 40.5871C259.928 37.8481 267.097 37.554 271.194 39.9277L355.589 88.7214C359.696 91.0952 359.178 95.2239 354.443 97.9628L173.83 202.286C169.094 205.025 161.925 205.319 157.829 202.945Z" fill="#1C85FF"/>
<path d="M157.94 197.498L80.187 152.559C76.1818 150.246 76.6786 146.199 81.3126 143.531L255.254 43.0318C259.878 40.3639 266.884 40.0697 270.89 42.3826L349.262 87.6867C353.267 89.9996 352.77 94.0471 348.136 96.7151L173.566 196.839C168.942 199.517 161.936 199.801 157.93 197.488L157.94 197.498Z" fill="url(#paint4_radial_0_204)"/>
<path opacity="0.8" d="M157.94 197.498L80.187 152.559C76.1818 150.246 76.6786 146.199 81.3126 143.531L255.254 43.0318C259.878 40.3639 266.884 40.0697 270.89 42.3826L349.262 87.6867C353.267 89.9996 352.77 94.0471 348.136 96.7151L173.566 196.839C168.942 199.517 161.936 199.801 157.93 197.488L157.94 197.498Z" fill="black"/>
<path opacity="0.4" d="M302.395 60.6016L299.363 62.3464C297.02 63.6956 296.767 65.7447 298.795 66.9215L300.225 67.7432C302.253 68.9199 305.802 68.7677 308.144 67.4185L311.166 65.6737L302.384 60.6016H302.395Z" fill="#06033E"/>
<g opacity="0.2">
<path d="M167.056 139.96L204.108 161.415C208.579 163.981 216.387 163.626 221.528 160.634C226.679 157.641 227.217 153.127 222.745 150.561L185.694 129.106C181.222 126.539 173.414 126.894 168.273 129.887C163.122 132.879 162.585 137.393 167.056 139.96Z" fill="url(#paint5_linear_0_204)"/>
</g>
<path d="M180.918 138.57L175.726 135.567C174.955 135.121 175.046 134.34 175.939 133.833C176.831 133.315 178.18 133.265 178.95 133.711L184.142 136.714C184.913 137.16 184.821 137.941 183.929 138.448C183.037 138.966 181.688 139.017 180.918 138.57Z" fill="#1C85FF"/>
<path d="M200.244 149.729L186.363 141.715C185.592 141.269 185.683 140.487 186.576 139.98C187.468 139.463 188.817 139.412 189.587 139.858L203.469 147.872C204.239 148.319 204.148 149.1 203.256 149.607C202.364 150.124 201.015 150.175 200.244 149.729Z" fill="#1C85FF"/>
<path d="M210.77 155.805L205.73 152.894C204.959 152.447 205.051 151.666 205.943 151.159C206.835 150.642 208.184 150.591 208.955 151.037L213.994 153.949C214.765 154.395 214.674 155.176 213.781 155.683C212.889 156.201 211.54 156.252 210.77 155.805Z" fill="#1C85FF"/>
<g opacity="0.2">
<path d="M178.808 112.033L233.919 144.19C238.391 146.757 246.199 146.401 251.34 143.409C256.491 140.416 257.028 135.902 252.557 133.336L197.446 101.179C192.974 98.612 185.166 98.9671 180.025 101.96C174.874 104.952 174.337 109.466 178.808 112.033Z" fill="#1C85FF"/>
</g>
<path d="M202.556 116.415C201.735 115.938 200.396 115.938 199.575 116.415L198.105 117.267C197.283 117.744 197.283 118.515 198.105 118.992C198.926 119.469 200.265 119.469 201.086 118.992L202.556 118.14C203.378 117.663 203.378 116.892 202.556 116.415Z" fill="#1C85FF"/>
<path d="M216.478 115.746C215.657 115.269 214.319 115.269 213.497 115.746L204.493 120.95C203.672 121.426 203.672 122.197 204.493 122.674C205.314 123.151 206.653 123.151 207.474 122.674L216.478 117.47C217.3 116.993 217.3 116.222 216.478 115.746Z" fill="#1C85FF"/>
<path d="M244.242 136.572C243.42 136.095 242.082 136.095 241.261 136.572L236.393 139.382C235.572 139.858 235.572 140.629 236.393 141.106C237.215 141.583 238.553 141.583 239.375 141.106L244.242 138.296C245.063 137.819 245.063 137.049 244.242 136.572Z" fill="#1C85FF"/>
<path d="M237.255 133.234C236.434 132.758 235.095 132.758 234.274 133.234L230.015 135.689C229.194 136.166 229.194 136.937 230.015 137.414C230.837 137.891 232.175 137.891 232.996 137.414L237.255 134.959C238.077 134.482 238.077 133.711 237.255 133.234Z" fill="#1C85FF"/>
<path d="M235.623 126.803C234.801 126.326 233.463 126.326 232.642 126.803L223.637 132.007C222.816 132.484 222.816 133.255 223.637 133.731C224.459 134.208 225.797 134.208 226.618 133.731L235.623 128.527C236.444 128.051 236.444 127.28 235.623 126.803Z" fill="#1C85FF"/>
<path d="M227.338 124.226C226.517 123.749 225.179 123.749 224.357 124.226L217.259 128.325C216.438 128.801 216.438 129.572 217.259 130.049C218.081 130.526 219.419 130.526 220.24 130.049L227.338 125.951C228.16 125.474 228.16 124.703 227.338 124.226Z" fill="#1C85FF"/>
<path d="M218.111 122.177C217.29 121.7 215.951 121.7 215.13 122.177L210.871 124.632C210.05 125.109 210.05 125.88 210.871 126.357C211.692 126.833 213.031 126.833 213.852 126.357L218.111 123.902C218.932 123.425 218.932 122.654 218.111 122.177Z" fill="#1C85FF"/>
<path d="M204.097 93.1342L229.194 107.61C233.666 110.176 241.473 109.821 246.614 106.829C251.766 103.836 252.303 99.3221 247.831 96.7557L222.735 82.2798C218.263 79.7134 210.455 80.0684 205.314 83.0609C200.163 86.0535 199.626 90.5677 204.097 93.1342Z" fill="#7B82E5"/>
<path d="M354.443 95.7717L173.83 200.095C169.094 202.834 161.925 203.128 157.829 200.754L73.4336 151.961C72.0343 151.149 71.213 150.135 70.8784 149.039C70.3308 150.926 71.1319 152.823 73.4336 154.152L157.829 202.945C161.935 205.319 169.094 205.015 173.83 202.286L354.443 97.9628C357.566 96.1571 358.813 93.7529 358.154 91.6429C357.728 93.1139 356.522 94.5746 354.443 95.7717Z" fill="white"/>
<path d="M112.888 120.453L159.583 147.284C164.055 149.851 171.863 149.495 177.003 146.503C182.155 143.51 182.692 138.996 178.22 136.43L131.526 109.598C127.054 107.032 119.246 107.387 114.105 110.379C108.954 113.372 108.417 117.886 112.888 120.453Z" fill="url(#paint6_linear_0_204)"/>
<g opacity="0.6">
<path d="M112.888 146.016L159.583 172.848C164.055 175.414 171.863 175.059 177.003 172.066C182.155 169.074 182.692 164.56 178.22 161.993L131.526 135.162C127.054 132.595 119.246 132.95 114.105 135.943C108.954 138.935 108.417 143.45 112.888 146.016Z" fill="#020230"/>
</g>
<path d="M144.961 129.755L131.079 121.741C130.309 121.295 130.4 120.513 131.292 120.006C132.185 119.489 133.533 119.438 134.304 119.885L148.186 127.898C148.956 128.345 148.865 129.126 147.973 129.633C147.08 130.15 145.732 130.201 144.961 129.755Z" fill="#1C85FF"/>
<path d="M155.486 135.831L150.447 132.92C149.676 132.474 149.768 131.692 150.66 131.185C151.552 130.668 152.901 130.617 153.671 131.063L158.711 133.975C159.482 134.421 159.39 135.202 158.498 135.71C157.606 136.227 156.257 136.278 155.486 135.831Z" fill="#1C85FF"/>
<path d="M215.008 90.2836L210.871 87.8896C210.1 87.4433 210.192 86.6622 211.084 86.1549C211.976 85.6376 213.325 85.5869 214.096 86.0332L218.233 88.4272C219.003 88.8736 218.912 89.6547 218.02 90.1619C217.127 90.6793 215.779 90.73 215.008 90.2836Z" fill="#1C85FF"/>
<path d="M231.121 99.5859L220.2 93.2762C219.429 92.8299 219.52 92.0487 220.413 91.5415C221.305 91.0242 222.654 90.9735 223.424 91.4198L234.345 97.7295C235.116 98.1759 235.024 98.957 234.132 99.4642C233.24 99.9815 231.891 100.032 231.121 99.5859Z" fill="#1C85FF"/>
<path d="M196.31 111.485C192.873 113.473 187.296 113.473 183.848 111.485C180.4 109.497 180.411 106.271 183.848 104.293C187.285 102.315 192.862 102.304 196.31 104.293C199.748 106.281 199.748 109.507 196.31 111.485Z" fill="#1C85FF"/>
<path d="M186.292 107.64L189.658 105.693C190.246 105.358 191.24 105.5 191.473 105.956L192.933 108.746C193.187 109.233 192.406 109.679 191.575 109.537L186.748 108.695C185.957 108.553 185.704 107.985 186.292 107.64Z" fill="#1C85FF"/>
<path d="M189.82 25.4823L194.018 27.9068C194.809 28.3633 196.077 28.3633 196.868 27.9068C197.649 27.4503 197.649 26.7199 196.868 26.2634L192.67 23.8389C191.889 23.3825 190.611 23.3825 189.82 23.8389C189.04 24.2954 189.04 25.0258 189.82 25.4823Z" fill="#7B82E5"/>
<path opacity="0.6" d="M183.858 28.9212L195.712 35.7686C196.493 36.2251 197.77 36.2251 198.561 35.7686C199.352 35.3121 199.342 34.5817 198.561 34.1252L186.707 27.2779C185.927 26.8214 184.649 26.8214 183.858 27.2779C183.077 27.7343 183.077 28.4647 183.858 28.9212Z" fill="#1C85FF"/>
<path opacity="0.6" d="M213.913 37.7569C214.704 37.3004 214.694 36.57 213.913 36.1135L202.059 29.2661C201.279 28.8096 200.001 28.8096 199.21 29.2661C198.429 29.7226 198.429 30.453 199.21 30.9095L211.064 37.7569C211.844 38.2133 213.122 38.2133 213.913 37.7569Z" fill="#1C85FF"/>
<path d="M223.191 41.4696L222.491 41.0639L219.125 39.1162C218.344 38.6597 217.067 38.6597 216.276 39.1162C215.495 39.5727 215.495 40.303 216.276 40.7595L219.642 42.7072L220.342 43.113L223.708 45.0607C224.499 45.5172 225.767 45.5172 226.558 45.0607C227.349 44.6042 227.338 43.8738 226.558 43.4173L223.191 41.4696Z" fill="#1C85FF"/>
<path d="M246.513 196.291L263.64 206.181C264.623 206.749 266.225 206.749 267.219 206.181C268.202 205.613 268.202 204.69 267.219 204.112L250.092 194.221C249.109 193.653 247.507 193.653 246.513 194.221C245.529 194.789 245.529 195.713 246.513 196.291Z" fill="#1C85FF"/>
<path opacity="0.6" d="M239.01 198.563C238.026 199.131 238.026 200.054 239.01 200.632L265.353 215.849C266.337 216.417 267.939 216.417 268.933 215.849C269.916 215.281 269.916 214.358 268.933 213.779L242.599 198.563C241.616 197.995 240.013 197.995 239.02 198.563H239.01Z" fill="#1C85FF"/>
<path d="M231.516 204.954L236.799 208.007C237.783 208.575 239.385 208.575 240.378 208.007C241.362 207.439 241.362 206.516 240.378 205.938L235.096 202.884C234.112 202.316 232.51 202.316 231.516 202.884C230.533 203.453 230.533 204.376 231.516 204.954Z" fill="#1C85FF"/>
<path d="M224.023 209.286L238.928 217.898C239.912 218.466 241.514 218.466 242.508 217.898C243.491 217.33 243.491 216.407 242.508 215.829L227.602 207.216C226.618 206.648 225.016 206.648 224.023 207.216C223.039 207.784 223.039 208.707 224.023 209.286Z" fill="#7B82E5"/>
<path d="M261.804 220.383C262.788 219.815 262.788 218.892 261.804 218.314L246.898 209.701C245.915 209.133 244.313 209.133 243.319 209.701C242.335 210.27 242.335 211.193 243.319 211.771L258.225 220.383C259.208 220.951 260.81 220.951 261.804 220.383Z" fill="#1C85FF"/>
<path opacity="0.6" d="M273.475 225.06L272.603 224.553L268.365 222.108C267.381 221.54 265.779 221.54 264.785 222.108C263.802 222.676 263.802 223.599 264.785 224.177L269.024 226.622L269.896 227.129L274.134 229.574C275.118 230.142 276.72 230.142 277.714 229.574C278.697 229.006 278.697 228.083 277.714 227.505L273.475 225.06Z" fill="#1C85FF"/>
<path d="M333.413 88.6605L332.713 88.2548L329.347 86.3071C328.566 85.8506 327.288 85.8506 326.497 86.3071C325.716 86.7636 325.716 87.494 326.497 87.9504L329.864 89.8981L330.563 90.3039L333.93 92.2516C334.721 92.7081 335.988 92.7081 336.779 92.2516C337.57 91.7951 337.57 91.0647 336.779 90.6082L333.413 88.6605Z" fill="#1C85FF"/>
<path d="M270.119 51.979L269.419 51.5733L266.053 49.6256C265.272 49.1691 263.994 49.1691 263.204 49.6256C262.423 50.0821 262.423 50.8124 263.204 51.2689L266.57 53.2166L267.27 53.6224L270.636 55.5701C271.427 56.0266 272.695 56.0266 273.485 55.5701C274.276 55.1136 274.276 54.3832 273.485 53.9267L270.119 51.979Z" fill="#1C85FF"/>
<path d="M283.301 59.4959L282.601 59.0901L279.235 57.1424C278.454 56.6859 277.176 56.6859 276.386 57.1424C275.605 57.5989 275.605 58.3293 276.386 58.7858L279.752 60.7335L280.452 61.1392L281.526 61.758C282.317 62.2145 283.585 62.2145 284.376 61.758C285.167 61.3015 285.157 60.5712 284.376 60.1147L283.301 59.4959Z" fill="#1C85FF"/>
<path d="M260.8 80.1698L267.472 76.315L265.789 75.747L266.844 75.1383C267.979 75.4629 268.831 75.6151 269.409 75.5847L270.494 76.2136L262.22 80.9915L260.8 80.1698Z" fill="white"/>
<path d="M264.167 82.1175L265.16 81.5393L270.342 80.8799C270.423 80.8698 270.626 80.8394 270.961 80.8089C271.295 80.7684 271.518 80.7379 271.64 80.7176C271.762 80.6973 271.944 80.6669 272.187 80.6162C272.431 80.5655 272.634 80.5147 272.806 80.4437C272.978 80.3829 273.141 80.3017 273.303 80.2104C273.627 80.0177 273.82 79.8452 273.871 79.6829C273.921 79.5206 273.83 79.3684 273.577 79.2366C273.049 78.9627 272.35 79.0641 271.488 79.5612L271.143 79.7641L269.744 78.9525L270.099 78.7496C270.474 78.5265 270.859 78.354 271.234 78.2323C271.609 78.1106 271.995 78.0294 272.39 77.9888C272.786 77.9584 273.181 77.9888 273.577 78.0801C273.982 78.1714 274.368 78.3337 274.753 78.5468C275.453 78.9525 275.787 79.3684 275.767 79.7945C275.747 80.2206 275.392 80.6365 274.702 81.0321C274.469 81.164 274.226 81.2857 273.972 81.377C273.719 81.4784 273.445 81.5495 273.151 81.6103C272.857 81.6712 272.593 81.7118 272.38 81.7422C272.157 81.7726 271.873 81.8031 271.508 81.8436C271.468 81.8436 271.437 81.8436 271.417 81.8436C271.397 81.8436 271.366 81.8436 271.336 81.8436C271.305 81.8436 271.275 81.8436 271.244 81.8436L266.955 82.361L269.44 83.7913L268.294 84.4507L264.177 82.077L264.167 82.1175Z" fill="white"/>
<path d="M270.281 84.684L271.62 83.913L272.968 84.6941L271.63 85.4651L270.281 84.684ZM273.658 82.7363L275.006 81.9552L276.355 82.7363L275.006 83.5174L273.658 82.7363Z" fill="white"/>
<path d="M273.658 87.7374C272.918 87.3113 272.583 86.8751 272.634 86.4389C272.684 86.0027 273.09 85.5665 273.84 85.1303L274.134 84.9579L275.554 85.7796L275.321 85.9114C274.905 86.1549 274.652 86.3679 274.56 86.5404C274.469 86.7128 274.56 86.8853 274.854 87.0577C274.976 87.1288 275.108 87.1795 275.25 87.2099C275.382 87.2403 275.513 87.2505 275.635 87.2403C275.757 87.2403 275.889 87.1998 276.041 87.149C276.193 87.0983 276.325 87.0375 276.456 86.9766C276.588 86.9157 276.74 86.8346 276.913 86.7331C277.349 86.4795 277.612 86.2462 277.704 86.0332C277.785 85.8201 277.663 85.597 277.328 85.3839C277.318 85.3839 277.278 85.3535 277.217 85.3231C277.156 85.2825 277.126 85.2622 277.116 85.2622L278.302 84.5724C278.413 84.6333 278.474 84.6739 278.495 84.684C278.87 84.8869 279.225 84.9782 279.549 84.9579C279.874 84.9376 280.249 84.8057 280.665 84.5623C281.03 84.3492 281.253 84.1565 281.324 83.9942C281.395 83.8217 281.293 83.6594 281.009 83.4971C280.888 83.4261 280.766 83.3754 280.634 83.3551C280.512 83.3247 280.381 83.3145 280.259 83.3247C280.137 83.3247 280.016 83.3551 279.874 83.3957C279.742 83.4363 279.61 83.487 279.488 83.5478C279.367 83.6087 279.235 83.6696 279.083 83.7609L278.799 83.9232L277.379 83.1015L277.764 82.8783C278.474 82.4726 279.204 82.2595 279.965 82.2595C280.725 82.2595 281.455 82.4421 282.145 82.8479C282.845 83.2537 283.189 83.6696 283.179 84.1058C283.179 84.542 282.824 84.9579 282.115 85.3637C281.648 85.6376 281.151 85.7999 280.634 85.8709C280.117 85.9317 279.64 85.9013 279.214 85.7593C279.448 86.0332 279.498 86.3274 279.356 86.6317C279.215 86.936 278.87 87.2505 278.332 87.5548C277.541 88.0113 276.751 88.2649 275.97 88.3258C275.179 88.3866 274.418 88.1939 273.668 87.7678L273.658 87.7374Z" fill="white"/>
<path d="M280.979 91.1966C280.168 91.2372 279.417 91.0546 278.718 90.6488C278.028 90.2431 277.714 89.817 277.785 89.3504C277.856 88.8838 278.251 88.4374 278.991 88.0113L282.632 85.9115C283.382 85.4753 284.163 85.2318 284.954 85.1913C285.745 85.1507 286.505 85.3333 287.215 85.7492C287.925 86.1651 288.249 86.6013 288.168 87.0578C288.087 87.5143 287.681 87.9606 286.931 88.3968L283.291 90.4967C282.561 90.9227 281.79 91.1459 280.979 91.1865V91.1966ZM279.934 89.9489C280.411 90.2228 281.06 90.1315 281.871 89.6649L285.461 87.5853C285.572 87.5244 285.663 87.4636 285.745 87.4128C285.826 87.3621 285.907 87.3012 285.998 87.2302C286.079 87.1592 286.14 87.0984 286.181 87.0375C286.221 86.9766 286.252 86.9056 286.262 86.8448C286.282 86.7839 286.262 86.7129 286.211 86.6419C286.16 86.5709 286.089 86.51 285.988 86.4491C285.866 86.3781 285.734 86.3274 285.592 86.3071C285.451 86.2868 285.319 86.2767 285.187 86.297C285.065 86.3071 284.923 86.3477 284.781 86.3984C284.639 86.4491 284.508 86.4999 284.396 86.5607C284.284 86.6114 284.163 86.6824 284.031 86.7535L280.441 88.833C279.63 89.2997 279.468 89.675 279.945 89.9489H279.934Z" fill="white"/>
<path opacity="0.8" d="M305.406 65.8969C304.453 66.4447 302.912 66.4447 301.969 65.8969C301.015 65.3491 301.015 64.4564 301.969 63.9086C302.922 63.3609 304.463 63.3609 305.406 63.9086C306.359 64.4564 306.359 65.3491 305.406 65.8969Z" fill="#06033E"/>
</g>
<defs>
<linearGradient id="paint0_linear_0_204" x1="376.933" y1="153.421" x2="410" y2="153.421" gradientUnits="userSpaceOnUse">
<stop stop-color="#1C85FF"/>
<stop offset="1" stop-color="#C0BFF6"/>
</linearGradient>
<linearGradient id="paint1_linear_0_204" x1="309.604" y1="178.711" x2="365.141" y2="178.711" gradientUnits="userSpaceOnUse">
<stop stop-color="#D2D2F9"/>
<stop offset="1" stop-color="#1C85FF"/>
</linearGradient>
<linearGradient id="paint2_linear_0_204" x1="8.14514e-06" y1="144.789" x2="55.5468" y2="144.789" gradientUnits="userSpaceOnUse">
<stop stop-color="#1C85FF"/>
<stop offset="1" stop-color="#5761D7"/>
</linearGradient>
<linearGradient id="paint3_linear_0_204" x1="-119.898" y1="129.808" x2="-114.309" y2="129.808" gradientUnits="userSpaceOnUse">
<stop stop-color="#E9E9FD"/>
<stop offset="0.36" stop-color="#D2D2F9"/>
<stop offset="0.71" stop-color="#C4C3F6"/>
<stop offset="1" stop-color="#C0BFF6"/>
</linearGradient>
<radialGradient id="paint4_radial_0_204" cx="0" cy="0" r="1" gradientUnits="userSpaceOnUse" gradientTransform="translate(135.947 38.4669) scale(233.99 234.088)">
<stop stop-color="#6507FA"/>
<stop offset="1" stop-color="#3919BB"/>
</radialGradient>
<linearGradient id="paint5_linear_0_204" x1="207.857" y1="168.724" x2="180.993" y2="122.604" gradientUnits="userSpaceOnUse">
<stop stop-color="#1C85FF"/>
<stop offset="1" stop-color="#8786CE"/>
</linearGradient>
<linearGradient id="paint6_linear_0_204" x1="160.895" y1="156.016" x2="129.253" y2="101.692" gradientUnits="userSpaceOnUse">
<stop stop-color="#7B82E5"/>
<stop offset="1" stop-color="#1C85FF"/>
</linearGradient>
<clipPath id="clip0_0_204">
<rect width="410" height="230" fill="white"/>
</clipPath>
</defs>
</svg>
