<svg width="70" height="70" viewBox="0 0 70 70" fill="none" xmlns="http://www.w3.org/2000/svg">
<path d="M64.9987 55.9103C64.7006 56.3739 64.3101 56.68 63.7349 56.472C63.1834 56.2728 63.1179 55.7943 63.1209 55.2713C63.1328 53.5 63.1298 51.7258 63.1238 49.9545C63.1119 46.828 60.8705 44.5753 57.7349 44.5693C57.2192 44.5693 56.6916 44.6555 56.1849 44.7714C55.1358 45.0092 54.1015 45.0181 53.0583 44.7476C49.258 43.7699 46.176 46.4595 46.1641 49.8297C46.1551 51.6782 46.17 53.5297 46.1522 55.3783C46.1522 55.6547 46.0866 55.9786 45.9286 56.1926C45.5113 56.7602 44.6201 56.5908 44.3668 55.9281C44.3399 55.8568 44.3071 55.7765 44.3071 55.7022C44.3519 53.2533 44.1611 50.7688 44.5098 48.3645C44.9271 45.5055 46.8645 43.7194 49.6603 42.914C49.7855 42.8783 49.9107 42.8278 50.0419 42.7832C47.7349 39.4308 49.1209 36.2063 50.9361 34.7203C53.097 32.952 56.2505 32.9669 58.3817 34.7441C60.2893 36.3341 61.4606 39.5824 59.2341 42.798C59.4517 42.8545 59.6544 42.8991 59.8481 42.9615C62.6022 43.8739 64.3012 45.7254 64.8854 48.5725C64.9092 48.6825 64.9569 48.7865 64.9957 48.8935V55.9043L64.9987 55.9103ZM58.5754 39.199C58.5814 37.0206 56.8228 35.2553 54.6499 35.2553C52.489 35.2553 50.7036 37.0384 50.7066 39.1961C50.7095 41.3359 52.4532 43.0744 54.6171 43.0952C56.8079 43.1131 58.5724 41.3775 58.5754 39.202V39.199Z" fill="#1C85FF"/>
<path d="M10.7663 42.7833C8.62022 39.7341 9.60383 36.4857 11.5442 34.8096C13.6426 32.9937 16.7901 32.9135 18.9839 34.658C21.431 36.6016 21.7767 39.4577 19.9794 42.7595C20.5576 42.9765 21.1687 43.1429 21.7141 43.4252C24.2715 44.7537 25.6157 46.8846 25.7022 49.7525C25.7588 51.6397 25.7201 53.5268 25.7111 55.417C25.7081 56.1214 25.3564 56.5196 24.7812 56.5255C24.1821 56.5345 23.8453 56.1303 23.8423 55.3813C23.8363 53.6101 23.8095 51.8388 23.8482 50.0675C23.9138 47.0629 21.6456 44.1712 17.5651 44.5724C16.6232 44.6645 15.6843 44.9023 14.7454 44.9082C13.9019 44.9112 13.0614 44.5843 12.2178 44.5813C9.12991 44.5694 6.88848 46.8489 6.87656 49.9397C6.87059 51.7496 6.87656 53.5595 6.87656 55.3695C6.87656 56.1124 6.53676 56.5255 5.94362 56.5255C5.35048 56.5255 5.0077 56.1154 5.00472 55.3724C5.00174 53.5417 4.99578 51.714 5.00472 49.8832C5.02261 46.4982 7.10904 43.8086 10.4026 42.9051C10.5159 42.8754 10.6232 42.8308 10.7693 42.7803L10.7663 42.7833ZM15.3564 43.0924C17.5383 43.0924 19.3028 41.33 19.2938 39.1635C19.2849 37.0296 17.5263 35.2732 15.3803 35.2524C13.2163 35.2316 11.4339 36.9999 11.428 39.1694C11.422 41.3508 13.1687 43.0953 15.3564 43.0924Z" fill="#1C85FF"/>
<path d="M30.3968 15.2275C28.1882 12.0713 29.3417 8.77538 31.3029 7.16756C33.4341 5.42006 36.5637 5.42006 38.7038 7.16756C40.6233 8.73377 41.8424 12.0237 39.598 15.2423C39.8663 15.3226 40.1256 15.3969 40.3819 15.4771C43.2612 16.3954 45.2433 18.9602 45.3238 21.9678C45.3774 23.9323 45.3447 25.8997 45.3417 27.8671C45.3417 28.5685 44.99 28.9816 44.4236 28.9876C43.8454 28.9935 43.4758 28.5596 43.4698 27.8285C43.4609 26.0572 43.4043 24.283 43.4818 22.5147C43.604 19.73 41.452 16.6302 37.2582 17.0166C36.683 17.0701 36.1226 17.3435 35.5503 17.3673C34.8379 17.394 34.0958 17.3613 33.4102 17.1889C29.3864 16.1755 26.4475 19.2218 26.522 22.2829C26.5667 24.1136 26.5458 25.9443 26.5131 27.772C26.5071 28.096 26.3998 28.5002 26.1852 28.7141C25.9974 28.8984 25.5533 28.9846 25.294 28.8984C25.0376 28.8122 24.7008 28.4556 24.6979 28.2178C24.68 25.8254 24.4982 23.4033 24.8052 21.0465C25.1956 18.0538 27.142 16.1815 30.063 15.3523C30.1733 15.3226 30.2776 15.272 30.3879 15.2275H30.3968ZM35.0853 7.7144C32.9303 7.64901 31.1211 9.37868 31.0615 11.5631C31.0019 13.6969 32.7664 15.5098 34.9482 15.5574C37.0734 15.6049 38.8588 13.8931 38.9423 11.7295C39.0257 9.59564 37.2821 7.78275 35.0853 7.71737V7.7144Z" fill="#1C85FF"/>
<path d="M34.2535 64.1429C30.5366 64.1191 26.3429 63.0789 22.4264 60.9599C21.708 60.5706 21.5262 59.8841 22.0091 59.3997C22.4264 58.9836 22.8794 59.0787 23.3474 59.3343C25.3295 60.4072 27.4159 61.1977 29.6216 61.6732C35.4666 62.9363 41.0523 62.2052 46.3757 59.4888C46.5665 59.3908 46.7483 59.2749 46.948 59.1946C47.4368 59.0014 47.9197 59.1738 48.1492 59.6107C48.3817 60.0476 48.2744 60.5617 47.8034 60.8262C47.0732 61.2363 46.325 61.6167 45.559 61.9496C42.1909 63.4148 38.6648 64.1429 34.2565 64.1429H34.2535Z" fill="#16253A"/>
<path d="M9.55609 31.0412C9.66339 30.6786 9.7856 30.1883 9.94953 29.7098C12.2953 22.8951 16.6708 17.8161 23.0792 14.4845C23.2163 14.4132 23.3564 14.3419 23.5024 14.2854C23.9972 14.0982 24.4652 14.2705 24.6947 14.7163C24.9212 15.1592 24.793 15.6584 24.337 15.9289C23.7498 16.2766 23.1299 16.5649 22.5457 16.9156C16.9987 20.2441 13.3117 25.0141 11.4577 31.1928C11.3236 31.6445 11.1716 32.0517 10.6589 32.1705C10.0419 32.3132 9.50244 31.8199 9.55311 31.0382L9.55609 31.0412Z" fill="#16253A"/>
<path d="M60.4592 31.2522C60.4443 31.7455 60.1999 32.0546 59.7558 32.1646C59.2789 32.2805 58.8944 32.0903 58.6977 31.6474C58.5486 31.3116 58.4711 30.9461 58.3579 30.5954C56.2416 24.1433 52.1552 19.3525 46.1403 16.1874C45.2819 15.7357 45.0196 15.2988 45.3057 14.7311C45.5948 14.1516 46.1224 14.0714 46.9659 14.5142C53.6962 18.0449 58.1731 23.433 60.3489 30.7083C60.3817 30.8212 60.4145 30.9312 60.4384 31.0471C60.4533 31.1214 60.4562 31.2016 60.4622 31.2551L60.4592 31.2522Z" fill="#16253A"/>
<path d="M30.2207 25.9709C30.2207 26.6515 30.2326 27.3321 30.2177 28.0097C30.2028 28.5832 29.8511 28.9577 29.3414 28.9845C28.8168 29.0112 28.3757 28.6308 28.3638 28.0423C28.3369 26.6634 28.3369 25.2844 28.3608 23.9054C28.3697 23.2962 28.7662 22.9336 29.3086 22.9395C29.8511 22.9455 30.2058 23.314 30.2207 23.9292C30.2356 24.6098 30.2237 25.2874 30.2237 25.9679L30.2207 25.9709Z" fill="#1C85FF"/>
<path d="M39.7767 25.9355C39.7767 25.2758 39.7678 24.616 39.7797 23.9533C39.7916 23.3202 40.1225 22.9577 40.6679 22.9398C41.2343 22.922 41.6307 23.2935 41.6396 23.9384C41.6605 25.2787 41.6605 26.6191 41.6396 27.9594C41.6307 28.5925 41.2194 28.9996 40.6769 28.9848C40.1314 28.9699 39.7857 28.5717 39.7737 27.9149C39.7648 27.2551 39.7737 26.5953 39.7737 25.9326L39.7767 25.9355Z" fill="#1C85FF"/>
<path d="M61.279 53.4792C61.279 54.1598 61.2909 54.8404 61.276 55.518C61.2641 56.1391 60.9183 56.5136 60.3818 56.5255C59.8185 56.5403 59.425 56.1629 59.4131 55.518C59.3922 54.1777 59.3922 52.8373 59.4131 51.497C59.4221 50.855 59.8185 50.4716 60.3788 50.4865C60.9153 50.5014 61.2611 50.8788 61.276 51.497C61.2909 52.1567 61.279 52.8165 61.279 53.4792Z" fill="#1C85FF"/>
<path d="M8.72742 53.509C8.72742 52.8284 8.71549 52.1478 8.7304 51.4702C8.74232 50.8848 9.07913 50.5222 9.59478 50.4925C10.1373 50.4627 10.5724 50.8164 10.5843 51.4108C10.6142 52.8076 10.6142 54.2074 10.5843 55.6072C10.5724 56.2045 10.1432 56.5552 9.59478 56.5255C9.07615 56.4988 8.74232 56.1391 8.7304 55.5507C8.71549 54.8701 8.72742 54.1896 8.72742 53.512V53.509Z" fill="#1C85FF"/>
<path d="M21.9944 53.5031C21.9944 54.1629 22.0033 54.8256 21.9944 55.4854C21.9825 56.1333 21.6278 56.5226 21.0644 56.5256C20.5041 56.5256 20.1315 56.1362 20.1255 55.4943C20.1136 54.1718 20.1166 52.8522 20.1255 51.5297C20.1315 50.8878 20.5011 50.4895 21.0555 50.4866C21.6159 50.4866 21.9825 50.8789 21.9944 51.5178C22.0063 52.1776 21.9944 52.8403 21.9944 53.5001V53.5031Z" fill="#1C85FF"/>
<path d="M49.881 53.5356C49.881 54.1953 49.8929 54.8581 49.878 55.5179C49.8661 56.1539 49.4846 56.5402 48.9183 56.5283C48.3788 56.5164 48.0151 56.136 48.0092 55.5268C47.9973 54.1864 47.9973 52.8461 48.0092 51.5057C48.0151 50.8727 48.4056 50.4804 48.9689 50.4953C49.5055 50.5101 49.8661 50.8906 49.878 51.4998C49.8929 52.1804 49.881 52.8609 49.881 53.5386V53.5356Z" fill="#1C85FF"/>
</svg>
