<svg width="525" height="316" viewBox="0 0 525 316" fill="none" xmlns="http://www.w3.org/2000/svg">
<g clip-path="url(#clip0_88_8726)">
<g opacity="0.3">
<path d="M375.345 226.657V206.959L369.904 203.925C368.369 213.246 357.444 219.358 348.318 220.633L286.148 257.083L258.99 266.888L172.382 222.084L174.4 220.941C166.986 217.467 162.993 209.553 159.001 202.298L153.165 205.772L149.699 206.739V226.964C149.699 230.834 152.244 234.703 157.333 237.605L244.117 287.816C254.296 293.708 270.792 293.708 280.971 287.816L367.755 237.605C372.756 234.703 375.301 230.921 375.389 227.14C375.389 226.964 375.389 226.788 375.389 226.613L375.345 226.657Z" fill="url(#paint0_linear_88_8726)"/>
<path opacity="0.3" d="M348.318 220.633L286.148 257.083L262.544 265.612V292.257C269.213 292.257 275.882 290.806 280.971 287.86L367.755 237.649C372.756 234.747 375.301 230.965 375.389 227.184C375.389 227.008 375.389 226.832 375.389 226.657V206.959L370.431 204.189H369.904C368.193 213.334 357.4 219.358 348.362 220.633H348.318Z" fill="#0F054C"/>
<path d="M244.073 267.811L157.289 217.599C147.111 211.707 147.111 202.166 157.289 196.274L244.073 146.063C254.252 140.171 270.748 140.171 280.927 146.063L367.711 196.274C377.889 202.166 377.889 211.707 367.711 217.599L280.927 267.811C270.748 273.702 254.252 273.702 244.073 267.811Z" fill="url(#paint1_linear_88_8726)"/>
<g opacity="0.3">
<path d="M244.073 267.811L157.289 217.599C147.111 211.707 147.111 202.166 157.289 196.274L244.073 146.063C254.252 140.171 270.748 140.171 280.927 146.063L367.711 196.274C377.889 202.166 377.889 211.707 367.711 217.599L280.927 267.811C270.748 273.702 254.252 273.702 244.073 267.811Z" fill="#0F054C"/>
</g>
</g>
<path opacity="0.4" d="M262.5 283.859C209.588 283.859 156.631 272.208 116.355 248.904C77.175 226.217 55.5889 196.055 55.5889 163.914C55.5889 131.773 77.175 101.611 116.355 78.923C196.952 32.3167 328.048 32.3167 408.645 78.923C447.825 101.611 469.411 131.773 469.411 163.914C469.411 196.055 447.825 226.217 408.645 248.904C368.369 272.208 315.413 283.859 262.5 283.859ZM262.5 45.4192C209.851 45.4192 157.202 57.0268 117.101 80.1981C78.4035 102.578 57.1245 132.301 57.1245 163.87C57.1245 195.439 78.4474 225.162 117.101 247.541C197.259 293.928 327.697 293.928 407.856 247.541C446.553 225.162 467.832 195.439 467.832 163.87C467.832 132.301 446.509 102.578 407.856 80.1981C367.755 57.0268 315.105 45.4192 262.456 45.4192H262.5Z" fill="#1C85FF"/>
<path opacity="0.2" d="M262.5 316C195.328 316 128.157 301.227 77.0433 271.636C27.3776 242.881 0 204.628 0 163.87C0 123.111 27.3776 84.9027 77.0433 56.1474C179.314 -3.03385 345.686 -3.03385 447.957 56.1474C497.622 84.9027 525 123.155 525 163.87C525 204.584 497.622 242.881 447.957 271.592C396.843 301.183 329.672 315.956 262.5 315.956V316ZM262.5 13.2784C195.592 13.2784 128.727 28.0077 77.7892 57.4665C28.606 85.914 1.5356 123.727 1.5356 163.87C1.5356 204.013 28.606 241.825 77.833 270.273C179.665 329.19 345.379 329.19 447.211 270.273C496.394 241.825 523.508 204.013 523.508 163.87C523.508 123.727 496.438 85.914 447.211 57.4665C396.273 28.0077 329.408 13.2784 262.5 13.2784Z" fill="#1C85FF"/>
<path d="M262.5 258.533C220.776 258.533 179.095 249.344 147.33 230.965C116.399 213.07 99.4192 189.239 99.4192 163.87C99.4192 138.5 116.442 114.669 147.33 96.7742C210.816 60.0167 314.184 60.0167 377.67 96.7742C408.558 114.669 425.581 138.5 425.581 163.87C425.581 189.239 408.558 213.07 377.67 230.965C345.905 249.344 304.224 258.533 262.5 258.533ZM262.5 70.7449C221.083 70.7449 179.621 79.8903 148.076 98.1372C117.671 115.724 100.911 139.072 100.911 163.914C100.911 188.712 117.671 212.059 148.076 229.69C211.167 266.184 313.833 266.184 376.924 229.69C407.329 212.103 424.089 188.756 424.089 163.914C424.089 139.072 407.329 115.768 376.924 98.1372C345.379 79.8903 303.961 70.7449 262.5 70.7449Z" fill="#1C85FF"/>
<path d="M262.5 194.78C256.577 194.78 250.654 193.46 246.135 190.866L159.352 140.655C154.832 138.06 152.375 134.543 152.375 130.762C152.375 126.98 154.876 123.463 159.352 120.869L246.135 70.6571C255.173 65.4249 269.827 65.4249 278.865 70.6571L365.648 120.869C370.168 123.463 372.625 126.98 372.625 130.762C372.625 134.543 370.124 138.06 365.648 140.655L278.865 190.866C274.346 193.46 268.423 194.78 262.5 194.78ZM262.5 68.1949C256.84 68.1949 251.18 69.426 246.881 71.9322L160.097 122.144C156.105 124.474 153.867 127.508 153.867 130.718C153.867 133.927 156.061 136.961 160.097 139.292L246.881 189.503C255.48 194.472 269.476 194.472 278.075 189.503L364.859 139.292C368.851 136.961 371.089 133.927 371.089 130.718C371.089 127.508 368.895 124.474 364.859 122.144L278.075 71.9322C273.776 69.426 268.116 68.1949 262.456 68.1949H262.5Z" fill="#1C85FF"/>
<path opacity="0.4" d="M375.345 111.46V81.6931L369.904 78.6593C368.369 87.9806 357.444 94.0922 348.318 95.3672L286.148 131.817L258.99 141.622L172.382 96.8182L174.4 95.675C166.985 92.2015 162.993 84.2872 159 77.0325L153.165 80.506L149.699 81.4733V111.767C149.699 115.637 152.244 119.506 157.333 122.408L244.116 172.619C254.295 178.511 270.792 178.511 280.971 172.619L367.754 122.408C372.756 119.506 375.301 115.725 375.388 111.943C375.388 111.767 375.388 111.592 375.388 111.416L375.345 111.46Z" fill="#1C85FF"/>
<path d="M375.345 84.9907V65.293L369.904 62.2591C368.369 71.5804 357.444 77.692 348.318 78.9671L286.148 115.417L258.99 125.222L172.382 80.4181L174.4 79.2749C166.985 75.8014 162.993 67.8871 159 60.6323L153.165 64.1058L149.699 65.0731V85.2985C149.699 89.1677 152.244 93.0369 157.333 95.9389L244.116 146.151C254.295 152.042 270.792 152.042 280.971 146.151L367.754 95.9389C372.756 93.0369 375.301 89.2557 375.388 85.4744C375.388 85.2985 375.388 85.1227 375.388 84.9468L375.345 84.9907Z" fill="url(#paint2_linear_88_8726)"/>
<path opacity="0.3" d="M348.318 78.9671L286.148 115.417L262.544 123.947V150.591C269.213 150.591 275.882 149.14 280.971 146.195L367.755 95.9828C372.756 93.0809 375.301 89.2996 375.389 85.5184C375.389 85.3425 375.389 85.1666 375.389 84.9907V65.293L370.431 62.5229H369.904C368.193 71.6683 357.4 77.692 348.362 78.9671H348.318Z" fill="#0F054C"/>
<path d="M244.072 126.145L157.289 75.9332C147.11 70.0415 147.11 60.5004 157.289 54.6086L244.072 4.39684C254.251 -1.49491 270.748 -1.49491 280.927 4.39684L367.71 54.6086C377.889 60.5004 377.889 70.0415 367.71 75.9332L280.927 126.145C270.748 132.037 254.251 132.037 244.072 126.145Z" fill="url(#paint3_linear_88_8726)"/>
<path d="M262.5 117.044C257.147 117.044 251.795 115.856 247.714 113.526L179.928 74.3064C175.848 71.9321 173.611 68.7664 173.611 65.2929C173.611 61.8634 175.848 58.6537 179.928 56.3234L247.714 17.1036C255.875 12.399 269.125 12.399 277.286 17.1036L345.071 56.3234C349.152 58.6976 351.389 61.8634 351.389 65.3368C351.389 68.8103 349.152 71.9761 345.071 74.3064L277.286 113.526C273.205 115.9 267.853 117.044 262.5 117.044ZM248.46 112.207C256.182 116.692 268.774 116.692 276.496 112.207L344.282 72.9873C347.879 70.9208 349.854 68.1948 349.854 65.3368C349.854 62.4789 347.879 59.7529 344.282 57.6864L276.496 18.4667C268.774 13.9819 256.182 13.9819 248.46 18.4667L180.674 57.6864C177.077 59.7529 175.102 62.4789 175.102 65.3368C175.102 68.1948 177.077 70.9208 180.674 73.0313L248.46 112.251V112.207Z" fill="#5351AF"/>
<path d="M367.711 75.9332L280.927 126.145C270.748 132.037 254.252 132.037 244.073 126.145L157.289 75.9332C152.726 73.2951 150.226 69.9535 149.743 66.48C149.129 70.7449 151.673 75.0978 157.289 78.3514L244.073 128.563C254.252 134.455 270.748 134.455 280.927 128.563L367.711 78.3514C373.326 75.0978 375.827 70.7009 375.257 66.48C374.774 69.9095 372.273 73.2951 367.711 75.9332Z" fill="white"/>
</g>
<defs>
<linearGradient id="paint0_linear_88_8726" x1="172.119" y1="167.783" x2="351.361" y2="271.04" gradientUnits="userSpaceOnUse">
<stop stop-color="#BCBEFF"/>
<stop offset="0.23" stop-color="#AAADF7"/>
<stop offset="0.68" stop-color="#7B82E5"/>
<stop offset="1" stop-color="#5761D7"/>
</linearGradient>
<linearGradient id="paint1_linear_88_8726" x1="149.655" y1="206.959" x2="375.345" y2="206.959" gradientUnits="userSpaceOnUse">
<stop stop-color="#E9E9FD"/>
<stop offset="0.36" stop-color="#D2D2F9"/>
<stop offset="0.71" stop-color="#C4C3F6"/>
<stop offset="1" stop-color="#C0BFF6"/>
</linearGradient>
<linearGradient id="paint2_linear_88_8726" x1="172.119" y1="26.1172" x2="351.361" y2="129.374" gradientUnits="userSpaceOnUse">
<stop stop-color="#BCBEFF"/>
<stop offset="0.23" stop-color="#AAADF7"/>
<stop offset="0.68" stop-color="#7B82E5"/>
<stop offset="1" stop-color="#5761D7"/>
</linearGradient>
<linearGradient id="paint3_linear_88_8726" x1="-0.000484457" y1="65.2929" x2="4.38695" y2="65.2929" gradientUnits="userSpaceOnUse">
<stop stop-color="#E9E9FD"/>
<stop offset="0.36" stop-color="#D2D2F9"/>
<stop offset="0.71" stop-color="#C4C3F6"/>
<stop offset="1" stop-color="#C0BFF6"/>
</linearGradient>
<clipPath id="clip0_88_8726">
<rect width="525" height="316" fill="white"/>
</clipPath>
</defs>
</svg>
