<svg width="70" height="70" viewBox="0 0 70 70" fill="none" xmlns="http://www.w3.org/2000/svg">
<path d="M16.855 34.6874V33.902C16.855 25.0925 16.855 16.2798 16.855 7.47034C16.855 6.23249 17.0843 6 18.2935 6C33.0526 6 47.8118 6 62.5677 6C63.7676 6 64 6.22935 64 7.40437C64 22.1832 64 36.962 64 51.7409C64 52.8845 63.7456 53.1421 62.6149 53.1421C53.7826 53.1421 44.9535 53.1421 36.1213 53.1421H35.3172C35.3172 53.428 35.3172 53.6605 35.3172 53.8961C35.3172 56.8179 35.3172 59.7429 35.3172 62.6648C35.3172 63.7267 35.044 63.9969 33.9823 63.9969C25.0904 63.9969 16.1985 63.9969 7.30662 63.9969C6.2764 63.9969 6 63.7235 6 62.7087C6 53.7956 6 44.8855 6 35.9724C6 34.9607 6.27954 34.6843 7.3129 34.6843C10.2371 34.6843 13.1581 34.6843 16.0823 34.6843C16.3179 34.6843 16.5566 34.6843 16.855 34.6843V34.6874ZM62.1029 51.2319V7.89448H18.7804V34.6874H19.553C24.346 34.6874 29.1359 34.6874 33.9289 34.6874C35.066 34.6874 35.3172 34.9387 35.3172 36.0949C35.3172 40.8861 35.3172 45.6804 35.3172 50.4716C35.3172 50.7104 35.3172 50.9523 35.3172 51.2288H62.1029V51.2319ZM7.89711 36.5913V62.1149H33.3824V53.1515H32.6098C27.8796 53.1515 23.1494 53.1515 18.4191 53.1515C17.0654 53.1515 16.855 52.9442 16.855 51.6183C16.855 46.846 16.855 42.0768 16.855 37.3045V36.5944H7.89711V36.5913ZM33.4076 36.5944H18.7678V51.235H33.4076V36.5944Z" fill="#16253A"/>
<path d="M53.321 15.152C52.0646 15.152 50.8114 15.1551 49.555 15.152C48.8075 15.152 48.3897 14.8001 48.4023 14.2063C48.4149 13.6345 48.8138 13.3047 49.533 13.3047C51.5432 13.3015 53.5534 13.2984 55.5604 13.3047C56.3708 13.3047 56.6943 13.6345 56.6974 14.4545C56.7037 16.4653 56.7037 18.4728 56.6974 20.4836C56.6974 21.1842 56.3457 21.5989 55.7772 21.602C55.2087 21.6052 54.8506 21.1905 54.8475 20.493C54.8412 19.2206 54.8475 17.9482 54.8475 16.5155C54.5773 16.7669 54.4046 16.9208 54.2413 17.081C49.979 21.3413 45.7168 25.6046 41.4515 29.868C40.7511 30.5686 40.2517 30.6754 39.7931 30.2324C39.3157 29.7738 39.4256 29.2585 40.1511 28.5328C44.4134 24.2694 48.6724 20.0029 52.9409 15.7458C53.0948 15.5919 53.3178 15.5133 53.5094 15.3971C53.4466 15.3154 53.3838 15.2306 53.321 15.1489V15.152Z" fill="#1C85FF"/>
</svg>
