<svg width="154" height="153" viewBox="0 0 154 153" fill="none" xmlns="http://www.w3.org/2000/svg">
<g clip-path="url(#clip0_0_123)">
<path opacity="0.4" d="M151.604 36.1982C132.054 31.6413 132.383 12.8362 132.383 12.8362C126.009 9.93205 118.743 7.74989 111.621 6.11327C88.7871 0.874476 64.9898 0.874476 42.148 6.11327C35.0264 7.74989 27.7604 9.93205 21.3855 12.8362C21.3855 12.8362 21.7147 31.6413 2.16465 36.1982C2.16465 36.1982 -3.04602 126.485 76.8885 150.802C156.823 126.493 151.612 36.1982 151.612 36.1982H151.604Z" fill="url(#paint0_linear_0_123)"/>
<path d="M65.2294 111.878C62.9046 111.878 61.2337 111.297 60.2045 110.141C59.1753 108.986 58.6667 107.147 58.6667 104.624V102.138H63.6977V105.314C63.6977 105.901 63.7885 106.361 63.9641 106.693C64.1397 107.026 64.4545 107.189 64.8964 107.189C65.3384 107.189 65.6774 107.056 65.859 106.784C66.0407 106.512 66.1254 106.07 66.1254 105.453C66.1254 104.673 66.0467 104.019 65.8954 103.493C65.744 102.967 65.4716 102.465 65.0902 101.993C64.7088 101.515 64.182 100.958 63.51 100.323L61.2276 98.1574C59.5204 96.5483 58.6667 94.7092 58.6667 92.6403C58.6667 90.5714 59.1692 88.8231 60.1803 87.6858C61.1853 86.5485 62.6443 85.9798 64.5513 85.9798C66.8822 85.9798 68.541 86.6029 69.5157 87.843C70.4965 89.0832 70.9808 90.9706 70.9808 93.5054H65.8046V91.7571C65.8046 91.4122 65.7077 91.14 65.5079 90.9464C65.3081 90.7529 65.0417 90.6561 64.7027 90.6561C64.2971 90.6561 64.0004 90.771 63.8127 90.9948C63.6251 91.2187 63.5282 91.5151 63.5282 91.866C63.5282 92.2168 63.6251 92.61 63.8188 93.0214C64.0125 93.4328 64.3939 93.9107 64.963 94.4491L67.8993 97.2682C68.4865 97.8247 69.0253 98.4176 69.5157 99.0407C70.0061 99.6638 70.3996 100.384 70.7023 101.206C70.999 102.029 71.1503 103.033 71.1503 104.219C71.1503 106.609 70.7084 108.478 69.8245 109.833C68.9406 111.188 67.4089 111.866 65.2173 111.866L65.2294 111.878Z" fill="url(#paint1_linear_0_123)"/>
<path d="M78.8935 111.878C76.5687 111.878 74.8978 111.297 73.8686 110.141C72.8394 108.986 72.3308 107.147 72.3308 104.624V102.138H77.3618V105.314C77.3618 105.901 77.4526 106.361 77.6282 106.693C77.8037 107.026 78.1185 107.189 78.5605 107.189C79.0024 107.189 79.3415 107.056 79.5231 106.784C79.6987 106.512 79.7895 106.07 79.7895 105.453C79.7895 104.673 79.7108 104.019 79.5594 103.493C79.4081 102.967 79.1356 102.465 78.7542 101.993C78.3728 101.515 77.8461 100.958 77.1741 100.323L74.8917 98.1574C73.1844 96.5483 72.3308 94.7092 72.3308 92.6403C72.3308 90.5714 72.8333 88.8231 73.8443 87.6858C74.8493 86.5485 76.3084 85.9798 78.2154 85.9798C80.5462 85.9798 82.2051 86.6029 83.1798 87.843C84.1545 89.0832 84.6449 90.9706 84.6449 93.5054H79.4686V91.7571C79.4686 91.4122 79.3717 91.14 79.172 90.9464C78.9722 90.7529 78.7058 90.6561 78.3668 90.6561C77.9611 90.6561 77.6645 90.771 77.4768 90.9948C77.2891 91.2187 77.1923 91.5151 77.1923 91.866C77.1923 92.2168 77.2891 92.61 77.4829 93.0214C77.6766 93.4328 78.058 93.9107 78.6271 94.4491L81.5633 97.2682C82.1506 97.8247 82.6894 98.4176 83.1798 99.0407C83.6702 99.6638 84.0637 100.384 84.3664 101.206C84.6691 102.029 84.8144 103.033 84.8144 104.219C84.8144 106.609 84.3724 108.478 83.4885 109.833C82.6046 111.188 81.073 111.866 78.8814 111.866L78.8935 111.878Z" fill="url(#paint2_linear_0_123)"/>
<path d="M86.5095 111.642V86.2157H91.601V107.31H96.8318V111.642H86.5095Z" fill="url(#paint3_linear_0_123)"/>
<path d="M76.5028 26.893C68.8755 26.893 62.6772 33.0864 62.6772 40.708V54.539H66.4026V40.708C66.4026 35.1402 70.9389 30.6155 76.5028 30.6155C82.0667 30.6155 86.603 35.1483 86.603 40.708V54.539H90.3284V40.708C90.3284 33.0864 84.1301 26.893 76.5028 26.893Z" fill="#1C85FF"/>
<path d="M90.9466 47.463H61.5613C59.3841 47.463 57.6191 49.2266 57.6191 51.4022V71.3946C57.6191 73.5701 59.3841 75.3337 61.5613 75.3337H90.9466C93.1238 75.3337 94.8887 73.5701 94.8887 71.3946V51.4022C94.8887 49.2266 93.1238 47.463 90.9466 47.463Z" fill="#1C85FF"/>
<path d="M80.172 59.5692C80.172 57.1303 77.94 55.2129 75.4109 55.7504C73.9256 56.0633 72.7293 57.2667 72.4322 58.7509C72.0709 60.54 72.922 62.1605 74.319 62.9548C74.6562 63.1473 74.8649 63.5003 74.8649 63.8854V68.2257C74.8649 68.9958 75.4912 69.6216 76.262 69.6216C77.0327 69.6216 77.659 68.9958 77.659 68.2257V63.8854C77.659 63.4923 77.8757 63.1393 78.2129 62.9468C79.3851 62.2729 80.18 61.0133 80.18 59.5692H80.172Z" fill="#001731"/>
<path d="M77.004 153C76.7872 153 76.5704 152.968 76.3617 152.904C34.1785 140.075 15.6721 108.948 7.57913 85.0881C-1.14816 59.3675 0.0240452 37.0084 0.0802466 36.0697C0.136448 35.099 0.826923 34.2727 1.78235 34.0561C19.3011 29.9725 19.3092 13.5662 19.3011 12.8682C19.2931 11.9938 19.7989 11.1915 20.5938 10.8305C26.4708 8.15091 33.6004 5.84039 41.7737 3.96309C64.8163 -1.32384 89.1836 -1.32384 112.226 3.96309C120.408 5.84039 127.537 8.15091 133.406 10.8305C134.201 11.1915 134.707 11.9938 134.691 12.8682C134.683 13.5582 134.691 29.9645 152.21 34.048C153.157 34.2727 153.847 35.091 153.912 36.0617C153.968 37.0004 155.14 59.3595 146.413 85.0801C138.32 108.939 119.821 140.067 77.6302 152.896C77.4215 152.96 77.2047 152.992 76.9879 152.992L77.004 153ZM4.43184 37.9069C4.3355 43.4426 4.60848 62.6969 11.8023 83.8045C23.0345 116.786 44.9692 138.543 77.004 148.491C109.039 138.551 130.973 116.794 142.206 83.8045C149.391 62.6969 149.664 43.4426 149.568 37.9069C133.366 33.2618 130.781 18.9735 130.371 14.2963C125 11.9697 118.569 9.93997 111.239 8.25521C88.8384 3.11269 65.1535 3.11269 42.7532 8.25521C35.4229 9.93997 28.9919 11.9697 23.6206 14.2963C23.2112 18.9815 20.6259 33.2618 4.42382 37.9069H4.43184Z" fill="url(#paint4_linear_0_123)"/>
</g>
<defs>
<linearGradient id="paint0_linear_0_123" x1="76.8885" y1="42.1352" x2="76.8885" y2="150.802" gradientUnits="userSpaceOnUse">
<stop stop-color="#1C85FF"/>
<stop offset="1" stop-color="#001227"/>
</linearGradient>
<linearGradient id="paint1_linear_0_123" x1="50.3888" y1="98.9331" x2="50.6315" y2="98.9331" gradientUnits="userSpaceOnUse">
<stop stop-color="#E9E9FD"/>
<stop offset="0.36" stop-color="#D2D2F9"/>
<stop offset="0.71" stop-color="#C4C3F6"/>
<stop offset="1" stop-color="#C0BFF6"/>
</linearGradient>
<linearGradient id="paint2_linear_0_123" x1="64.0529" y1="98.9331" x2="64.2956" y2="98.9331" gradientUnits="userSpaceOnUse">
<stop stop-color="#E9E9FD"/>
<stop offset="0.36" stop-color="#D2D2F9"/>
<stop offset="0.71" stop-color="#C4C3F6"/>
<stop offset="1" stop-color="#C0BFF6"/>
</linearGradient>
<linearGradient id="paint3_linear_0_123" x1="79.6648" y1="98.933" x2="79.8655" y2="98.933" gradientUnits="userSpaceOnUse">
<stop stop-color="#E9E9FD"/>
<stop offset="0.36" stop-color="#D2D2F9"/>
<stop offset="0.71" stop-color="#C4C3F6"/>
<stop offset="1" stop-color="#C0BFF6"/>
</linearGradient>
<linearGradient id="paint4_linear_0_123" x1="0.0263975" y1="76.4929" x2="153.966" y2="76.4929" gradientUnits="userSpaceOnUse">
<stop stop-color="#D2D2F9"/>
<stop offset="1" stop-color="#1C85FF"/>
</linearGradient>
<clipPath id="clip0_0_123">
<rect width="154" height="153" fill="white"/>
</clipPath>
</defs>
</svg>
