<svg width="70" height="70" viewBox="0 0 70 70" fill="none" xmlns="http://www.w3.org/2000/svg">
<path d="M42.556 47.6136C30.7333 47.6136 21.1118 37.8323 21.1118 25.8069C21.1118 13.7815 30.7306 4.00293 42.556 4.00293C54.3815 4.00293 64.0002 13.7843 64.0002 25.8097C64.0002 37.8351 54.3815 47.6164 42.556 47.6164V47.6136ZM42.556 5.5515C31.5723 5.5515 22.6346 14.6402 22.6346 25.8097C22.6346 36.9791 31.5723 46.0679 42.556 46.0679C53.5397 46.0679 62.4774 36.9791 62.4774 25.8097C62.4774 14.6402 53.5397 5.5515 42.556 5.5515Z" fill="black"/>
<path d="M40.864 4.26297L23.6802 21.7373L24.757 22.8323L41.9408 5.35797L40.864 4.26297Z" fill="black"/>
<path d="M46.7956 4.79333L21.8901 30.1199L22.9669 31.2149L47.8724 5.88834L46.7956 4.79333Z" fill="black"/>
<path d="M51.5119 6.57002L23.6384 34.9148L24.7152 36.0098L52.5887 7.66503L51.5119 6.57002Z" fill="black"/>
<path d="M55.3785 9.21052L26.2344 38.8474L27.3112 39.9424L56.4553 10.3055L55.3785 9.21052Z" fill="black"/>
<path d="M58.5177 12.5853L29.5498 42.043L30.6266 43.138L59.5945 13.6803L58.5177 12.5853Z" fill="black"/>
<path d="M60.92 16.7153L33.6143 44.4827L34.6911 45.5777L61.9968 17.8103L60.92 16.7153Z" fill="black"/>
<path d="M62.409 21.767L38.5784 46.0005L39.6552 47.0955L63.4858 22.862L62.409 21.767Z" fill="black"/>
<path d="M62.4883 28.2574L46.5066 44.5093L47.5834 45.6043L63.5651 29.3524L62.4883 28.2574Z" fill="black"/>
<path d="M26.4471 64.9969C14.6217 64.9969 5.00293 55.2156 5.00293 43.193C5.00293 31.1704 14.6217 21.3862 26.4471 21.3862C38.2726 21.3862 47.8913 31.1676 47.8913 43.193C47.8913 55.2184 38.2726 64.9997 26.4471 64.9997V64.9969ZM26.4471 22.9348C15.4634 22.9348 6.52576 32.0235 6.52576 43.193C6.52576 54.3624 15.4634 63.4512 26.4471 63.4512C37.4309 63.4512 46.3685 54.3624 46.3685 43.193C46.3685 32.0235 37.4309 22.9348 26.4471 22.9348Z" fill="#1C85FF"/>
</svg>
